G04 #@! TF.GenerationSoftware,KiCad,Pcbnew,(5.1.5)-3*
G04 #@! TF.CreationDate,2020-03-31T21:34:46+02:00*
G04 #@! TF.ProjectId,cc1352P-dongle,63633133-3532-4502-9d64-6f6e676c652e,rev?*
G04 #@! TF.SameCoordinates,Original*
G04 #@! TF.FileFunction,Soldermask,Top*
G04 #@! TF.FilePolarity,Negative*
%FSLAX46Y46*%
G04 Gerber Fmt 4.6, Leading zero omitted, Abs format (unit mm)*
G04 Created by KiCad (PCBNEW (5.1.5)-3) date 2020-03-31 21:34:46*
%MOMM*%
%LPD*%
G04 APERTURE LIST*
%ADD10C,0.150000*%
%ADD11C,0.100000*%
G04 APERTURE END LIST*
D10*
X66040000Y-71120000D02*
X66040000Y-48260000D01*
X129540000Y-71120000D02*
X66040000Y-71120000D01*
X129540000Y-48260000D02*
X129540000Y-71120000D01*
X66040000Y-48260000D02*
X129540000Y-48260000D01*
D11*
G36*
X95912810Y-69079402D02*
G01*
X95963202Y-69094689D01*
X95988399Y-69102332D01*
X96058062Y-69139568D01*
X96119122Y-69189678D01*
X96169232Y-69250738D01*
X96206468Y-69320401D01*
X96206468Y-69320402D01*
X96229398Y-69395990D01*
X96235200Y-69454902D01*
X96235200Y-70194298D01*
X96229398Y-70253210D01*
X96221878Y-70277998D01*
X96206468Y-70328799D01*
X96169232Y-70398462D01*
X96119122Y-70459522D01*
X96058060Y-70509633D01*
X95988400Y-70546867D01*
X95988397Y-70546868D01*
X95912809Y-70569798D01*
X95834200Y-70577540D01*
X95755590Y-70569798D01*
X95705198Y-70554511D01*
X95680001Y-70546868D01*
X95610338Y-70509632D01*
X95549278Y-70459522D01*
X95499167Y-70398460D01*
X95461933Y-70328800D01*
X95461932Y-70328797D01*
X95439002Y-70253209D01*
X95433200Y-70194297D01*
X95433200Y-69454904D01*
X95439003Y-69395992D01*
X95439003Y-69395990D01*
X95461933Y-69320402D01*
X95461933Y-69320401D01*
X95499169Y-69250738D01*
X95549279Y-69189678D01*
X95610339Y-69139568D01*
X95680002Y-69102332D01*
X95705199Y-69094689D01*
X95755591Y-69079402D01*
X95834200Y-69071660D01*
X95912810Y-69079402D01*
G37*
G36*
X83212810Y-69079402D02*
G01*
X83263202Y-69094689D01*
X83288399Y-69102332D01*
X83358062Y-69139568D01*
X83419122Y-69189678D01*
X83469232Y-69250738D01*
X83506468Y-69320401D01*
X83506468Y-69320402D01*
X83529398Y-69395990D01*
X83535200Y-69454902D01*
X83535200Y-70194298D01*
X83529398Y-70253210D01*
X83521878Y-70277998D01*
X83506468Y-70328799D01*
X83469232Y-70398462D01*
X83419122Y-70459522D01*
X83358060Y-70509633D01*
X83288400Y-70546867D01*
X83288397Y-70546868D01*
X83212809Y-70569798D01*
X83134200Y-70577540D01*
X83055590Y-70569798D01*
X83005198Y-70554511D01*
X82980001Y-70546868D01*
X82910338Y-70509632D01*
X82849278Y-70459522D01*
X82799167Y-70398460D01*
X82761933Y-70328800D01*
X82761932Y-70328797D01*
X82739002Y-70253209D01*
X82733200Y-70194297D01*
X82733200Y-69454904D01*
X82739003Y-69395992D01*
X82739003Y-69395990D01*
X82761933Y-69320402D01*
X82761933Y-69320401D01*
X82799169Y-69250738D01*
X82849279Y-69189678D01*
X82910339Y-69139568D01*
X82980002Y-69102332D01*
X83005199Y-69094689D01*
X83055591Y-69079402D01*
X83134200Y-69071660D01*
X83212810Y-69079402D01*
G37*
G36*
X84482810Y-69079402D02*
G01*
X84533202Y-69094689D01*
X84558399Y-69102332D01*
X84628062Y-69139568D01*
X84689122Y-69189678D01*
X84739232Y-69250738D01*
X84776468Y-69320401D01*
X84776468Y-69320402D01*
X84799398Y-69395990D01*
X84805200Y-69454902D01*
X84805200Y-70194298D01*
X84799398Y-70253210D01*
X84791878Y-70277998D01*
X84776468Y-70328799D01*
X84739232Y-70398462D01*
X84689122Y-70459522D01*
X84628060Y-70509633D01*
X84558400Y-70546867D01*
X84558397Y-70546868D01*
X84482809Y-70569798D01*
X84404200Y-70577540D01*
X84325590Y-70569798D01*
X84275198Y-70554511D01*
X84250001Y-70546868D01*
X84180338Y-70509632D01*
X84119278Y-70459522D01*
X84069167Y-70398460D01*
X84031933Y-70328800D01*
X84031932Y-70328797D01*
X84009002Y-70253209D01*
X84003200Y-70194297D01*
X84003200Y-69454904D01*
X84009003Y-69395992D01*
X84009003Y-69395990D01*
X84031933Y-69320402D01*
X84031933Y-69320401D01*
X84069169Y-69250738D01*
X84119279Y-69189678D01*
X84180339Y-69139568D01*
X84250002Y-69102332D01*
X84275199Y-69094689D01*
X84325591Y-69079402D01*
X84404200Y-69071660D01*
X84482810Y-69079402D01*
G37*
G36*
X85752810Y-69079402D02*
G01*
X85803202Y-69094689D01*
X85828399Y-69102332D01*
X85898062Y-69139568D01*
X85959122Y-69189678D01*
X86009232Y-69250738D01*
X86046468Y-69320401D01*
X86046468Y-69320402D01*
X86069398Y-69395990D01*
X86075200Y-69454902D01*
X86075200Y-70194298D01*
X86069398Y-70253210D01*
X86061878Y-70277998D01*
X86046468Y-70328799D01*
X86009232Y-70398462D01*
X85959122Y-70459522D01*
X85898060Y-70509633D01*
X85828400Y-70546867D01*
X85828397Y-70546868D01*
X85752809Y-70569798D01*
X85674200Y-70577540D01*
X85595590Y-70569798D01*
X85545198Y-70554511D01*
X85520001Y-70546868D01*
X85450338Y-70509632D01*
X85389278Y-70459522D01*
X85339167Y-70398460D01*
X85301933Y-70328800D01*
X85301932Y-70328797D01*
X85279002Y-70253209D01*
X85273200Y-70194297D01*
X85273200Y-69454904D01*
X85279003Y-69395992D01*
X85279003Y-69395990D01*
X85301933Y-69320402D01*
X85301933Y-69320401D01*
X85339169Y-69250738D01*
X85389279Y-69189678D01*
X85450339Y-69139568D01*
X85520002Y-69102332D01*
X85545199Y-69094689D01*
X85595591Y-69079402D01*
X85674200Y-69071660D01*
X85752810Y-69079402D01*
G37*
G36*
X87022810Y-69079402D02*
G01*
X87073202Y-69094689D01*
X87098399Y-69102332D01*
X87168062Y-69139568D01*
X87229122Y-69189678D01*
X87279232Y-69250738D01*
X87316468Y-69320401D01*
X87316468Y-69320402D01*
X87339398Y-69395990D01*
X87345200Y-69454902D01*
X87345200Y-70194298D01*
X87339398Y-70253210D01*
X87331878Y-70277998D01*
X87316468Y-70328799D01*
X87279232Y-70398462D01*
X87229122Y-70459522D01*
X87168060Y-70509633D01*
X87098400Y-70546867D01*
X87098397Y-70546868D01*
X87022809Y-70569798D01*
X86944200Y-70577540D01*
X86865590Y-70569798D01*
X86815198Y-70554511D01*
X86790001Y-70546868D01*
X86720338Y-70509632D01*
X86659278Y-70459522D01*
X86609167Y-70398460D01*
X86571933Y-70328800D01*
X86571932Y-70328797D01*
X86549002Y-70253209D01*
X86543200Y-70194297D01*
X86543200Y-69454904D01*
X86549003Y-69395992D01*
X86549003Y-69395990D01*
X86571933Y-69320402D01*
X86571933Y-69320401D01*
X86609169Y-69250738D01*
X86659279Y-69189678D01*
X86720339Y-69139568D01*
X86790002Y-69102332D01*
X86815199Y-69094689D01*
X86865591Y-69079402D01*
X86944200Y-69071660D01*
X87022810Y-69079402D01*
G37*
G36*
X88292810Y-69079402D02*
G01*
X88343202Y-69094689D01*
X88368399Y-69102332D01*
X88438062Y-69139568D01*
X88499122Y-69189678D01*
X88549232Y-69250738D01*
X88586468Y-69320401D01*
X88586468Y-69320402D01*
X88609398Y-69395990D01*
X88615200Y-69454902D01*
X88615200Y-70194298D01*
X88609398Y-70253210D01*
X88601878Y-70277998D01*
X88586468Y-70328799D01*
X88549232Y-70398462D01*
X88499122Y-70459522D01*
X88438060Y-70509633D01*
X88368400Y-70546867D01*
X88368397Y-70546868D01*
X88292809Y-70569798D01*
X88214200Y-70577540D01*
X88135590Y-70569798D01*
X88085198Y-70554511D01*
X88060001Y-70546868D01*
X87990338Y-70509632D01*
X87929278Y-70459522D01*
X87879167Y-70398460D01*
X87841933Y-70328800D01*
X87841932Y-70328797D01*
X87819002Y-70253209D01*
X87813200Y-70194297D01*
X87813200Y-69454904D01*
X87819003Y-69395992D01*
X87819003Y-69395990D01*
X87841933Y-69320402D01*
X87841933Y-69320401D01*
X87879169Y-69250738D01*
X87929279Y-69189678D01*
X87990339Y-69139568D01*
X88060002Y-69102332D01*
X88085199Y-69094689D01*
X88135591Y-69079402D01*
X88214200Y-69071660D01*
X88292810Y-69079402D01*
G37*
G36*
X90832810Y-69079402D02*
G01*
X90883202Y-69094689D01*
X90908399Y-69102332D01*
X90978062Y-69139568D01*
X91039122Y-69189678D01*
X91089232Y-69250738D01*
X91126468Y-69320401D01*
X91126468Y-69320402D01*
X91149398Y-69395990D01*
X91155200Y-69454902D01*
X91155200Y-70194298D01*
X91149398Y-70253210D01*
X91141878Y-70277998D01*
X91126468Y-70328799D01*
X91089232Y-70398462D01*
X91039122Y-70459522D01*
X90978060Y-70509633D01*
X90908400Y-70546867D01*
X90908397Y-70546868D01*
X90832809Y-70569798D01*
X90754200Y-70577540D01*
X90675590Y-70569798D01*
X90625198Y-70554511D01*
X90600001Y-70546868D01*
X90530338Y-70509632D01*
X90469278Y-70459522D01*
X90419167Y-70398460D01*
X90381933Y-70328800D01*
X90381932Y-70328797D01*
X90359002Y-70253209D01*
X90353200Y-70194297D01*
X90353200Y-69454904D01*
X90359003Y-69395992D01*
X90359003Y-69395990D01*
X90381933Y-69320402D01*
X90381933Y-69320401D01*
X90419169Y-69250738D01*
X90469279Y-69189678D01*
X90530339Y-69139568D01*
X90600002Y-69102332D01*
X90625199Y-69094689D01*
X90675591Y-69079402D01*
X90754200Y-69071660D01*
X90832810Y-69079402D01*
G37*
G36*
X89562810Y-69079402D02*
G01*
X89613202Y-69094689D01*
X89638399Y-69102332D01*
X89708062Y-69139568D01*
X89769122Y-69189678D01*
X89819232Y-69250738D01*
X89856468Y-69320401D01*
X89856468Y-69320402D01*
X89879398Y-69395990D01*
X89885200Y-69454902D01*
X89885200Y-70194298D01*
X89879398Y-70253210D01*
X89871878Y-70277998D01*
X89856468Y-70328799D01*
X89819232Y-70398462D01*
X89769122Y-70459522D01*
X89708060Y-70509633D01*
X89638400Y-70546867D01*
X89638397Y-70546868D01*
X89562809Y-70569798D01*
X89484200Y-70577540D01*
X89405590Y-70569798D01*
X89355198Y-70554511D01*
X89330001Y-70546868D01*
X89260338Y-70509632D01*
X89199278Y-70459522D01*
X89149167Y-70398460D01*
X89111933Y-70328800D01*
X89111932Y-70328797D01*
X89089002Y-70253209D01*
X89083200Y-70194297D01*
X89083200Y-69454904D01*
X89089003Y-69395992D01*
X89089003Y-69395990D01*
X89111933Y-69320402D01*
X89111933Y-69320401D01*
X89149169Y-69250738D01*
X89199279Y-69189678D01*
X89260339Y-69139568D01*
X89330002Y-69102332D01*
X89355199Y-69094689D01*
X89405591Y-69079402D01*
X89484200Y-69071660D01*
X89562810Y-69079402D01*
G37*
G36*
X94642810Y-69079402D02*
G01*
X94693202Y-69094689D01*
X94718399Y-69102332D01*
X94788062Y-69139568D01*
X94849122Y-69189678D01*
X94899232Y-69250738D01*
X94936468Y-69320401D01*
X94936468Y-69320402D01*
X94959398Y-69395990D01*
X94965200Y-69454902D01*
X94965200Y-70194298D01*
X94959398Y-70253210D01*
X94951878Y-70277998D01*
X94936468Y-70328799D01*
X94899232Y-70398462D01*
X94849122Y-70459522D01*
X94788060Y-70509633D01*
X94718400Y-70546867D01*
X94718397Y-70546868D01*
X94642809Y-70569798D01*
X94564200Y-70577540D01*
X94485590Y-70569798D01*
X94435198Y-70554511D01*
X94410001Y-70546868D01*
X94340338Y-70509632D01*
X94279278Y-70459522D01*
X94229167Y-70398460D01*
X94191933Y-70328800D01*
X94191932Y-70328797D01*
X94169002Y-70253209D01*
X94163200Y-70194297D01*
X94163200Y-69454904D01*
X94169003Y-69395992D01*
X94169003Y-69395990D01*
X94191933Y-69320402D01*
X94191933Y-69320401D01*
X94229169Y-69250738D01*
X94279279Y-69189678D01*
X94340339Y-69139568D01*
X94410002Y-69102332D01*
X94435199Y-69094689D01*
X94485591Y-69079402D01*
X94564200Y-69071660D01*
X94642810Y-69079402D01*
G37*
G36*
X93372810Y-69079402D02*
G01*
X93423202Y-69094689D01*
X93448399Y-69102332D01*
X93518062Y-69139568D01*
X93579122Y-69189678D01*
X93629232Y-69250738D01*
X93666468Y-69320401D01*
X93666468Y-69320402D01*
X93689398Y-69395990D01*
X93695200Y-69454902D01*
X93695200Y-70194298D01*
X93689398Y-70253210D01*
X93681878Y-70277998D01*
X93666468Y-70328799D01*
X93629232Y-70398462D01*
X93579122Y-70459522D01*
X93518060Y-70509633D01*
X93448400Y-70546867D01*
X93448397Y-70546868D01*
X93372809Y-70569798D01*
X93294200Y-70577540D01*
X93215590Y-70569798D01*
X93165198Y-70554511D01*
X93140001Y-70546868D01*
X93070338Y-70509632D01*
X93009278Y-70459522D01*
X92959167Y-70398460D01*
X92921933Y-70328800D01*
X92921932Y-70328797D01*
X92899002Y-70253209D01*
X92893200Y-70194297D01*
X92893200Y-69454904D01*
X92899003Y-69395992D01*
X92899003Y-69395990D01*
X92921933Y-69320402D01*
X92921933Y-69320401D01*
X92959169Y-69250738D01*
X93009279Y-69189678D01*
X93070339Y-69139568D01*
X93140002Y-69102332D01*
X93165199Y-69094689D01*
X93215591Y-69079402D01*
X93294200Y-69071660D01*
X93372810Y-69079402D01*
G37*
G36*
X92102810Y-69079402D02*
G01*
X92153202Y-69094689D01*
X92178399Y-69102332D01*
X92248062Y-69139568D01*
X92309122Y-69189678D01*
X92359232Y-69250738D01*
X92396468Y-69320401D01*
X92396468Y-69320402D01*
X92419398Y-69395990D01*
X92425200Y-69454902D01*
X92425200Y-70194298D01*
X92419398Y-70253210D01*
X92411878Y-70277998D01*
X92396468Y-70328799D01*
X92359232Y-70398462D01*
X92309122Y-70459522D01*
X92248060Y-70509633D01*
X92178400Y-70546867D01*
X92178397Y-70546868D01*
X92102809Y-70569798D01*
X92024200Y-70577540D01*
X91945590Y-70569798D01*
X91895198Y-70554511D01*
X91870001Y-70546868D01*
X91800338Y-70509632D01*
X91739278Y-70459522D01*
X91689167Y-70398460D01*
X91651933Y-70328800D01*
X91651932Y-70328797D01*
X91629002Y-70253209D01*
X91623200Y-70194297D01*
X91623200Y-69454904D01*
X91629003Y-69395992D01*
X91629003Y-69395990D01*
X91651933Y-69320402D01*
X91651933Y-69320401D01*
X91689169Y-69250738D01*
X91739279Y-69189678D01*
X91800339Y-69139568D01*
X91870002Y-69102332D01*
X91895199Y-69094689D01*
X91945591Y-69079402D01*
X92024200Y-69071660D01*
X92102810Y-69079402D01*
G37*
G36*
X70436610Y-69028602D02*
G01*
X70487002Y-69043889D01*
X70512199Y-69051532D01*
X70581862Y-69088768D01*
X70642922Y-69138878D01*
X70693032Y-69199938D01*
X70730268Y-69269601D01*
X70730268Y-69269602D01*
X70753198Y-69345190D01*
X70759000Y-69404102D01*
X70759000Y-70143498D01*
X70753198Y-70202410D01*
X70737911Y-70252802D01*
X70730268Y-70277999D01*
X70693032Y-70347662D01*
X70642922Y-70408722D01*
X70581860Y-70458833D01*
X70512200Y-70496067D01*
X70512197Y-70496068D01*
X70436609Y-70518998D01*
X70358000Y-70526740D01*
X70279390Y-70518998D01*
X70228998Y-70503711D01*
X70203801Y-70496068D01*
X70134138Y-70458832D01*
X70073078Y-70408722D01*
X70022967Y-70347660D01*
X69985733Y-70278000D01*
X69978213Y-70253210D01*
X69962802Y-70202409D01*
X69957000Y-70143497D01*
X69957000Y-69404104D01*
X69962803Y-69345192D01*
X69962803Y-69345190D01*
X69985733Y-69269602D01*
X69985733Y-69269601D01*
X70022969Y-69199938D01*
X70073079Y-69138878D01*
X70134139Y-69088768D01*
X70203802Y-69051532D01*
X70228999Y-69043889D01*
X70279391Y-69028602D01*
X70358000Y-69020860D01*
X70436610Y-69028602D01*
G37*
G36*
X69166610Y-69028602D02*
G01*
X69217002Y-69043889D01*
X69242199Y-69051532D01*
X69311862Y-69088768D01*
X69372922Y-69138878D01*
X69423032Y-69199938D01*
X69460268Y-69269601D01*
X69460268Y-69269602D01*
X69483198Y-69345190D01*
X69489000Y-69404102D01*
X69489000Y-70143498D01*
X69483198Y-70202410D01*
X69467911Y-70252802D01*
X69460268Y-70277999D01*
X69423032Y-70347662D01*
X69372922Y-70408722D01*
X69311860Y-70458833D01*
X69242200Y-70496067D01*
X69242197Y-70496068D01*
X69166609Y-70518998D01*
X69088000Y-70526740D01*
X69009390Y-70518998D01*
X68958998Y-70503711D01*
X68933801Y-70496068D01*
X68864138Y-70458832D01*
X68803078Y-70408722D01*
X68752967Y-70347660D01*
X68715733Y-70278000D01*
X68708213Y-70253210D01*
X68692802Y-70202409D01*
X68687000Y-70143497D01*
X68687000Y-69404104D01*
X68692803Y-69345192D01*
X68692803Y-69345190D01*
X68715733Y-69269602D01*
X68715733Y-69269601D01*
X68752969Y-69199938D01*
X68803079Y-69138878D01*
X68864139Y-69088768D01*
X68933802Y-69051532D01*
X68958999Y-69043889D01*
X69009391Y-69028602D01*
X69088000Y-69020860D01*
X69166610Y-69028602D01*
G37*
G36*
X67896610Y-69028602D02*
G01*
X67947002Y-69043889D01*
X67972199Y-69051532D01*
X68041862Y-69088768D01*
X68102922Y-69138878D01*
X68153032Y-69199938D01*
X68190268Y-69269601D01*
X68190268Y-69269602D01*
X68213198Y-69345190D01*
X68219000Y-69404102D01*
X68219000Y-70143498D01*
X68213198Y-70202410D01*
X68197911Y-70252802D01*
X68190268Y-70277999D01*
X68153032Y-70347662D01*
X68102922Y-70408722D01*
X68041860Y-70458833D01*
X67972200Y-70496067D01*
X67972197Y-70496068D01*
X67896609Y-70518998D01*
X67818000Y-70526740D01*
X67739390Y-70518998D01*
X67688998Y-70503711D01*
X67663801Y-70496068D01*
X67594138Y-70458832D01*
X67533078Y-70408722D01*
X67482967Y-70347660D01*
X67445733Y-70278000D01*
X67438213Y-70253210D01*
X67422802Y-70202409D01*
X67417000Y-70143497D01*
X67417000Y-69404104D01*
X67422803Y-69345192D01*
X67422803Y-69345190D01*
X67445733Y-69269602D01*
X67445733Y-69269601D01*
X67482969Y-69199938D01*
X67533079Y-69138878D01*
X67594139Y-69088768D01*
X67663802Y-69051532D01*
X67688999Y-69043889D01*
X67739391Y-69028602D01*
X67818000Y-69020860D01*
X67896610Y-69028602D01*
G37*
G36*
X112124499Y-68883445D02*
G01*
X112161995Y-68894820D01*
X112196554Y-68913292D01*
X112226847Y-68938153D01*
X112251708Y-68968446D01*
X112270180Y-69003005D01*
X112281555Y-69040501D01*
X112286000Y-69085638D01*
X112286000Y-69824362D01*
X112281555Y-69869499D01*
X112270180Y-69906995D01*
X112251708Y-69941554D01*
X112226847Y-69971847D01*
X112196554Y-69996708D01*
X112161995Y-70015180D01*
X112124499Y-70026555D01*
X112079362Y-70031000D01*
X111440638Y-70031000D01*
X111395501Y-70026555D01*
X111358005Y-70015180D01*
X111323446Y-69996708D01*
X111293153Y-69971847D01*
X111268292Y-69941554D01*
X111249820Y-69906995D01*
X111238445Y-69869499D01*
X111234000Y-69824362D01*
X111234000Y-69085638D01*
X111238445Y-69040501D01*
X111249820Y-69003005D01*
X111268292Y-68968446D01*
X111293153Y-68938153D01*
X111323446Y-68913292D01*
X111358005Y-68894820D01*
X111395501Y-68883445D01*
X111440638Y-68879000D01*
X112079362Y-68879000D01*
X112124499Y-68883445D01*
G37*
G36*
X114664499Y-68883445D02*
G01*
X114701995Y-68894820D01*
X114736554Y-68913292D01*
X114766847Y-68938153D01*
X114791708Y-68968446D01*
X114810180Y-69003005D01*
X114821555Y-69040501D01*
X114826000Y-69085638D01*
X114826000Y-69824362D01*
X114821555Y-69869499D01*
X114810180Y-69906995D01*
X114791708Y-69941554D01*
X114766847Y-69971847D01*
X114736554Y-69996708D01*
X114701995Y-70015180D01*
X114664499Y-70026555D01*
X114619362Y-70031000D01*
X113980638Y-70031000D01*
X113935501Y-70026555D01*
X113898005Y-70015180D01*
X113863446Y-69996708D01*
X113833153Y-69971847D01*
X113808292Y-69941554D01*
X113789820Y-69906995D01*
X113778445Y-69869499D01*
X113774000Y-69824362D01*
X113774000Y-69085638D01*
X113778445Y-69040501D01*
X113789820Y-69003005D01*
X113808292Y-68968446D01*
X113833153Y-68938153D01*
X113863446Y-68913292D01*
X113898005Y-68894820D01*
X113935501Y-68883445D01*
X113980638Y-68879000D01*
X114619362Y-68879000D01*
X114664499Y-68883445D01*
G37*
G36*
X109584499Y-68883445D02*
G01*
X109621995Y-68894820D01*
X109656554Y-68913292D01*
X109686847Y-68938153D01*
X109711708Y-68968446D01*
X109730180Y-69003005D01*
X109741555Y-69040501D01*
X109746000Y-69085638D01*
X109746000Y-69824362D01*
X109741555Y-69869499D01*
X109730180Y-69906995D01*
X109711708Y-69941554D01*
X109686847Y-69971847D01*
X109656554Y-69996708D01*
X109621995Y-70015180D01*
X109584499Y-70026555D01*
X109539362Y-70031000D01*
X108900638Y-70031000D01*
X108855501Y-70026555D01*
X108818005Y-70015180D01*
X108783446Y-69996708D01*
X108753153Y-69971847D01*
X108728292Y-69941554D01*
X108709820Y-69906995D01*
X108698445Y-69869499D01*
X108694000Y-69824362D01*
X108694000Y-69085638D01*
X108698445Y-69040501D01*
X108709820Y-69003005D01*
X108728292Y-68968446D01*
X108753153Y-68938153D01*
X108783446Y-68913292D01*
X108818005Y-68894820D01*
X108855501Y-68883445D01*
X108900638Y-68879000D01*
X109539362Y-68879000D01*
X109584499Y-68883445D01*
G37*
G36*
X119311000Y-68991000D02*
G01*
X116909000Y-68991000D01*
X116909000Y-67489000D01*
X119311000Y-67489000D01*
X119311000Y-68991000D01*
G37*
G36*
X114664499Y-67133445D02*
G01*
X114701995Y-67144820D01*
X114736554Y-67163292D01*
X114766847Y-67188153D01*
X114791708Y-67218446D01*
X114810180Y-67253005D01*
X114821555Y-67290501D01*
X114826000Y-67335638D01*
X114826000Y-68074362D01*
X114821555Y-68119499D01*
X114810180Y-68156995D01*
X114791708Y-68191554D01*
X114766847Y-68221847D01*
X114736554Y-68246708D01*
X114701995Y-68265180D01*
X114664499Y-68276555D01*
X114619362Y-68281000D01*
X113980638Y-68281000D01*
X113935501Y-68276555D01*
X113898005Y-68265180D01*
X113863446Y-68246708D01*
X113833153Y-68221847D01*
X113808292Y-68191554D01*
X113789820Y-68156995D01*
X113778445Y-68119499D01*
X113774000Y-68074362D01*
X113774000Y-67335638D01*
X113778445Y-67290501D01*
X113789820Y-67253005D01*
X113808292Y-67218446D01*
X113833153Y-67188153D01*
X113863446Y-67163292D01*
X113898005Y-67144820D01*
X113935501Y-67133445D01*
X113980638Y-67129000D01*
X114619362Y-67129000D01*
X114664499Y-67133445D01*
G37*
G36*
X112124499Y-67133445D02*
G01*
X112161995Y-67144820D01*
X112196554Y-67163292D01*
X112226847Y-67188153D01*
X112251708Y-67218446D01*
X112270180Y-67253005D01*
X112281555Y-67290501D01*
X112286000Y-67335638D01*
X112286000Y-68074362D01*
X112281555Y-68119499D01*
X112270180Y-68156995D01*
X112251708Y-68191554D01*
X112226847Y-68221847D01*
X112196554Y-68246708D01*
X112161995Y-68265180D01*
X112124499Y-68276555D01*
X112079362Y-68281000D01*
X111440638Y-68281000D01*
X111395501Y-68276555D01*
X111358005Y-68265180D01*
X111323446Y-68246708D01*
X111293153Y-68221847D01*
X111268292Y-68191554D01*
X111249820Y-68156995D01*
X111238445Y-68119499D01*
X111234000Y-68074362D01*
X111234000Y-67335638D01*
X111238445Y-67290501D01*
X111249820Y-67253005D01*
X111268292Y-67218446D01*
X111293153Y-67188153D01*
X111323446Y-67163292D01*
X111358005Y-67144820D01*
X111395501Y-67133445D01*
X111440638Y-67129000D01*
X112079362Y-67129000D01*
X112124499Y-67133445D01*
G37*
G36*
X109584499Y-67133445D02*
G01*
X109621995Y-67144820D01*
X109656554Y-67163292D01*
X109686847Y-67188153D01*
X109711708Y-67218446D01*
X109730180Y-67253005D01*
X109741555Y-67290501D01*
X109746000Y-67335638D01*
X109746000Y-68074362D01*
X109741555Y-68119499D01*
X109730180Y-68156995D01*
X109711708Y-68191554D01*
X109686847Y-68221847D01*
X109656554Y-68246708D01*
X109621995Y-68265180D01*
X109584499Y-68276555D01*
X109539362Y-68281000D01*
X108900638Y-68281000D01*
X108855501Y-68276555D01*
X108818005Y-68265180D01*
X108783446Y-68246708D01*
X108753153Y-68221847D01*
X108728292Y-68191554D01*
X108709820Y-68156995D01*
X108698445Y-68119499D01*
X108694000Y-68074362D01*
X108694000Y-67335638D01*
X108698445Y-67290501D01*
X108709820Y-67253005D01*
X108728292Y-67218446D01*
X108753153Y-67188153D01*
X108783446Y-67163292D01*
X108818005Y-67144820D01*
X108855501Y-67133445D01*
X108900638Y-67129000D01*
X109539362Y-67129000D01*
X109584499Y-67133445D01*
G37*
G36*
X98128535Y-66402934D02*
G01*
X98167810Y-66406802D01*
X98218202Y-66422089D01*
X98243399Y-66429732D01*
X98313062Y-66466968D01*
X98374122Y-66517078D01*
X98424232Y-66578138D01*
X98461468Y-66647801D01*
X98461468Y-66647802D01*
X98484398Y-66723390D01*
X98492140Y-66802000D01*
X98484398Y-66880610D01*
X98469111Y-66931002D01*
X98461468Y-66956199D01*
X98424232Y-67025862D01*
X98374122Y-67086922D01*
X98313062Y-67137032D01*
X98243399Y-67174268D01*
X98218202Y-67181911D01*
X98167810Y-67197198D01*
X98128535Y-67201066D01*
X98108899Y-67203000D01*
X97369501Y-67203000D01*
X97349865Y-67201066D01*
X97310590Y-67197198D01*
X97260198Y-67181911D01*
X97235001Y-67174268D01*
X97165338Y-67137032D01*
X97104278Y-67086922D01*
X97054168Y-67025862D01*
X97016932Y-66956199D01*
X97009289Y-66931002D01*
X96994002Y-66880610D01*
X96986260Y-66802000D01*
X96994002Y-66723390D01*
X97016932Y-66647802D01*
X97016932Y-66647801D01*
X97054168Y-66578138D01*
X97104278Y-66517078D01*
X97165338Y-66466968D01*
X97235001Y-66429732D01*
X97260198Y-66422089D01*
X97310590Y-66406802D01*
X97349865Y-66402934D01*
X97369501Y-66401000D01*
X98108899Y-66401000D01*
X98128535Y-66402934D01*
G37*
G36*
X127446228Y-64403483D02*
G01*
X127634922Y-64460723D01*
X127808815Y-64553671D01*
X127961239Y-64678761D01*
X128086329Y-64831185D01*
X128179277Y-65005078D01*
X128236517Y-65193772D01*
X128255843Y-65390000D01*
X128236517Y-65586228D01*
X128179277Y-65774922D01*
X128086329Y-65948815D01*
X127961239Y-66101239D01*
X127808815Y-66226329D01*
X127634922Y-66319277D01*
X127446228Y-66376517D01*
X127299175Y-66391000D01*
X125600825Y-66391000D01*
X125453772Y-66376517D01*
X125265078Y-66319277D01*
X125091185Y-66226329D01*
X124938761Y-66101239D01*
X124813671Y-65948815D01*
X124720723Y-65774922D01*
X124663483Y-65586228D01*
X124644157Y-65390000D01*
X124663483Y-65193772D01*
X124720723Y-65005078D01*
X124813671Y-64831185D01*
X124938761Y-64678761D01*
X125091185Y-64553671D01*
X125265078Y-64460723D01*
X125453772Y-64403483D01*
X125600825Y-64389000D01*
X127299175Y-64389000D01*
X127446228Y-64403483D01*
G37*
G36*
X98128535Y-65132934D02*
G01*
X98167810Y-65136802D01*
X98218202Y-65152089D01*
X98243399Y-65159732D01*
X98313062Y-65196968D01*
X98374122Y-65247078D01*
X98424232Y-65308138D01*
X98461468Y-65377801D01*
X98461468Y-65377802D01*
X98484398Y-65453390D01*
X98492140Y-65532000D01*
X98484398Y-65610610D01*
X98469111Y-65661002D01*
X98461468Y-65686199D01*
X98424232Y-65755862D01*
X98374122Y-65816922D01*
X98313062Y-65867032D01*
X98243399Y-65904268D01*
X98218202Y-65911911D01*
X98167810Y-65927198D01*
X98128535Y-65931066D01*
X98108899Y-65933000D01*
X97369501Y-65933000D01*
X97349865Y-65931066D01*
X97310590Y-65927198D01*
X97260198Y-65911911D01*
X97235001Y-65904268D01*
X97165338Y-65867032D01*
X97104278Y-65816922D01*
X97054168Y-65755862D01*
X97016932Y-65686199D01*
X97009289Y-65661002D01*
X96994002Y-65610610D01*
X96986260Y-65532000D01*
X96994002Y-65453390D01*
X97016932Y-65377802D01*
X97016932Y-65377801D01*
X97054168Y-65308138D01*
X97104278Y-65247078D01*
X97165338Y-65196968D01*
X97235001Y-65159732D01*
X97260198Y-65152089D01*
X97310590Y-65136802D01*
X97349865Y-65132934D01*
X97369501Y-65131000D01*
X98108899Y-65131000D01*
X98128535Y-65132934D01*
G37*
G36*
X103030721Y-61700174D02*
G01*
X103130995Y-61741709D01*
X103130996Y-61741710D01*
X103221242Y-61802010D01*
X103297990Y-61878758D01*
X103297991Y-61878760D01*
X103358291Y-61969005D01*
X103389516Y-62044389D01*
X103401067Y-62066000D01*
X103416612Y-62084941D01*
X103435554Y-62100487D01*
X103457165Y-62112038D01*
X103480614Y-62119151D01*
X103505000Y-62121553D01*
X103529386Y-62119151D01*
X103552835Y-62112038D01*
X103574446Y-62100487D01*
X103593387Y-62084942D01*
X103608933Y-62066000D01*
X103620484Y-62044389D01*
X103651709Y-61969005D01*
X103712009Y-61878760D01*
X103712010Y-61878758D01*
X103788758Y-61802010D01*
X103879004Y-61741710D01*
X103879005Y-61741709D01*
X103979279Y-61700174D01*
X104085730Y-61679000D01*
X104194270Y-61679000D01*
X104300721Y-61700174D01*
X104400995Y-61741709D01*
X104400996Y-61741710D01*
X104491242Y-61802010D01*
X104567990Y-61878758D01*
X104567991Y-61878760D01*
X104628291Y-61969005D01*
X104669826Y-62069279D01*
X104691000Y-62175730D01*
X104691000Y-62284270D01*
X104669826Y-62390721D01*
X104628291Y-62490995D01*
X104628290Y-62490996D01*
X104567990Y-62581242D01*
X104491242Y-62657990D01*
X104445812Y-62688345D01*
X104400995Y-62718291D01*
X104325611Y-62749516D01*
X104304000Y-62761067D01*
X104285059Y-62776612D01*
X104269513Y-62795554D01*
X104257962Y-62817165D01*
X104250849Y-62840614D01*
X104248447Y-62865000D01*
X104250849Y-62889386D01*
X104257962Y-62912835D01*
X104269513Y-62934446D01*
X104285058Y-62953387D01*
X104304000Y-62968933D01*
X104325611Y-62980484D01*
X104400995Y-63011709D01*
X104445812Y-63041655D01*
X104491242Y-63072010D01*
X104567990Y-63148758D01*
X104567991Y-63148760D01*
X104628291Y-63239005D01*
X104669826Y-63339279D01*
X104691000Y-63445730D01*
X104691000Y-63554270D01*
X104669826Y-63660721D01*
X104628291Y-63760995D01*
X104628290Y-63760996D01*
X104567990Y-63851242D01*
X104491242Y-63927990D01*
X104459816Y-63948988D01*
X104398336Y-63990068D01*
X104379394Y-64005614D01*
X104363849Y-64024556D01*
X104352298Y-64046167D01*
X104345185Y-64069615D01*
X104342783Y-64094002D01*
X104345185Y-64118388D01*
X104352298Y-64141837D01*
X104363849Y-64163447D01*
X104379395Y-64182389D01*
X104398337Y-64197934D01*
X104419948Y-64209485D01*
X104443396Y-64216598D01*
X104467782Y-64219000D01*
X104691000Y-64219000D01*
X104691000Y-65321000D01*
X103589000Y-65321000D01*
X103589000Y-65097782D01*
X103586598Y-65073396D01*
X103579485Y-65049947D01*
X103567934Y-65028336D01*
X103552389Y-65009394D01*
X103533447Y-64993849D01*
X103511836Y-64982298D01*
X103488387Y-64975185D01*
X103464001Y-64972783D01*
X103439615Y-64975185D01*
X103416166Y-64982298D01*
X103394555Y-64993849D01*
X103375613Y-65009394D01*
X103360068Y-65028336D01*
X103318988Y-65089816D01*
X103297990Y-65121242D01*
X103221242Y-65197990D01*
X103175812Y-65228345D01*
X103130995Y-65258291D01*
X103030721Y-65299826D01*
X102924270Y-65321000D01*
X102815730Y-65321000D01*
X102709279Y-65299826D01*
X102609005Y-65258291D01*
X102564188Y-65228345D01*
X102518758Y-65197990D01*
X102442010Y-65121242D01*
X102410041Y-65073396D01*
X102381709Y-65030995D01*
X102340174Y-64930721D01*
X102319000Y-64824270D01*
X102319000Y-64715730D01*
X102340174Y-64609279D01*
X102381709Y-64509005D01*
X102442009Y-64418760D01*
X102442010Y-64418758D01*
X102518758Y-64342010D01*
X102609004Y-64281710D01*
X102609005Y-64281709D01*
X102684389Y-64250484D01*
X102706000Y-64238933D01*
X102724941Y-64223388D01*
X102740487Y-64204446D01*
X102752038Y-64182835D01*
X102759151Y-64159386D01*
X102761553Y-64135000D01*
X102978447Y-64135000D01*
X102980849Y-64159386D01*
X102987962Y-64182835D01*
X102999513Y-64204446D01*
X103015058Y-64223387D01*
X103034000Y-64238933D01*
X103055611Y-64250484D01*
X103130995Y-64281709D01*
X103130996Y-64281710D01*
X103221242Y-64342010D01*
X103297990Y-64418758D01*
X103297991Y-64418760D01*
X103360068Y-64511664D01*
X103375614Y-64530606D01*
X103394556Y-64546151D01*
X103416167Y-64557702D01*
X103439615Y-64564815D01*
X103464002Y-64567217D01*
X103488388Y-64564815D01*
X103511837Y-64557702D01*
X103533447Y-64546151D01*
X103552389Y-64530605D01*
X103567934Y-64511663D01*
X103579485Y-64490052D01*
X103586598Y-64466604D01*
X103589000Y-64442218D01*
X103589000Y-64219000D01*
X103812218Y-64219000D01*
X103836604Y-64216598D01*
X103860053Y-64209485D01*
X103881664Y-64197934D01*
X103900606Y-64182389D01*
X103916151Y-64163447D01*
X103927702Y-64141836D01*
X103934815Y-64118387D01*
X103937217Y-64094001D01*
X103934815Y-64069615D01*
X103927702Y-64046166D01*
X103916151Y-64024555D01*
X103900606Y-64005613D01*
X103881664Y-63990068D01*
X103820184Y-63948988D01*
X103788758Y-63927990D01*
X103712010Y-63851242D01*
X103651710Y-63760996D01*
X103651709Y-63760995D01*
X103620484Y-63685611D01*
X103608933Y-63664000D01*
X103593388Y-63645059D01*
X103574446Y-63629513D01*
X103552835Y-63617962D01*
X103529386Y-63610849D01*
X103505000Y-63608447D01*
X103480614Y-63610849D01*
X103457165Y-63617962D01*
X103435554Y-63629513D01*
X103416613Y-63645058D01*
X103401067Y-63664000D01*
X103389516Y-63685611D01*
X103358291Y-63760995D01*
X103358290Y-63760996D01*
X103297990Y-63851242D01*
X103221242Y-63927990D01*
X103175812Y-63958345D01*
X103130995Y-63988291D01*
X103055611Y-64019516D01*
X103034000Y-64031067D01*
X103015059Y-64046612D01*
X102999513Y-64065554D01*
X102987962Y-64087165D01*
X102980849Y-64110614D01*
X102978447Y-64135000D01*
X102761553Y-64135000D01*
X102759151Y-64110614D01*
X102752038Y-64087165D01*
X102740487Y-64065554D01*
X102724942Y-64046613D01*
X102706000Y-64031067D01*
X102684389Y-64019516D01*
X102609005Y-63988291D01*
X102564188Y-63958345D01*
X102518758Y-63927990D01*
X102442010Y-63851242D01*
X102381710Y-63760996D01*
X102381709Y-63760995D01*
X102340174Y-63660721D01*
X102319000Y-63554270D01*
X102319000Y-63445730D01*
X102340174Y-63339279D01*
X102381709Y-63239005D01*
X102442009Y-63148760D01*
X102442010Y-63148758D01*
X102518758Y-63072010D01*
X102564188Y-63041655D01*
X102609005Y-63011709D01*
X102684389Y-62980484D01*
X102706000Y-62968933D01*
X102724941Y-62953388D01*
X102740487Y-62934446D01*
X102752038Y-62912835D01*
X102759151Y-62889386D01*
X102761553Y-62865000D01*
X102978447Y-62865000D01*
X102980849Y-62889386D01*
X102987962Y-62912835D01*
X102999513Y-62934446D01*
X103015058Y-62953387D01*
X103034000Y-62968933D01*
X103055611Y-62980484D01*
X103130995Y-63011709D01*
X103175812Y-63041655D01*
X103221242Y-63072010D01*
X103297990Y-63148758D01*
X103297991Y-63148760D01*
X103358291Y-63239005D01*
X103389516Y-63314389D01*
X103401067Y-63336000D01*
X103416612Y-63354941D01*
X103435554Y-63370487D01*
X103457165Y-63382038D01*
X103480614Y-63389151D01*
X103505000Y-63391553D01*
X103529386Y-63389151D01*
X103552835Y-63382038D01*
X103574446Y-63370487D01*
X103593387Y-63354942D01*
X103608933Y-63336000D01*
X103620484Y-63314389D01*
X103651709Y-63239005D01*
X103712009Y-63148760D01*
X103712010Y-63148758D01*
X103788758Y-63072010D01*
X103834188Y-63041655D01*
X103879005Y-63011709D01*
X103954389Y-62980484D01*
X103976000Y-62968933D01*
X103994941Y-62953388D01*
X104010487Y-62934446D01*
X104022038Y-62912835D01*
X104029151Y-62889386D01*
X104031553Y-62865000D01*
X104029151Y-62840614D01*
X104022038Y-62817165D01*
X104010487Y-62795554D01*
X103994942Y-62776613D01*
X103976000Y-62761067D01*
X103954389Y-62749516D01*
X103879005Y-62718291D01*
X103834188Y-62688345D01*
X103788758Y-62657990D01*
X103712010Y-62581242D01*
X103651710Y-62490996D01*
X103651709Y-62490995D01*
X103620484Y-62415611D01*
X103608933Y-62394000D01*
X103593388Y-62375059D01*
X103574446Y-62359513D01*
X103552835Y-62347962D01*
X103529386Y-62340849D01*
X103505000Y-62338447D01*
X103480614Y-62340849D01*
X103457165Y-62347962D01*
X103435554Y-62359513D01*
X103416613Y-62375058D01*
X103401067Y-62394000D01*
X103389516Y-62415611D01*
X103358291Y-62490995D01*
X103358290Y-62490996D01*
X103297990Y-62581242D01*
X103221242Y-62657990D01*
X103175812Y-62688345D01*
X103130995Y-62718291D01*
X103055611Y-62749516D01*
X103034000Y-62761067D01*
X103015059Y-62776612D01*
X102999513Y-62795554D01*
X102987962Y-62817165D01*
X102980849Y-62840614D01*
X102978447Y-62865000D01*
X102761553Y-62865000D01*
X102759151Y-62840614D01*
X102752038Y-62817165D01*
X102740487Y-62795554D01*
X102724942Y-62776613D01*
X102706000Y-62761067D01*
X102684389Y-62749516D01*
X102609005Y-62718291D01*
X102564188Y-62688345D01*
X102518758Y-62657990D01*
X102442010Y-62581242D01*
X102381710Y-62490996D01*
X102381709Y-62490995D01*
X102340174Y-62390721D01*
X102319000Y-62284270D01*
X102319000Y-62175730D01*
X102340174Y-62069279D01*
X102381709Y-61969005D01*
X102442009Y-61878760D01*
X102442010Y-61878758D01*
X102518758Y-61802010D01*
X102609004Y-61741710D01*
X102609005Y-61741709D01*
X102709279Y-61700174D01*
X102815730Y-61679000D01*
X102924270Y-61679000D01*
X103030721Y-61700174D01*
G37*
G36*
X109584499Y-63803445D02*
G01*
X109621995Y-63814820D01*
X109656554Y-63833292D01*
X109686847Y-63858153D01*
X109711708Y-63888446D01*
X109730180Y-63923005D01*
X109741555Y-63960501D01*
X109746000Y-64005638D01*
X109746000Y-64744362D01*
X109741555Y-64789499D01*
X109730180Y-64826995D01*
X109711708Y-64861554D01*
X109686847Y-64891847D01*
X109656554Y-64916708D01*
X109621995Y-64935180D01*
X109584499Y-64946555D01*
X109539362Y-64951000D01*
X108900638Y-64951000D01*
X108855501Y-64946555D01*
X108818005Y-64935180D01*
X108783446Y-64916708D01*
X108753153Y-64891847D01*
X108728292Y-64861554D01*
X108709820Y-64826995D01*
X108698445Y-64789499D01*
X108694000Y-64744362D01*
X108694000Y-64005638D01*
X108698445Y-63960501D01*
X108709820Y-63923005D01*
X108728292Y-63888446D01*
X108753153Y-63858153D01*
X108783446Y-63833292D01*
X108818005Y-63814820D01*
X108855501Y-63803445D01*
X108900638Y-63799000D01*
X109539362Y-63799000D01*
X109584499Y-63803445D01*
G37*
G36*
X112124499Y-63803445D02*
G01*
X112161995Y-63814820D01*
X112196554Y-63833292D01*
X112226847Y-63858153D01*
X112251708Y-63888446D01*
X112270180Y-63923005D01*
X112281555Y-63960501D01*
X112286000Y-64005638D01*
X112286000Y-64744362D01*
X112281555Y-64789499D01*
X112270180Y-64826995D01*
X112251708Y-64861554D01*
X112226847Y-64891847D01*
X112196554Y-64916708D01*
X112161995Y-64935180D01*
X112124499Y-64946555D01*
X112079362Y-64951000D01*
X111440638Y-64951000D01*
X111395501Y-64946555D01*
X111358005Y-64935180D01*
X111323446Y-64916708D01*
X111293153Y-64891847D01*
X111268292Y-64861554D01*
X111249820Y-64826995D01*
X111238445Y-64789499D01*
X111234000Y-64744362D01*
X111234000Y-64005638D01*
X111238445Y-63960501D01*
X111249820Y-63923005D01*
X111268292Y-63888446D01*
X111293153Y-63858153D01*
X111323446Y-63833292D01*
X111358005Y-63814820D01*
X111395501Y-63803445D01*
X111440638Y-63799000D01*
X112079362Y-63799000D01*
X112124499Y-63803445D01*
G37*
G36*
X98128535Y-63862934D02*
G01*
X98167810Y-63866802D01*
X98218202Y-63882089D01*
X98243399Y-63889732D01*
X98313062Y-63926968D01*
X98374122Y-63977078D01*
X98424232Y-64038138D01*
X98461468Y-64107801D01*
X98461468Y-64107802D01*
X98484398Y-64183390D01*
X98492140Y-64262000D01*
X98484398Y-64340610D01*
X98483973Y-64342010D01*
X98461468Y-64416199D01*
X98424232Y-64485862D01*
X98374122Y-64546922D01*
X98313062Y-64597032D01*
X98243399Y-64634268D01*
X98218202Y-64641911D01*
X98167810Y-64657198D01*
X98128535Y-64661066D01*
X98108899Y-64663000D01*
X97369501Y-64663000D01*
X97349865Y-64661066D01*
X97310590Y-64657198D01*
X97260198Y-64641911D01*
X97235001Y-64634268D01*
X97165338Y-64597032D01*
X97104278Y-64546922D01*
X97054168Y-64485862D01*
X97016932Y-64416199D01*
X96994427Y-64342010D01*
X96994002Y-64340610D01*
X96986260Y-64262000D01*
X96994002Y-64183390D01*
X97016932Y-64107802D01*
X97016932Y-64107801D01*
X97054168Y-64038138D01*
X97104278Y-63977078D01*
X97165338Y-63926968D01*
X97235001Y-63889732D01*
X97260198Y-63882089D01*
X97310590Y-63866802D01*
X97349865Y-63862934D01*
X97369501Y-63861000D01*
X98108899Y-63861000D01*
X98128535Y-63862934D01*
G37*
G36*
X119311000Y-64591000D02*
G01*
X116909000Y-64591000D01*
X116909000Y-63089000D01*
X119311000Y-63089000D01*
X119311000Y-64591000D01*
G37*
G36*
X125001000Y-63791000D02*
G01*
X122399000Y-63791000D01*
X122399000Y-62589000D01*
X125001000Y-62589000D01*
X125001000Y-63791000D01*
G37*
G36*
X98128535Y-62592934D02*
G01*
X98167810Y-62596802D01*
X98218202Y-62612089D01*
X98243399Y-62619732D01*
X98313062Y-62656968D01*
X98374122Y-62707078D01*
X98424232Y-62768138D01*
X98461468Y-62837801D01*
X98461468Y-62837802D01*
X98484398Y-62913390D01*
X98492140Y-62992000D01*
X98484398Y-63070610D01*
X98483973Y-63072010D01*
X98461468Y-63146199D01*
X98424232Y-63215862D01*
X98374122Y-63276922D01*
X98313062Y-63327032D01*
X98243399Y-63364268D01*
X98222897Y-63370487D01*
X98167810Y-63387198D01*
X98128535Y-63391066D01*
X98108899Y-63393000D01*
X97369501Y-63393000D01*
X97349865Y-63391066D01*
X97310590Y-63387198D01*
X97255503Y-63370487D01*
X97235001Y-63364268D01*
X97165338Y-63327032D01*
X97104278Y-63276922D01*
X97054168Y-63215862D01*
X97016932Y-63146199D01*
X96994427Y-63072010D01*
X96994002Y-63070610D01*
X96986260Y-62992000D01*
X96994002Y-62913390D01*
X97016932Y-62837802D01*
X97016932Y-62837801D01*
X97054168Y-62768138D01*
X97104278Y-62707078D01*
X97165338Y-62656968D01*
X97235001Y-62619732D01*
X97260198Y-62612089D01*
X97310590Y-62596802D01*
X97349865Y-62592934D01*
X97369501Y-62591000D01*
X98108899Y-62591000D01*
X98128535Y-62592934D01*
G37*
G36*
X112124499Y-62053445D02*
G01*
X112161995Y-62064820D01*
X112196554Y-62083292D01*
X112226847Y-62108153D01*
X112251708Y-62138446D01*
X112270180Y-62173005D01*
X112281555Y-62210501D01*
X112286000Y-62255638D01*
X112286000Y-62994362D01*
X112281555Y-63039499D01*
X112270180Y-63076995D01*
X112251708Y-63111554D01*
X112226847Y-63141847D01*
X112196554Y-63166708D01*
X112161995Y-63185180D01*
X112124499Y-63196555D01*
X112079362Y-63201000D01*
X111440638Y-63201000D01*
X111395501Y-63196555D01*
X111358005Y-63185180D01*
X111323446Y-63166708D01*
X111293153Y-63141847D01*
X111268292Y-63111554D01*
X111249820Y-63076995D01*
X111238445Y-63039499D01*
X111234000Y-62994362D01*
X111234000Y-62255638D01*
X111238445Y-62210501D01*
X111249820Y-62173005D01*
X111268292Y-62138446D01*
X111293153Y-62108153D01*
X111323446Y-62083292D01*
X111358005Y-62064820D01*
X111395501Y-62053445D01*
X111440638Y-62049000D01*
X112079362Y-62049000D01*
X112124499Y-62053445D01*
G37*
G36*
X109584499Y-62053445D02*
G01*
X109621995Y-62064820D01*
X109656554Y-62083292D01*
X109686847Y-62108153D01*
X109711708Y-62138446D01*
X109730180Y-62173005D01*
X109741555Y-62210501D01*
X109746000Y-62255638D01*
X109746000Y-62994362D01*
X109741555Y-63039499D01*
X109730180Y-63076995D01*
X109711708Y-63111554D01*
X109686847Y-63141847D01*
X109656554Y-63166708D01*
X109621995Y-63185180D01*
X109584499Y-63196555D01*
X109539362Y-63201000D01*
X108900638Y-63201000D01*
X108855501Y-63196555D01*
X108818005Y-63185180D01*
X108783446Y-63166708D01*
X108753153Y-63141847D01*
X108728292Y-63111554D01*
X108709820Y-63076995D01*
X108698445Y-63039499D01*
X108694000Y-62994362D01*
X108694000Y-62255638D01*
X108698445Y-62210501D01*
X108709820Y-62173005D01*
X108728292Y-62138446D01*
X108753153Y-62108153D01*
X108783446Y-62083292D01*
X108818005Y-62064820D01*
X108855501Y-62053445D01*
X108900638Y-62049000D01*
X109539362Y-62049000D01*
X109584499Y-62053445D01*
G37*
G36*
X126586601Y-61404397D02*
G01*
X126625305Y-61412096D01*
X126657340Y-61425365D01*
X126734680Y-61457400D01*
X126833115Y-61523173D01*
X126916827Y-61606885D01*
X126982600Y-61705320D01*
X127014635Y-61782660D01*
X127022650Y-61802010D01*
X127027904Y-61814696D01*
X127051000Y-61930805D01*
X127051000Y-62049195D01*
X127043889Y-62084942D01*
X127027904Y-62165305D01*
X127023586Y-62175730D01*
X126982600Y-62274680D01*
X126916827Y-62373115D01*
X126833115Y-62456827D01*
X126734680Y-62522600D01*
X126657340Y-62554635D01*
X126625305Y-62567904D01*
X126586601Y-62575603D01*
X126509195Y-62591000D01*
X126390805Y-62591000D01*
X126313399Y-62575603D01*
X126274695Y-62567904D01*
X126242660Y-62554635D01*
X126165320Y-62522600D01*
X126066885Y-62456827D01*
X125983173Y-62373115D01*
X125917400Y-62274680D01*
X125876414Y-62175730D01*
X125872096Y-62165305D01*
X125856111Y-62084942D01*
X125849000Y-62049195D01*
X125849000Y-61930805D01*
X125872096Y-61814696D01*
X125877351Y-61802010D01*
X125885365Y-61782660D01*
X125917400Y-61705320D01*
X125983173Y-61606885D01*
X126066885Y-61523173D01*
X126165320Y-61457400D01*
X126242660Y-61425365D01*
X126274695Y-61412096D01*
X126313399Y-61404397D01*
X126390805Y-61389000D01*
X126509195Y-61389000D01*
X126586601Y-61404397D01*
G37*
G36*
X98128535Y-61322934D02*
G01*
X98167810Y-61326802D01*
X98218202Y-61342089D01*
X98243399Y-61349732D01*
X98313062Y-61386968D01*
X98374122Y-61437078D01*
X98424232Y-61498138D01*
X98461468Y-61567801D01*
X98461468Y-61567802D01*
X98484398Y-61643390D01*
X98492140Y-61722000D01*
X98484398Y-61800610D01*
X98483973Y-61802010D01*
X98461468Y-61876199D01*
X98424232Y-61945862D01*
X98374122Y-62006922D01*
X98313062Y-62057032D01*
X98243399Y-62094268D01*
X98222897Y-62100487D01*
X98167810Y-62117198D01*
X98128535Y-62121066D01*
X98108899Y-62123000D01*
X97369501Y-62123000D01*
X97349865Y-62121066D01*
X97310590Y-62117198D01*
X97255503Y-62100487D01*
X97235001Y-62094268D01*
X97165338Y-62057032D01*
X97104278Y-62006922D01*
X97054168Y-61945862D01*
X97016932Y-61876199D01*
X96994427Y-61802010D01*
X96994002Y-61800610D01*
X96986260Y-61722000D01*
X96994002Y-61643390D01*
X97016932Y-61567802D01*
X97016932Y-61567801D01*
X97054168Y-61498138D01*
X97104278Y-61437078D01*
X97165338Y-61386968D01*
X97235001Y-61349732D01*
X97260198Y-61342089D01*
X97310590Y-61326802D01*
X97349865Y-61322934D01*
X97369501Y-61321000D01*
X98108899Y-61321000D01*
X98128535Y-61322934D01*
G37*
G36*
X117991000Y-61541000D02*
G01*
X116689000Y-61541000D01*
X116689000Y-60039000D01*
X117991000Y-60039000D01*
X117991000Y-61541000D01*
G37*
G36*
X119611000Y-61541000D02*
G01*
X118509000Y-61541000D01*
X118509000Y-60039000D01*
X119611000Y-60039000D01*
X119611000Y-61541000D01*
G37*
G36*
X125001000Y-61291000D02*
G01*
X122399000Y-61291000D01*
X122399000Y-60089000D01*
X125001000Y-60089000D01*
X125001000Y-61291000D01*
G37*
G36*
X98128535Y-60052934D02*
G01*
X98167810Y-60056802D01*
X98218202Y-60072089D01*
X98243399Y-60079732D01*
X98313062Y-60116968D01*
X98374122Y-60167078D01*
X98424232Y-60228138D01*
X98461468Y-60297801D01*
X98461468Y-60297802D01*
X98484398Y-60373390D01*
X98492140Y-60452000D01*
X98484398Y-60530610D01*
X98469111Y-60581002D01*
X98461468Y-60606199D01*
X98424232Y-60675862D01*
X98374122Y-60736922D01*
X98313062Y-60787032D01*
X98243399Y-60824268D01*
X98218202Y-60831911D01*
X98167810Y-60847198D01*
X98128535Y-60851066D01*
X98108899Y-60853000D01*
X97369501Y-60853000D01*
X97349865Y-60851066D01*
X97310590Y-60847198D01*
X97260198Y-60831911D01*
X97235001Y-60824268D01*
X97165338Y-60787032D01*
X97104278Y-60736922D01*
X97054168Y-60675862D01*
X97016932Y-60606199D01*
X97009289Y-60581002D01*
X96994002Y-60530610D01*
X96986260Y-60452000D01*
X96994002Y-60373390D01*
X97016932Y-60297802D01*
X97016932Y-60297801D01*
X97054168Y-60228138D01*
X97104278Y-60167078D01*
X97165338Y-60116968D01*
X97235001Y-60079732D01*
X97260198Y-60072089D01*
X97310590Y-60056802D01*
X97349865Y-60052934D01*
X97369501Y-60051000D01*
X98108899Y-60051000D01*
X98128535Y-60052934D01*
G37*
G36*
X98128535Y-58782934D02*
G01*
X98167810Y-58786802D01*
X98218202Y-58802089D01*
X98243399Y-58809732D01*
X98313062Y-58846968D01*
X98374122Y-58897078D01*
X98424232Y-58958138D01*
X98461468Y-59027801D01*
X98461468Y-59027802D01*
X98484398Y-59103390D01*
X98492140Y-59182000D01*
X98484398Y-59260610D01*
X98475179Y-59291000D01*
X98461468Y-59336199D01*
X98424232Y-59405862D01*
X98374122Y-59466922D01*
X98313062Y-59517032D01*
X98243399Y-59554268D01*
X98218202Y-59561911D01*
X98167810Y-59577198D01*
X98128535Y-59581066D01*
X98108899Y-59583000D01*
X97369501Y-59583000D01*
X97349865Y-59581066D01*
X97310590Y-59577198D01*
X97260198Y-59561911D01*
X97235001Y-59554268D01*
X97165338Y-59517032D01*
X97104278Y-59466922D01*
X97054168Y-59405862D01*
X97016932Y-59336199D01*
X97003221Y-59291000D01*
X96994002Y-59260610D01*
X96986260Y-59182000D01*
X96994002Y-59103390D01*
X97016932Y-59027802D01*
X97016932Y-59027801D01*
X97054168Y-58958138D01*
X97104278Y-58897078D01*
X97165338Y-58846968D01*
X97235001Y-58809732D01*
X97260198Y-58802089D01*
X97310590Y-58786802D01*
X97349865Y-58782934D01*
X97369501Y-58781000D01*
X98108899Y-58781000D01*
X98128535Y-58782934D01*
G37*
G36*
X117711000Y-59341000D02*
G01*
X116609000Y-59341000D01*
X116609000Y-57839000D01*
X117711000Y-57839000D01*
X117711000Y-59341000D01*
G37*
G36*
X119611000Y-59341000D02*
G01*
X118509000Y-59341000D01*
X118509000Y-57839000D01*
X119611000Y-57839000D01*
X119611000Y-59341000D01*
G37*
G36*
X125001000Y-59291000D02*
G01*
X122399000Y-59291000D01*
X122399000Y-58089000D01*
X125001000Y-58089000D01*
X125001000Y-59291000D01*
G37*
G36*
X98128535Y-57512934D02*
G01*
X98167810Y-57516802D01*
X98218202Y-57532089D01*
X98243399Y-57539732D01*
X98313062Y-57576968D01*
X98374122Y-57627078D01*
X98424232Y-57688138D01*
X98461468Y-57757801D01*
X98461468Y-57757802D01*
X98484398Y-57833390D01*
X98492140Y-57912000D01*
X98484398Y-57990610D01*
X98469111Y-58041002D01*
X98461468Y-58066199D01*
X98424232Y-58135862D01*
X98374122Y-58196922D01*
X98313062Y-58247032D01*
X98243399Y-58284268D01*
X98218202Y-58291911D01*
X98167810Y-58307198D01*
X98128535Y-58311066D01*
X98108899Y-58313000D01*
X97369501Y-58313000D01*
X97349865Y-58311066D01*
X97310590Y-58307198D01*
X97260198Y-58291911D01*
X97235001Y-58284268D01*
X97165338Y-58247032D01*
X97104278Y-58196922D01*
X97054168Y-58135862D01*
X97016932Y-58066199D01*
X97009289Y-58041002D01*
X96994002Y-57990610D01*
X96986260Y-57912000D01*
X96994002Y-57833390D01*
X97016932Y-57757802D01*
X97016932Y-57757801D01*
X97054168Y-57688138D01*
X97104278Y-57627078D01*
X97165338Y-57576968D01*
X97235001Y-57539732D01*
X97260198Y-57532089D01*
X97310590Y-57516802D01*
X97349865Y-57512934D01*
X97369501Y-57511000D01*
X98108899Y-57511000D01*
X98128535Y-57512934D01*
G37*
G36*
X126586601Y-56804397D02*
G01*
X126625305Y-56812096D01*
X126657340Y-56825365D01*
X126734680Y-56857400D01*
X126833115Y-56923173D01*
X126916827Y-57006885D01*
X126982600Y-57105320D01*
X126990487Y-57124362D01*
X127027664Y-57214115D01*
X127027904Y-57214696D01*
X127050155Y-57326555D01*
X127051000Y-57330807D01*
X127051000Y-57449193D01*
X127032739Y-57541000D01*
X127027904Y-57565304D01*
X126982600Y-57674680D01*
X126916827Y-57773115D01*
X126833115Y-57856827D01*
X126734680Y-57922600D01*
X126657340Y-57954635D01*
X126625305Y-57967904D01*
X126586601Y-57975603D01*
X126509195Y-57991000D01*
X126390805Y-57991000D01*
X126313399Y-57975603D01*
X126274695Y-57967904D01*
X126242660Y-57954635D01*
X126165320Y-57922600D01*
X126066885Y-57856827D01*
X125983173Y-57773115D01*
X125917400Y-57674680D01*
X125872096Y-57565304D01*
X125867262Y-57541000D01*
X125849000Y-57449193D01*
X125849000Y-57330807D01*
X125849846Y-57326555D01*
X125872096Y-57214696D01*
X125872337Y-57214115D01*
X125909513Y-57124362D01*
X125917400Y-57105320D01*
X125983173Y-57006885D01*
X126066885Y-56923173D01*
X126165320Y-56857400D01*
X126242660Y-56825365D01*
X126274695Y-56812096D01*
X126313399Y-56804397D01*
X126390805Y-56789000D01*
X126509195Y-56789000D01*
X126586601Y-56804397D01*
G37*
G36*
X106451000Y-57541000D02*
G01*
X104849000Y-57541000D01*
X104849000Y-55439000D01*
X106451000Y-55439000D01*
X106451000Y-57541000D01*
G37*
G36*
X111051000Y-57541000D02*
G01*
X109449000Y-57541000D01*
X109449000Y-55439000D01*
X111051000Y-55439000D01*
X111051000Y-57541000D01*
G37*
G36*
X108751000Y-57541000D02*
G01*
X107149000Y-57541000D01*
X107149000Y-55439000D01*
X108751000Y-55439000D01*
X108751000Y-57541000D01*
G37*
G36*
X114664499Y-56183445D02*
G01*
X114701995Y-56194820D01*
X114736554Y-56213292D01*
X114766847Y-56238153D01*
X114791708Y-56268446D01*
X114810180Y-56303005D01*
X114821555Y-56340501D01*
X114826000Y-56385638D01*
X114826000Y-57124362D01*
X114821555Y-57169499D01*
X114810180Y-57206995D01*
X114791708Y-57241554D01*
X114766847Y-57271847D01*
X114736554Y-57296708D01*
X114701995Y-57315180D01*
X114664499Y-57326555D01*
X114619362Y-57331000D01*
X113980638Y-57331000D01*
X113935501Y-57326555D01*
X113898005Y-57315180D01*
X113863446Y-57296708D01*
X113833153Y-57271847D01*
X113808292Y-57241554D01*
X113789820Y-57206995D01*
X113778445Y-57169499D01*
X113774000Y-57124362D01*
X113774000Y-56385638D01*
X113778445Y-56340501D01*
X113789820Y-56303005D01*
X113808292Y-56268446D01*
X113833153Y-56238153D01*
X113863446Y-56213292D01*
X113898005Y-56194820D01*
X113935501Y-56183445D01*
X113980638Y-56179000D01*
X114619362Y-56179000D01*
X114664499Y-56183445D01*
G37*
G36*
X98128535Y-56242934D02*
G01*
X98167810Y-56246802D01*
X98218202Y-56262089D01*
X98243399Y-56269732D01*
X98313062Y-56306968D01*
X98374122Y-56357078D01*
X98424232Y-56418138D01*
X98461468Y-56487801D01*
X98461468Y-56487802D01*
X98484398Y-56563390D01*
X98492140Y-56642000D01*
X98484398Y-56720610D01*
X98469111Y-56771002D01*
X98461468Y-56796199D01*
X98424232Y-56865862D01*
X98374122Y-56926922D01*
X98313062Y-56977032D01*
X98243399Y-57014268D01*
X98218202Y-57021911D01*
X98167810Y-57037198D01*
X98128535Y-57041066D01*
X98108899Y-57043000D01*
X97369501Y-57043000D01*
X97349865Y-57041066D01*
X97310590Y-57037198D01*
X97260198Y-57021911D01*
X97235001Y-57014268D01*
X97165338Y-56977032D01*
X97104278Y-56926922D01*
X97054168Y-56865862D01*
X97016932Y-56796199D01*
X97009289Y-56771002D01*
X96994002Y-56720610D01*
X96986260Y-56642000D01*
X96994002Y-56563390D01*
X97016932Y-56487802D01*
X97016932Y-56487801D01*
X97054168Y-56418138D01*
X97104278Y-56357078D01*
X97165338Y-56306968D01*
X97235001Y-56269732D01*
X97260198Y-56262089D01*
X97310590Y-56246802D01*
X97349865Y-56242934D01*
X97369501Y-56241000D01*
X98108899Y-56241000D01*
X98128535Y-56242934D01*
G37*
G36*
X125001000Y-56791000D02*
G01*
X122399000Y-56791000D01*
X122399000Y-55589000D01*
X125001000Y-55589000D01*
X125001000Y-56791000D01*
G37*
G36*
X98128535Y-54972934D02*
G01*
X98167810Y-54976802D01*
X98214613Y-54991000D01*
X98243399Y-54999732D01*
X98313062Y-55036968D01*
X98374122Y-55087078D01*
X98424232Y-55148138D01*
X98461468Y-55217801D01*
X98461468Y-55217802D01*
X98484398Y-55293390D01*
X98492140Y-55372000D01*
X98484398Y-55450610D01*
X98482461Y-55456995D01*
X98461468Y-55526199D01*
X98424232Y-55595862D01*
X98374122Y-55656922D01*
X98313062Y-55707032D01*
X98243399Y-55744268D01*
X98218202Y-55751911D01*
X98167810Y-55767198D01*
X98128535Y-55771066D01*
X98108899Y-55773000D01*
X97369501Y-55773000D01*
X97349865Y-55771066D01*
X97310590Y-55767198D01*
X97260198Y-55751911D01*
X97235001Y-55744268D01*
X97165338Y-55707032D01*
X97104278Y-55656922D01*
X97054168Y-55595862D01*
X97016932Y-55526199D01*
X96995939Y-55456995D01*
X96994002Y-55450610D01*
X96986260Y-55372000D01*
X96994002Y-55293390D01*
X97016932Y-55217802D01*
X97016932Y-55217801D01*
X97054168Y-55148138D01*
X97104278Y-55087078D01*
X97165338Y-55036968D01*
X97235001Y-54999732D01*
X97263787Y-54991000D01*
X97310590Y-54976802D01*
X97349865Y-54972934D01*
X97369501Y-54971000D01*
X98108899Y-54971000D01*
X98128535Y-54972934D01*
G37*
G36*
X114664499Y-54433445D02*
G01*
X114701995Y-54444820D01*
X114736554Y-54463292D01*
X114766847Y-54488153D01*
X114791708Y-54518446D01*
X114810180Y-54553005D01*
X114821555Y-54590501D01*
X114826000Y-54635638D01*
X114826000Y-55374362D01*
X114821555Y-55419499D01*
X114810180Y-55456995D01*
X114791708Y-55491554D01*
X114766847Y-55521847D01*
X114736554Y-55546708D01*
X114701995Y-55565180D01*
X114664499Y-55576555D01*
X114619362Y-55581000D01*
X113980638Y-55581000D01*
X113935501Y-55576555D01*
X113898005Y-55565180D01*
X113863446Y-55546708D01*
X113833153Y-55521847D01*
X113808292Y-55491554D01*
X113789820Y-55456995D01*
X113778445Y-55419499D01*
X113774000Y-55374362D01*
X113774000Y-54635638D01*
X113778445Y-54590501D01*
X113789820Y-54553005D01*
X113808292Y-54518446D01*
X113833153Y-54488153D01*
X113863446Y-54463292D01*
X113898005Y-54444820D01*
X113935501Y-54433445D01*
X113980638Y-54429000D01*
X114619362Y-54429000D01*
X114664499Y-54433445D01*
G37*
G36*
X127446228Y-53003483D02*
G01*
X127634922Y-53060723D01*
X127808815Y-53153671D01*
X127961239Y-53278761D01*
X128086329Y-53431185D01*
X128179277Y-53605078D01*
X128236517Y-53793772D01*
X128255843Y-53990000D01*
X128236517Y-54186228D01*
X128179277Y-54374922D01*
X128086329Y-54548815D01*
X127961239Y-54701239D01*
X127808815Y-54826329D01*
X127634922Y-54919277D01*
X127446228Y-54976517D01*
X127299175Y-54991000D01*
X125600825Y-54991000D01*
X125453772Y-54976517D01*
X125265078Y-54919277D01*
X125091185Y-54826329D01*
X124938761Y-54701239D01*
X124813671Y-54548815D01*
X124720723Y-54374922D01*
X124663483Y-54186228D01*
X124644157Y-53990000D01*
X124663483Y-53793772D01*
X124720723Y-53605078D01*
X124813671Y-53431185D01*
X124938761Y-53278761D01*
X125091185Y-53153671D01*
X125265078Y-53060723D01*
X125453772Y-53003483D01*
X125600825Y-52989000D01*
X127299175Y-52989000D01*
X127446228Y-53003483D01*
G37*
G36*
X98128535Y-53702934D02*
G01*
X98167810Y-53706802D01*
X98218202Y-53722089D01*
X98243399Y-53729732D01*
X98313062Y-53766968D01*
X98374122Y-53817078D01*
X98424232Y-53878138D01*
X98461468Y-53947801D01*
X98461468Y-53947802D01*
X98484398Y-54023390D01*
X98492140Y-54102000D01*
X98484398Y-54180610D01*
X98482693Y-54186230D01*
X98461468Y-54256199D01*
X98424232Y-54325862D01*
X98374122Y-54386922D01*
X98313062Y-54437032D01*
X98243399Y-54474268D01*
X98218202Y-54481911D01*
X98167810Y-54497198D01*
X98128535Y-54501066D01*
X98108899Y-54503000D01*
X97369501Y-54503000D01*
X97349865Y-54501066D01*
X97310590Y-54497198D01*
X97260198Y-54481911D01*
X97235001Y-54474268D01*
X97165338Y-54437032D01*
X97104278Y-54386922D01*
X97054168Y-54325862D01*
X97016932Y-54256199D01*
X96995707Y-54186230D01*
X96994002Y-54180610D01*
X96986260Y-54102000D01*
X96994002Y-54023390D01*
X97016932Y-53947802D01*
X97016932Y-53947801D01*
X97054168Y-53878138D01*
X97104278Y-53817078D01*
X97165338Y-53766968D01*
X97235001Y-53729732D01*
X97260198Y-53722089D01*
X97310590Y-53706802D01*
X97349865Y-53702934D01*
X97369501Y-53701000D01*
X98108899Y-53701000D01*
X98128535Y-53702934D01*
G37*
G36*
X101964499Y-52373445D02*
G01*
X102001995Y-52384820D01*
X102036554Y-52403292D01*
X102066847Y-52428153D01*
X102091708Y-52458446D01*
X102110180Y-52493005D01*
X102121555Y-52530501D01*
X102126000Y-52575638D01*
X102126000Y-53314362D01*
X102121555Y-53359499D01*
X102110180Y-53396995D01*
X102091708Y-53431554D01*
X102066847Y-53461847D01*
X102036554Y-53486708D01*
X102001995Y-53505180D01*
X101964499Y-53516555D01*
X101919362Y-53521000D01*
X101280638Y-53521000D01*
X101235501Y-53516555D01*
X101198005Y-53505180D01*
X101163446Y-53486708D01*
X101133153Y-53461847D01*
X101108292Y-53431554D01*
X101089820Y-53396995D01*
X101078445Y-53359499D01*
X101074000Y-53314362D01*
X101074000Y-52575638D01*
X101078445Y-52530501D01*
X101089820Y-52493005D01*
X101108292Y-52458446D01*
X101133153Y-52428153D01*
X101163446Y-52403292D01*
X101198005Y-52384820D01*
X101235501Y-52373445D01*
X101280638Y-52369000D01*
X101919362Y-52369000D01*
X101964499Y-52373445D01*
G37*
G36*
X98128535Y-52432934D02*
G01*
X98167810Y-52436802D01*
X98218202Y-52452089D01*
X98243399Y-52459732D01*
X98313062Y-52496968D01*
X98374122Y-52547078D01*
X98424232Y-52608138D01*
X98461468Y-52677801D01*
X98461468Y-52677802D01*
X98484398Y-52753390D01*
X98492140Y-52832000D01*
X98484398Y-52910610D01*
X98469111Y-52961002D01*
X98461468Y-52986199D01*
X98424232Y-53055862D01*
X98374122Y-53116922D01*
X98313062Y-53167032D01*
X98243399Y-53204268D01*
X98218202Y-53211911D01*
X98167810Y-53227198D01*
X98128535Y-53231066D01*
X98108899Y-53233000D01*
X97369501Y-53233000D01*
X97349865Y-53231066D01*
X97310590Y-53227198D01*
X97260198Y-53211911D01*
X97235001Y-53204268D01*
X97165338Y-53167032D01*
X97104278Y-53116922D01*
X97054168Y-53055862D01*
X97016932Y-52986199D01*
X97009289Y-52961002D01*
X96994002Y-52910610D01*
X96986260Y-52832000D01*
X96994002Y-52753390D01*
X97016932Y-52677802D01*
X97016932Y-52677801D01*
X97054168Y-52608138D01*
X97104278Y-52547078D01*
X97165338Y-52496968D01*
X97235001Y-52459732D01*
X97260198Y-52452089D01*
X97310590Y-52436802D01*
X97349865Y-52432934D01*
X97369501Y-52431000D01*
X98108899Y-52431000D01*
X98128535Y-52432934D01*
G37*
G36*
X117204499Y-51103445D02*
G01*
X117241995Y-51114820D01*
X117276554Y-51133292D01*
X117306847Y-51158153D01*
X117331708Y-51188446D01*
X117350180Y-51223005D01*
X117361555Y-51260501D01*
X117366000Y-51305638D01*
X117366000Y-52044362D01*
X117361555Y-52089499D01*
X117350180Y-52126995D01*
X117331708Y-52161554D01*
X117306847Y-52191847D01*
X117276554Y-52216708D01*
X117241995Y-52235180D01*
X117204499Y-52246555D01*
X117159362Y-52251000D01*
X116520638Y-52251000D01*
X116475501Y-52246555D01*
X116438005Y-52235180D01*
X116403446Y-52216708D01*
X116373153Y-52191847D01*
X116348292Y-52161554D01*
X116329820Y-52126995D01*
X116318445Y-52089499D01*
X116314000Y-52044362D01*
X116314000Y-51305638D01*
X116318445Y-51260501D01*
X116329820Y-51223005D01*
X116348292Y-51188446D01*
X116373153Y-51158153D01*
X116403446Y-51133292D01*
X116438005Y-51114820D01*
X116475501Y-51103445D01*
X116520638Y-51099000D01*
X117159362Y-51099000D01*
X117204499Y-51103445D01*
G37*
G36*
X114664499Y-51103445D02*
G01*
X114701995Y-51114820D01*
X114736554Y-51133292D01*
X114766847Y-51158153D01*
X114791708Y-51188446D01*
X114810180Y-51223005D01*
X114821555Y-51260501D01*
X114826000Y-51305638D01*
X114826000Y-52044362D01*
X114821555Y-52089499D01*
X114810180Y-52126995D01*
X114791708Y-52161554D01*
X114766847Y-52191847D01*
X114736554Y-52216708D01*
X114701995Y-52235180D01*
X114664499Y-52246555D01*
X114619362Y-52251000D01*
X113980638Y-52251000D01*
X113935501Y-52246555D01*
X113898005Y-52235180D01*
X113863446Y-52216708D01*
X113833153Y-52191847D01*
X113808292Y-52161554D01*
X113789820Y-52126995D01*
X113778445Y-52089499D01*
X113774000Y-52044362D01*
X113774000Y-51305638D01*
X113778445Y-51260501D01*
X113789820Y-51223005D01*
X113808292Y-51188446D01*
X113833153Y-51158153D01*
X113863446Y-51133292D01*
X113898005Y-51114820D01*
X113935501Y-51103445D01*
X113980638Y-51099000D01*
X114619362Y-51099000D01*
X114664499Y-51103445D01*
G37*
G36*
X101964499Y-50623445D02*
G01*
X102001995Y-50634820D01*
X102036554Y-50653292D01*
X102066847Y-50678153D01*
X102091708Y-50708446D01*
X102110180Y-50743005D01*
X102121555Y-50780501D01*
X102126000Y-50825638D01*
X102126000Y-51564362D01*
X102121555Y-51609499D01*
X102110180Y-51646995D01*
X102091708Y-51681554D01*
X102066847Y-51711847D01*
X102036554Y-51736708D01*
X102001995Y-51755180D01*
X101964499Y-51766555D01*
X101919362Y-51771000D01*
X101280638Y-51771000D01*
X101235501Y-51766555D01*
X101198005Y-51755180D01*
X101163446Y-51736708D01*
X101133153Y-51711847D01*
X101108292Y-51681554D01*
X101089820Y-51646995D01*
X101078445Y-51609499D01*
X101074000Y-51564362D01*
X101074000Y-50825638D01*
X101078445Y-50780501D01*
X101089820Y-50743005D01*
X101108292Y-50708446D01*
X101133153Y-50678153D01*
X101163446Y-50653292D01*
X101198005Y-50634820D01*
X101235501Y-50623445D01*
X101280638Y-50619000D01*
X101919362Y-50619000D01*
X101964499Y-50623445D01*
G37*
G36*
X124121000Y-51701000D02*
G01*
X123119000Y-51701000D01*
X123119000Y-49899000D01*
X124121000Y-49899000D01*
X124121000Y-51701000D01*
G37*
G36*
X120721000Y-51701000D02*
G01*
X119719000Y-51701000D01*
X119719000Y-49899000D01*
X120721000Y-49899000D01*
X120721000Y-51701000D01*
G37*
G36*
X109901000Y-51241000D02*
G01*
X105999000Y-51241000D01*
X105999000Y-49139000D01*
X109901000Y-49139000D01*
X109901000Y-51241000D01*
G37*
G36*
X93398210Y-49165802D02*
G01*
X93448602Y-49181089D01*
X93473799Y-49188732D01*
X93543462Y-49225968D01*
X93604522Y-49276078D01*
X93654632Y-49337138D01*
X93691868Y-49406801D01*
X93691868Y-49406802D01*
X93714798Y-49482390D01*
X93720600Y-49541302D01*
X93720600Y-50280698D01*
X93714798Y-50339610D01*
X93703457Y-50376995D01*
X93691868Y-50415199D01*
X93654632Y-50484862D01*
X93604522Y-50545922D01*
X93543460Y-50596033D01*
X93473800Y-50633267D01*
X93473797Y-50633268D01*
X93398209Y-50656198D01*
X93319600Y-50663940D01*
X93240990Y-50656198D01*
X93184363Y-50639020D01*
X93165401Y-50633268D01*
X93095738Y-50596032D01*
X93034678Y-50545922D01*
X92984567Y-50484860D01*
X92947333Y-50415200D01*
X92937903Y-50384115D01*
X92924402Y-50339609D01*
X92918600Y-50280697D01*
X92918600Y-49541304D01*
X92924403Y-49482392D01*
X92924403Y-49482390D01*
X92947333Y-49406802D01*
X92947333Y-49406801D01*
X92984569Y-49337138D01*
X93034679Y-49276078D01*
X93095739Y-49225968D01*
X93165402Y-49188732D01*
X93190599Y-49181089D01*
X93240991Y-49165802D01*
X93319600Y-49158060D01*
X93398210Y-49165802D01*
G37*
G36*
X85778210Y-49165802D02*
G01*
X85828602Y-49181089D01*
X85853799Y-49188732D01*
X85923462Y-49225968D01*
X85984522Y-49276078D01*
X86034632Y-49337138D01*
X86071868Y-49406801D01*
X86071868Y-49406802D01*
X86094798Y-49482390D01*
X86100600Y-49541302D01*
X86100600Y-50280698D01*
X86094798Y-50339610D01*
X86083457Y-50376995D01*
X86071868Y-50415199D01*
X86034632Y-50484862D01*
X85984522Y-50545922D01*
X85923460Y-50596033D01*
X85853800Y-50633267D01*
X85853797Y-50633268D01*
X85778209Y-50656198D01*
X85699600Y-50663940D01*
X85620990Y-50656198D01*
X85564363Y-50639020D01*
X85545401Y-50633268D01*
X85475738Y-50596032D01*
X85414678Y-50545922D01*
X85364567Y-50484860D01*
X85327333Y-50415200D01*
X85317903Y-50384115D01*
X85304402Y-50339609D01*
X85298600Y-50280697D01*
X85298600Y-49541304D01*
X85304403Y-49482392D01*
X85304403Y-49482390D01*
X85327333Y-49406802D01*
X85327333Y-49406801D01*
X85364569Y-49337138D01*
X85414679Y-49276078D01*
X85475739Y-49225968D01*
X85545402Y-49188732D01*
X85570599Y-49181089D01*
X85620991Y-49165802D01*
X85699600Y-49158060D01*
X85778210Y-49165802D01*
G37*
G36*
X84508210Y-49165802D02*
G01*
X84558602Y-49181089D01*
X84583799Y-49188732D01*
X84653462Y-49225968D01*
X84714522Y-49276078D01*
X84764632Y-49337138D01*
X84801868Y-49406801D01*
X84801868Y-49406802D01*
X84824798Y-49482390D01*
X84830600Y-49541302D01*
X84830600Y-50280698D01*
X84824798Y-50339610D01*
X84813457Y-50376995D01*
X84801868Y-50415199D01*
X84764632Y-50484862D01*
X84714522Y-50545922D01*
X84653460Y-50596033D01*
X84583800Y-50633267D01*
X84583797Y-50633268D01*
X84508209Y-50656198D01*
X84429600Y-50663940D01*
X84350990Y-50656198D01*
X84294363Y-50639020D01*
X84275401Y-50633268D01*
X84205738Y-50596032D01*
X84144678Y-50545922D01*
X84094567Y-50484860D01*
X84057333Y-50415200D01*
X84047903Y-50384115D01*
X84034402Y-50339609D01*
X84028600Y-50280697D01*
X84028600Y-49541304D01*
X84034403Y-49482392D01*
X84034403Y-49482390D01*
X84057333Y-49406802D01*
X84057333Y-49406801D01*
X84094569Y-49337138D01*
X84144679Y-49276078D01*
X84205739Y-49225968D01*
X84275402Y-49188732D01*
X84300599Y-49181089D01*
X84350991Y-49165802D01*
X84429600Y-49158060D01*
X84508210Y-49165802D01*
G37*
G36*
X83238210Y-49165802D02*
G01*
X83288602Y-49181089D01*
X83313799Y-49188732D01*
X83383462Y-49225968D01*
X83444522Y-49276078D01*
X83494632Y-49337138D01*
X83531868Y-49406801D01*
X83531868Y-49406802D01*
X83554798Y-49482390D01*
X83560600Y-49541302D01*
X83560600Y-50280698D01*
X83554798Y-50339610D01*
X83543457Y-50376995D01*
X83531868Y-50415199D01*
X83494632Y-50484862D01*
X83444522Y-50545922D01*
X83383460Y-50596033D01*
X83313800Y-50633267D01*
X83313797Y-50633268D01*
X83238209Y-50656198D01*
X83159600Y-50663940D01*
X83080990Y-50656198D01*
X83024363Y-50639020D01*
X83005401Y-50633268D01*
X82935738Y-50596032D01*
X82874678Y-50545922D01*
X82824567Y-50484860D01*
X82787333Y-50415200D01*
X82777903Y-50384115D01*
X82764402Y-50339609D01*
X82758600Y-50280697D01*
X82758600Y-49541304D01*
X82764403Y-49482392D01*
X82764403Y-49482390D01*
X82787333Y-49406802D01*
X82787333Y-49406801D01*
X82824569Y-49337138D01*
X82874679Y-49276078D01*
X82935739Y-49225968D01*
X83005402Y-49188732D01*
X83030599Y-49181089D01*
X83080991Y-49165802D01*
X83159600Y-49158060D01*
X83238210Y-49165802D01*
G37*
G36*
X87048210Y-49165802D02*
G01*
X87098602Y-49181089D01*
X87123799Y-49188732D01*
X87193462Y-49225968D01*
X87254522Y-49276078D01*
X87304632Y-49337138D01*
X87341868Y-49406801D01*
X87341868Y-49406802D01*
X87364798Y-49482390D01*
X87370600Y-49541302D01*
X87370600Y-50280698D01*
X87364798Y-50339610D01*
X87353457Y-50376995D01*
X87341868Y-50415199D01*
X87304632Y-50484862D01*
X87254522Y-50545922D01*
X87193460Y-50596033D01*
X87123800Y-50633267D01*
X87123797Y-50633268D01*
X87048209Y-50656198D01*
X86969600Y-50663940D01*
X86890990Y-50656198D01*
X86834363Y-50639020D01*
X86815401Y-50633268D01*
X86745738Y-50596032D01*
X86684678Y-50545922D01*
X86634567Y-50484860D01*
X86597333Y-50415200D01*
X86587903Y-50384115D01*
X86574402Y-50339609D01*
X86568600Y-50280697D01*
X86568600Y-49541304D01*
X86574403Y-49482392D01*
X86574403Y-49482390D01*
X86597333Y-49406802D01*
X86597333Y-49406801D01*
X86634569Y-49337138D01*
X86684679Y-49276078D01*
X86745739Y-49225968D01*
X86815402Y-49188732D01*
X86840599Y-49181089D01*
X86890991Y-49165802D01*
X86969600Y-49158060D01*
X87048210Y-49165802D01*
G37*
G36*
X89588210Y-49165802D02*
G01*
X89638602Y-49181089D01*
X89663799Y-49188732D01*
X89733462Y-49225968D01*
X89794522Y-49276078D01*
X89844632Y-49337138D01*
X89881868Y-49406801D01*
X89881868Y-49406802D01*
X89904798Y-49482390D01*
X89910600Y-49541302D01*
X89910600Y-50280698D01*
X89904798Y-50339610D01*
X89893457Y-50376995D01*
X89881868Y-50415199D01*
X89844632Y-50484862D01*
X89794522Y-50545922D01*
X89733460Y-50596033D01*
X89663800Y-50633267D01*
X89663797Y-50633268D01*
X89588209Y-50656198D01*
X89509600Y-50663940D01*
X89430990Y-50656198D01*
X89374363Y-50639020D01*
X89355401Y-50633268D01*
X89285738Y-50596032D01*
X89224678Y-50545922D01*
X89174567Y-50484860D01*
X89137333Y-50415200D01*
X89127903Y-50384115D01*
X89114402Y-50339609D01*
X89108600Y-50280697D01*
X89108600Y-49541304D01*
X89114403Y-49482392D01*
X89114403Y-49482390D01*
X89137333Y-49406802D01*
X89137333Y-49406801D01*
X89174569Y-49337138D01*
X89224679Y-49276078D01*
X89285739Y-49225968D01*
X89355402Y-49188732D01*
X89380599Y-49181089D01*
X89430991Y-49165802D01*
X89509600Y-49158060D01*
X89588210Y-49165802D01*
G37*
G36*
X90858210Y-49165802D02*
G01*
X90908602Y-49181089D01*
X90933799Y-49188732D01*
X91003462Y-49225968D01*
X91064522Y-49276078D01*
X91114632Y-49337138D01*
X91151868Y-49406801D01*
X91151868Y-49406802D01*
X91174798Y-49482390D01*
X91180600Y-49541302D01*
X91180600Y-50280698D01*
X91174798Y-50339610D01*
X91163457Y-50376995D01*
X91151868Y-50415199D01*
X91114632Y-50484862D01*
X91064522Y-50545922D01*
X91003460Y-50596033D01*
X90933800Y-50633267D01*
X90933797Y-50633268D01*
X90858209Y-50656198D01*
X90779600Y-50663940D01*
X90700990Y-50656198D01*
X90644363Y-50639020D01*
X90625401Y-50633268D01*
X90555738Y-50596032D01*
X90494678Y-50545922D01*
X90444567Y-50484860D01*
X90407333Y-50415200D01*
X90397903Y-50384115D01*
X90384402Y-50339609D01*
X90378600Y-50280697D01*
X90378600Y-49541304D01*
X90384403Y-49482392D01*
X90384403Y-49482390D01*
X90407333Y-49406802D01*
X90407333Y-49406801D01*
X90444569Y-49337138D01*
X90494679Y-49276078D01*
X90555739Y-49225968D01*
X90625402Y-49188732D01*
X90650599Y-49181089D01*
X90700991Y-49165802D01*
X90779600Y-49158060D01*
X90858210Y-49165802D01*
G37*
G36*
X92128210Y-49165802D02*
G01*
X92178602Y-49181089D01*
X92203799Y-49188732D01*
X92273462Y-49225968D01*
X92334522Y-49276078D01*
X92384632Y-49337138D01*
X92421868Y-49406801D01*
X92421868Y-49406802D01*
X92444798Y-49482390D01*
X92450600Y-49541302D01*
X92450600Y-50280698D01*
X92444798Y-50339610D01*
X92433457Y-50376995D01*
X92421868Y-50415199D01*
X92384632Y-50484862D01*
X92334522Y-50545922D01*
X92273460Y-50596033D01*
X92203800Y-50633267D01*
X92203797Y-50633268D01*
X92128209Y-50656198D01*
X92049600Y-50663940D01*
X91970990Y-50656198D01*
X91914363Y-50639020D01*
X91895401Y-50633268D01*
X91825738Y-50596032D01*
X91764678Y-50545922D01*
X91714567Y-50484860D01*
X91677333Y-50415200D01*
X91667903Y-50384115D01*
X91654402Y-50339609D01*
X91648600Y-50280697D01*
X91648600Y-49541304D01*
X91654403Y-49482392D01*
X91654403Y-49482390D01*
X91677333Y-49406802D01*
X91677333Y-49406801D01*
X91714569Y-49337138D01*
X91764679Y-49276078D01*
X91825739Y-49225968D01*
X91895402Y-49188732D01*
X91920599Y-49181089D01*
X91970991Y-49165802D01*
X92049600Y-49158060D01*
X92128210Y-49165802D01*
G37*
G36*
X94668210Y-49165802D02*
G01*
X94718602Y-49181089D01*
X94743799Y-49188732D01*
X94813462Y-49225968D01*
X94874522Y-49276078D01*
X94924632Y-49337138D01*
X94961868Y-49406801D01*
X94961868Y-49406802D01*
X94984798Y-49482390D01*
X94990600Y-49541302D01*
X94990600Y-50280698D01*
X94984798Y-50339610D01*
X94973457Y-50376995D01*
X94961868Y-50415199D01*
X94924632Y-50484862D01*
X94874522Y-50545922D01*
X94813460Y-50596033D01*
X94743800Y-50633267D01*
X94743797Y-50633268D01*
X94668209Y-50656198D01*
X94589600Y-50663940D01*
X94510990Y-50656198D01*
X94454363Y-50639020D01*
X94435401Y-50633268D01*
X94365738Y-50596032D01*
X94304678Y-50545922D01*
X94254567Y-50484860D01*
X94217333Y-50415200D01*
X94207903Y-50384115D01*
X94194402Y-50339609D01*
X94188600Y-50280697D01*
X94188600Y-49541304D01*
X94194403Y-49482392D01*
X94194403Y-49482390D01*
X94217333Y-49406802D01*
X94217333Y-49406801D01*
X94254569Y-49337138D01*
X94304679Y-49276078D01*
X94365739Y-49225968D01*
X94435402Y-49188732D01*
X94460599Y-49181089D01*
X94510991Y-49165802D01*
X94589600Y-49158060D01*
X94668210Y-49165802D01*
G37*
G36*
X95938210Y-49165802D02*
G01*
X95988602Y-49181089D01*
X96013799Y-49188732D01*
X96083462Y-49225968D01*
X96144522Y-49276078D01*
X96194632Y-49337138D01*
X96231868Y-49406801D01*
X96231868Y-49406802D01*
X96254798Y-49482390D01*
X96260600Y-49541302D01*
X96260600Y-50280698D01*
X96254798Y-50339610D01*
X96243457Y-50376995D01*
X96231868Y-50415199D01*
X96194632Y-50484862D01*
X96144522Y-50545922D01*
X96083460Y-50596033D01*
X96013800Y-50633267D01*
X96013797Y-50633268D01*
X95938209Y-50656198D01*
X95859600Y-50663940D01*
X95780990Y-50656198D01*
X95724363Y-50639020D01*
X95705401Y-50633268D01*
X95635738Y-50596032D01*
X95574678Y-50545922D01*
X95524567Y-50484860D01*
X95487333Y-50415200D01*
X95477903Y-50384115D01*
X95464402Y-50339609D01*
X95458600Y-50280697D01*
X95458600Y-49541304D01*
X95464403Y-49482392D01*
X95464403Y-49482390D01*
X95487333Y-49406802D01*
X95487333Y-49406801D01*
X95524569Y-49337138D01*
X95574679Y-49276078D01*
X95635739Y-49225968D01*
X95705402Y-49188732D01*
X95730599Y-49181089D01*
X95780991Y-49165802D01*
X95859600Y-49158060D01*
X95938210Y-49165802D01*
G37*
G36*
X88318210Y-49165802D02*
G01*
X88368602Y-49181089D01*
X88393799Y-49188732D01*
X88463462Y-49225968D01*
X88524522Y-49276078D01*
X88574632Y-49337138D01*
X88611868Y-49406801D01*
X88611868Y-49406802D01*
X88634798Y-49482390D01*
X88640600Y-49541302D01*
X88640600Y-50280698D01*
X88634798Y-50339610D01*
X88623457Y-50376995D01*
X88611868Y-50415199D01*
X88574632Y-50484862D01*
X88524522Y-50545922D01*
X88463460Y-50596033D01*
X88393800Y-50633267D01*
X88393797Y-50633268D01*
X88318209Y-50656198D01*
X88239600Y-50663940D01*
X88160990Y-50656198D01*
X88104363Y-50639020D01*
X88085401Y-50633268D01*
X88015738Y-50596032D01*
X87954678Y-50545922D01*
X87904567Y-50484860D01*
X87867333Y-50415200D01*
X87857903Y-50384115D01*
X87844402Y-50339609D01*
X87838600Y-50280697D01*
X87838600Y-49541304D01*
X87844403Y-49482392D01*
X87844403Y-49482390D01*
X87867333Y-49406802D01*
X87867333Y-49406801D01*
X87904569Y-49337138D01*
X87954679Y-49276078D01*
X88015739Y-49225968D01*
X88085402Y-49188732D01*
X88110599Y-49181089D01*
X88160991Y-49165802D01*
X88239600Y-49158060D01*
X88318210Y-49165802D01*
G37*
G36*
X117204499Y-49353445D02*
G01*
X117241995Y-49364820D01*
X117276554Y-49383292D01*
X117306847Y-49408153D01*
X117331708Y-49438446D01*
X117350180Y-49473005D01*
X117361555Y-49510501D01*
X117366000Y-49555638D01*
X117366000Y-50294362D01*
X117361555Y-50339499D01*
X117350180Y-50376995D01*
X117331708Y-50411554D01*
X117306847Y-50441847D01*
X117276554Y-50466708D01*
X117241995Y-50485180D01*
X117204499Y-50496555D01*
X117159362Y-50501000D01*
X116520638Y-50501000D01*
X116475501Y-50496555D01*
X116438005Y-50485180D01*
X116403446Y-50466708D01*
X116373153Y-50441847D01*
X116348292Y-50411554D01*
X116329820Y-50376995D01*
X116318445Y-50339499D01*
X116314000Y-50294362D01*
X116314000Y-49555638D01*
X116318445Y-49510501D01*
X116329820Y-49473005D01*
X116348292Y-49438446D01*
X116373153Y-49408153D01*
X116403446Y-49383292D01*
X116438005Y-49364820D01*
X116475501Y-49353445D01*
X116520638Y-49349000D01*
X117159362Y-49349000D01*
X117204499Y-49353445D01*
G37*
G36*
X114664499Y-49353445D02*
G01*
X114701995Y-49364820D01*
X114736554Y-49383292D01*
X114766847Y-49408153D01*
X114791708Y-49438446D01*
X114810180Y-49473005D01*
X114821555Y-49510501D01*
X114826000Y-49555638D01*
X114826000Y-50294362D01*
X114821555Y-50339499D01*
X114810180Y-50376995D01*
X114791708Y-50411554D01*
X114766847Y-50441847D01*
X114736554Y-50466708D01*
X114701995Y-50485180D01*
X114664499Y-50496555D01*
X114619362Y-50501000D01*
X113980638Y-50501000D01*
X113935501Y-50496555D01*
X113898005Y-50485180D01*
X113863446Y-50466708D01*
X113833153Y-50441847D01*
X113808292Y-50411554D01*
X113789820Y-50376995D01*
X113778445Y-50339499D01*
X113774000Y-50294362D01*
X113774000Y-49555638D01*
X113778445Y-49510501D01*
X113789820Y-49473005D01*
X113808292Y-49438446D01*
X113833153Y-49408153D01*
X113863446Y-49383292D01*
X113898005Y-49364820D01*
X113935501Y-49353445D01*
X113980638Y-49349000D01*
X114619362Y-49349000D01*
X114664499Y-49353445D01*
G37*
M02*
