G04 #@! TF.GenerationSoftware,KiCad,Pcbnew,(5.1.5)-3*
G04 #@! TF.CreationDate,2020-03-31T21:34:46+02:00*
G04 #@! TF.ProjectId,cc1352P-dongle,63633133-3532-4502-9d64-6f6e676c652e,rev?*
G04 #@! TF.SameCoordinates,Original*
G04 #@! TF.FileFunction,Paste,Top*
G04 #@! TF.FilePolarity,Positive*
%FSLAX46Y46*%
G04 Gerber Fmt 4.6, Leading zero omitted, Abs format (unit mm)*
G04 Created by KiCad (PCBNEW (5.1.5)-3) date 2020-03-31 21:34:46*
%MOMM*%
%LPD*%
G04 APERTURE LIST*
%ADD10C,0.150000*%
%ADD11R,0.300000X1.400000*%
%ADD12R,0.900000X1.700000*%
%ADD13R,1.000000X1.400000*%
%ADD14R,1.200000X1.400000*%
%ADD15C,0.100000*%
%ADD16R,2.500000X1.100000*%
%ADD17R,3.800000X2.000000*%
%ADD18R,1.500000X2.000000*%
%ADD19O,1.400000X0.700000*%
%ADD20O,0.700000X1.400000*%
G04 APERTURE END LIST*
D10*
X66040000Y-71120000D02*
X66040000Y-48260000D01*
X129540000Y-71120000D02*
X66040000Y-71120000D01*
X129540000Y-48260000D02*
X129540000Y-71120000D01*
X66040000Y-48260000D02*
X129540000Y-48260000D01*
D11*
X119110000Y-68240000D03*
X118610000Y-68240000D03*
X118110000Y-68240000D03*
X117610000Y-68240000D03*
X117110000Y-68240000D03*
X117110000Y-63840000D03*
X117610000Y-63840000D03*
X118110000Y-63840000D03*
X118610000Y-63840000D03*
X119110000Y-63840000D03*
D12*
X123620000Y-50800000D03*
X120220000Y-50800000D03*
D13*
X117160000Y-58590000D03*
X119060000Y-58590000D03*
X119060000Y-60790000D03*
D14*
X117340000Y-60790000D03*
D15*
G36*
X114560779Y-54481144D02*
G01*
X114583834Y-54484563D01*
X114606443Y-54490227D01*
X114628387Y-54498079D01*
X114649457Y-54508044D01*
X114669448Y-54520026D01*
X114688168Y-54533910D01*
X114705438Y-54549562D01*
X114721090Y-54566832D01*
X114734974Y-54585552D01*
X114746956Y-54605543D01*
X114756921Y-54626613D01*
X114764773Y-54648557D01*
X114770437Y-54671166D01*
X114773856Y-54694221D01*
X114775000Y-54717500D01*
X114775000Y-55292500D01*
X114773856Y-55315779D01*
X114770437Y-55338834D01*
X114764773Y-55361443D01*
X114756921Y-55383387D01*
X114746956Y-55404457D01*
X114734974Y-55424448D01*
X114721090Y-55443168D01*
X114705438Y-55460438D01*
X114688168Y-55476090D01*
X114669448Y-55489974D01*
X114649457Y-55501956D01*
X114628387Y-55511921D01*
X114606443Y-55519773D01*
X114583834Y-55525437D01*
X114560779Y-55528856D01*
X114537500Y-55530000D01*
X114062500Y-55530000D01*
X114039221Y-55528856D01*
X114016166Y-55525437D01*
X113993557Y-55519773D01*
X113971613Y-55511921D01*
X113950543Y-55501956D01*
X113930552Y-55489974D01*
X113911832Y-55476090D01*
X113894562Y-55460438D01*
X113878910Y-55443168D01*
X113865026Y-55424448D01*
X113853044Y-55404457D01*
X113843079Y-55383387D01*
X113835227Y-55361443D01*
X113829563Y-55338834D01*
X113826144Y-55315779D01*
X113825000Y-55292500D01*
X113825000Y-54717500D01*
X113826144Y-54694221D01*
X113829563Y-54671166D01*
X113835227Y-54648557D01*
X113843079Y-54626613D01*
X113853044Y-54605543D01*
X113865026Y-54585552D01*
X113878910Y-54566832D01*
X113894562Y-54549562D01*
X113911832Y-54533910D01*
X113930552Y-54520026D01*
X113950543Y-54508044D01*
X113971613Y-54498079D01*
X113993557Y-54490227D01*
X114016166Y-54484563D01*
X114039221Y-54481144D01*
X114062500Y-54480000D01*
X114537500Y-54480000D01*
X114560779Y-54481144D01*
G37*
G36*
X114560779Y-56231144D02*
G01*
X114583834Y-56234563D01*
X114606443Y-56240227D01*
X114628387Y-56248079D01*
X114649457Y-56258044D01*
X114669448Y-56270026D01*
X114688168Y-56283910D01*
X114705438Y-56299562D01*
X114721090Y-56316832D01*
X114734974Y-56335552D01*
X114746956Y-56355543D01*
X114756921Y-56376613D01*
X114764773Y-56398557D01*
X114770437Y-56421166D01*
X114773856Y-56444221D01*
X114775000Y-56467500D01*
X114775000Y-57042500D01*
X114773856Y-57065779D01*
X114770437Y-57088834D01*
X114764773Y-57111443D01*
X114756921Y-57133387D01*
X114746956Y-57154457D01*
X114734974Y-57174448D01*
X114721090Y-57193168D01*
X114705438Y-57210438D01*
X114688168Y-57226090D01*
X114669448Y-57239974D01*
X114649457Y-57251956D01*
X114628387Y-57261921D01*
X114606443Y-57269773D01*
X114583834Y-57275437D01*
X114560779Y-57278856D01*
X114537500Y-57280000D01*
X114062500Y-57280000D01*
X114039221Y-57278856D01*
X114016166Y-57275437D01*
X113993557Y-57269773D01*
X113971613Y-57261921D01*
X113950543Y-57251956D01*
X113930552Y-57239974D01*
X113911832Y-57226090D01*
X113894562Y-57210438D01*
X113878910Y-57193168D01*
X113865026Y-57174448D01*
X113853044Y-57154457D01*
X113843079Y-57133387D01*
X113835227Y-57111443D01*
X113829563Y-57088834D01*
X113826144Y-57065779D01*
X113825000Y-57042500D01*
X113825000Y-56467500D01*
X113826144Y-56444221D01*
X113829563Y-56421166D01*
X113835227Y-56398557D01*
X113843079Y-56376613D01*
X113853044Y-56355543D01*
X113865026Y-56335552D01*
X113878910Y-56316832D01*
X113894562Y-56299562D01*
X113911832Y-56283910D01*
X113930552Y-56270026D01*
X113950543Y-56258044D01*
X113971613Y-56248079D01*
X113993557Y-56240227D01*
X114016166Y-56234563D01*
X114039221Y-56231144D01*
X114062500Y-56230000D01*
X114537500Y-56230000D01*
X114560779Y-56231144D01*
G37*
G36*
X114560779Y-68931144D02*
G01*
X114583834Y-68934563D01*
X114606443Y-68940227D01*
X114628387Y-68948079D01*
X114649457Y-68958044D01*
X114669448Y-68970026D01*
X114688168Y-68983910D01*
X114705438Y-68999562D01*
X114721090Y-69016832D01*
X114734974Y-69035552D01*
X114746956Y-69055543D01*
X114756921Y-69076613D01*
X114764773Y-69098557D01*
X114770437Y-69121166D01*
X114773856Y-69144221D01*
X114775000Y-69167500D01*
X114775000Y-69742500D01*
X114773856Y-69765779D01*
X114770437Y-69788834D01*
X114764773Y-69811443D01*
X114756921Y-69833387D01*
X114746956Y-69854457D01*
X114734974Y-69874448D01*
X114721090Y-69893168D01*
X114705438Y-69910438D01*
X114688168Y-69926090D01*
X114669448Y-69939974D01*
X114649457Y-69951956D01*
X114628387Y-69961921D01*
X114606443Y-69969773D01*
X114583834Y-69975437D01*
X114560779Y-69978856D01*
X114537500Y-69980000D01*
X114062500Y-69980000D01*
X114039221Y-69978856D01*
X114016166Y-69975437D01*
X113993557Y-69969773D01*
X113971613Y-69961921D01*
X113950543Y-69951956D01*
X113930552Y-69939974D01*
X113911832Y-69926090D01*
X113894562Y-69910438D01*
X113878910Y-69893168D01*
X113865026Y-69874448D01*
X113853044Y-69854457D01*
X113843079Y-69833387D01*
X113835227Y-69811443D01*
X113829563Y-69788834D01*
X113826144Y-69765779D01*
X113825000Y-69742500D01*
X113825000Y-69167500D01*
X113826144Y-69144221D01*
X113829563Y-69121166D01*
X113835227Y-69098557D01*
X113843079Y-69076613D01*
X113853044Y-69055543D01*
X113865026Y-69035552D01*
X113878910Y-69016832D01*
X113894562Y-68999562D01*
X113911832Y-68983910D01*
X113930552Y-68970026D01*
X113950543Y-68958044D01*
X113971613Y-68948079D01*
X113993557Y-68940227D01*
X114016166Y-68934563D01*
X114039221Y-68931144D01*
X114062500Y-68930000D01*
X114537500Y-68930000D01*
X114560779Y-68931144D01*
G37*
G36*
X114560779Y-67181144D02*
G01*
X114583834Y-67184563D01*
X114606443Y-67190227D01*
X114628387Y-67198079D01*
X114649457Y-67208044D01*
X114669448Y-67220026D01*
X114688168Y-67233910D01*
X114705438Y-67249562D01*
X114721090Y-67266832D01*
X114734974Y-67285552D01*
X114746956Y-67305543D01*
X114756921Y-67326613D01*
X114764773Y-67348557D01*
X114770437Y-67371166D01*
X114773856Y-67394221D01*
X114775000Y-67417500D01*
X114775000Y-67992500D01*
X114773856Y-68015779D01*
X114770437Y-68038834D01*
X114764773Y-68061443D01*
X114756921Y-68083387D01*
X114746956Y-68104457D01*
X114734974Y-68124448D01*
X114721090Y-68143168D01*
X114705438Y-68160438D01*
X114688168Y-68176090D01*
X114669448Y-68189974D01*
X114649457Y-68201956D01*
X114628387Y-68211921D01*
X114606443Y-68219773D01*
X114583834Y-68225437D01*
X114560779Y-68228856D01*
X114537500Y-68230000D01*
X114062500Y-68230000D01*
X114039221Y-68228856D01*
X114016166Y-68225437D01*
X113993557Y-68219773D01*
X113971613Y-68211921D01*
X113950543Y-68201956D01*
X113930552Y-68189974D01*
X113911832Y-68176090D01*
X113894562Y-68160438D01*
X113878910Y-68143168D01*
X113865026Y-68124448D01*
X113853044Y-68104457D01*
X113843079Y-68083387D01*
X113835227Y-68061443D01*
X113829563Y-68038834D01*
X113826144Y-68015779D01*
X113825000Y-67992500D01*
X113825000Y-67417500D01*
X113826144Y-67394221D01*
X113829563Y-67371166D01*
X113835227Y-67348557D01*
X113843079Y-67326613D01*
X113853044Y-67305543D01*
X113865026Y-67285552D01*
X113878910Y-67266832D01*
X113894562Y-67249562D01*
X113911832Y-67233910D01*
X113930552Y-67220026D01*
X113950543Y-67208044D01*
X113971613Y-67198079D01*
X113993557Y-67190227D01*
X114016166Y-67184563D01*
X114039221Y-67181144D01*
X114062500Y-67180000D01*
X114537500Y-67180000D01*
X114560779Y-67181144D01*
G37*
G36*
X112020779Y-63851144D02*
G01*
X112043834Y-63854563D01*
X112066443Y-63860227D01*
X112088387Y-63868079D01*
X112109457Y-63878044D01*
X112129448Y-63890026D01*
X112148168Y-63903910D01*
X112165438Y-63919562D01*
X112181090Y-63936832D01*
X112194974Y-63955552D01*
X112206956Y-63975543D01*
X112216921Y-63996613D01*
X112224773Y-64018557D01*
X112230437Y-64041166D01*
X112233856Y-64064221D01*
X112235000Y-64087500D01*
X112235000Y-64662500D01*
X112233856Y-64685779D01*
X112230437Y-64708834D01*
X112224773Y-64731443D01*
X112216921Y-64753387D01*
X112206956Y-64774457D01*
X112194974Y-64794448D01*
X112181090Y-64813168D01*
X112165438Y-64830438D01*
X112148168Y-64846090D01*
X112129448Y-64859974D01*
X112109457Y-64871956D01*
X112088387Y-64881921D01*
X112066443Y-64889773D01*
X112043834Y-64895437D01*
X112020779Y-64898856D01*
X111997500Y-64900000D01*
X111522500Y-64900000D01*
X111499221Y-64898856D01*
X111476166Y-64895437D01*
X111453557Y-64889773D01*
X111431613Y-64881921D01*
X111410543Y-64871956D01*
X111390552Y-64859974D01*
X111371832Y-64846090D01*
X111354562Y-64830438D01*
X111338910Y-64813168D01*
X111325026Y-64794448D01*
X111313044Y-64774457D01*
X111303079Y-64753387D01*
X111295227Y-64731443D01*
X111289563Y-64708834D01*
X111286144Y-64685779D01*
X111285000Y-64662500D01*
X111285000Y-64087500D01*
X111286144Y-64064221D01*
X111289563Y-64041166D01*
X111295227Y-64018557D01*
X111303079Y-63996613D01*
X111313044Y-63975543D01*
X111325026Y-63955552D01*
X111338910Y-63936832D01*
X111354562Y-63919562D01*
X111371832Y-63903910D01*
X111390552Y-63890026D01*
X111410543Y-63878044D01*
X111431613Y-63868079D01*
X111453557Y-63860227D01*
X111476166Y-63854563D01*
X111499221Y-63851144D01*
X111522500Y-63850000D01*
X111997500Y-63850000D01*
X112020779Y-63851144D01*
G37*
G36*
X112020779Y-62101144D02*
G01*
X112043834Y-62104563D01*
X112066443Y-62110227D01*
X112088387Y-62118079D01*
X112109457Y-62128044D01*
X112129448Y-62140026D01*
X112148168Y-62153910D01*
X112165438Y-62169562D01*
X112181090Y-62186832D01*
X112194974Y-62205552D01*
X112206956Y-62225543D01*
X112216921Y-62246613D01*
X112224773Y-62268557D01*
X112230437Y-62291166D01*
X112233856Y-62314221D01*
X112235000Y-62337500D01*
X112235000Y-62912500D01*
X112233856Y-62935779D01*
X112230437Y-62958834D01*
X112224773Y-62981443D01*
X112216921Y-63003387D01*
X112206956Y-63024457D01*
X112194974Y-63044448D01*
X112181090Y-63063168D01*
X112165438Y-63080438D01*
X112148168Y-63096090D01*
X112129448Y-63109974D01*
X112109457Y-63121956D01*
X112088387Y-63131921D01*
X112066443Y-63139773D01*
X112043834Y-63145437D01*
X112020779Y-63148856D01*
X111997500Y-63150000D01*
X111522500Y-63150000D01*
X111499221Y-63148856D01*
X111476166Y-63145437D01*
X111453557Y-63139773D01*
X111431613Y-63131921D01*
X111410543Y-63121956D01*
X111390552Y-63109974D01*
X111371832Y-63096090D01*
X111354562Y-63080438D01*
X111338910Y-63063168D01*
X111325026Y-63044448D01*
X111313044Y-63024457D01*
X111303079Y-63003387D01*
X111295227Y-62981443D01*
X111289563Y-62958834D01*
X111286144Y-62935779D01*
X111285000Y-62912500D01*
X111285000Y-62337500D01*
X111286144Y-62314221D01*
X111289563Y-62291166D01*
X111295227Y-62268557D01*
X111303079Y-62246613D01*
X111313044Y-62225543D01*
X111325026Y-62205552D01*
X111338910Y-62186832D01*
X111354562Y-62169562D01*
X111371832Y-62153910D01*
X111390552Y-62140026D01*
X111410543Y-62128044D01*
X111431613Y-62118079D01*
X111453557Y-62110227D01*
X111476166Y-62104563D01*
X111499221Y-62101144D01*
X111522500Y-62100000D01*
X111997500Y-62100000D01*
X112020779Y-62101144D01*
G37*
G36*
X109480779Y-62101144D02*
G01*
X109503834Y-62104563D01*
X109526443Y-62110227D01*
X109548387Y-62118079D01*
X109569457Y-62128044D01*
X109589448Y-62140026D01*
X109608168Y-62153910D01*
X109625438Y-62169562D01*
X109641090Y-62186832D01*
X109654974Y-62205552D01*
X109666956Y-62225543D01*
X109676921Y-62246613D01*
X109684773Y-62268557D01*
X109690437Y-62291166D01*
X109693856Y-62314221D01*
X109695000Y-62337500D01*
X109695000Y-62912500D01*
X109693856Y-62935779D01*
X109690437Y-62958834D01*
X109684773Y-62981443D01*
X109676921Y-63003387D01*
X109666956Y-63024457D01*
X109654974Y-63044448D01*
X109641090Y-63063168D01*
X109625438Y-63080438D01*
X109608168Y-63096090D01*
X109589448Y-63109974D01*
X109569457Y-63121956D01*
X109548387Y-63131921D01*
X109526443Y-63139773D01*
X109503834Y-63145437D01*
X109480779Y-63148856D01*
X109457500Y-63150000D01*
X108982500Y-63150000D01*
X108959221Y-63148856D01*
X108936166Y-63145437D01*
X108913557Y-63139773D01*
X108891613Y-63131921D01*
X108870543Y-63121956D01*
X108850552Y-63109974D01*
X108831832Y-63096090D01*
X108814562Y-63080438D01*
X108798910Y-63063168D01*
X108785026Y-63044448D01*
X108773044Y-63024457D01*
X108763079Y-63003387D01*
X108755227Y-62981443D01*
X108749563Y-62958834D01*
X108746144Y-62935779D01*
X108745000Y-62912500D01*
X108745000Y-62337500D01*
X108746144Y-62314221D01*
X108749563Y-62291166D01*
X108755227Y-62268557D01*
X108763079Y-62246613D01*
X108773044Y-62225543D01*
X108785026Y-62205552D01*
X108798910Y-62186832D01*
X108814562Y-62169562D01*
X108831832Y-62153910D01*
X108850552Y-62140026D01*
X108870543Y-62128044D01*
X108891613Y-62118079D01*
X108913557Y-62110227D01*
X108936166Y-62104563D01*
X108959221Y-62101144D01*
X108982500Y-62100000D01*
X109457500Y-62100000D01*
X109480779Y-62101144D01*
G37*
G36*
X109480779Y-63851144D02*
G01*
X109503834Y-63854563D01*
X109526443Y-63860227D01*
X109548387Y-63868079D01*
X109569457Y-63878044D01*
X109589448Y-63890026D01*
X109608168Y-63903910D01*
X109625438Y-63919562D01*
X109641090Y-63936832D01*
X109654974Y-63955552D01*
X109666956Y-63975543D01*
X109676921Y-63996613D01*
X109684773Y-64018557D01*
X109690437Y-64041166D01*
X109693856Y-64064221D01*
X109695000Y-64087500D01*
X109695000Y-64662500D01*
X109693856Y-64685779D01*
X109690437Y-64708834D01*
X109684773Y-64731443D01*
X109676921Y-64753387D01*
X109666956Y-64774457D01*
X109654974Y-64794448D01*
X109641090Y-64813168D01*
X109625438Y-64830438D01*
X109608168Y-64846090D01*
X109589448Y-64859974D01*
X109569457Y-64871956D01*
X109548387Y-64881921D01*
X109526443Y-64889773D01*
X109503834Y-64895437D01*
X109480779Y-64898856D01*
X109457500Y-64900000D01*
X108982500Y-64900000D01*
X108959221Y-64898856D01*
X108936166Y-64895437D01*
X108913557Y-64889773D01*
X108891613Y-64881921D01*
X108870543Y-64871956D01*
X108850552Y-64859974D01*
X108831832Y-64846090D01*
X108814562Y-64830438D01*
X108798910Y-64813168D01*
X108785026Y-64794448D01*
X108773044Y-64774457D01*
X108763079Y-64753387D01*
X108755227Y-64731443D01*
X108749563Y-64708834D01*
X108746144Y-64685779D01*
X108745000Y-64662500D01*
X108745000Y-64087500D01*
X108746144Y-64064221D01*
X108749563Y-64041166D01*
X108755227Y-64018557D01*
X108763079Y-63996613D01*
X108773044Y-63975543D01*
X108785026Y-63955552D01*
X108798910Y-63936832D01*
X108814562Y-63919562D01*
X108831832Y-63903910D01*
X108850552Y-63890026D01*
X108870543Y-63878044D01*
X108891613Y-63868079D01*
X108913557Y-63860227D01*
X108936166Y-63854563D01*
X108959221Y-63851144D01*
X108982500Y-63850000D01*
X109457500Y-63850000D01*
X109480779Y-63851144D01*
G37*
D16*
X123700000Y-58690000D03*
X123700000Y-60690000D03*
X123700000Y-56190000D03*
X123700000Y-63190000D03*
D15*
G36*
X112020779Y-67181144D02*
G01*
X112043834Y-67184563D01*
X112066443Y-67190227D01*
X112088387Y-67198079D01*
X112109457Y-67208044D01*
X112129448Y-67220026D01*
X112148168Y-67233910D01*
X112165438Y-67249562D01*
X112181090Y-67266832D01*
X112194974Y-67285552D01*
X112206956Y-67305543D01*
X112216921Y-67326613D01*
X112224773Y-67348557D01*
X112230437Y-67371166D01*
X112233856Y-67394221D01*
X112235000Y-67417500D01*
X112235000Y-67992500D01*
X112233856Y-68015779D01*
X112230437Y-68038834D01*
X112224773Y-68061443D01*
X112216921Y-68083387D01*
X112206956Y-68104457D01*
X112194974Y-68124448D01*
X112181090Y-68143168D01*
X112165438Y-68160438D01*
X112148168Y-68176090D01*
X112129448Y-68189974D01*
X112109457Y-68201956D01*
X112088387Y-68211921D01*
X112066443Y-68219773D01*
X112043834Y-68225437D01*
X112020779Y-68228856D01*
X111997500Y-68230000D01*
X111522500Y-68230000D01*
X111499221Y-68228856D01*
X111476166Y-68225437D01*
X111453557Y-68219773D01*
X111431613Y-68211921D01*
X111410543Y-68201956D01*
X111390552Y-68189974D01*
X111371832Y-68176090D01*
X111354562Y-68160438D01*
X111338910Y-68143168D01*
X111325026Y-68124448D01*
X111313044Y-68104457D01*
X111303079Y-68083387D01*
X111295227Y-68061443D01*
X111289563Y-68038834D01*
X111286144Y-68015779D01*
X111285000Y-67992500D01*
X111285000Y-67417500D01*
X111286144Y-67394221D01*
X111289563Y-67371166D01*
X111295227Y-67348557D01*
X111303079Y-67326613D01*
X111313044Y-67305543D01*
X111325026Y-67285552D01*
X111338910Y-67266832D01*
X111354562Y-67249562D01*
X111371832Y-67233910D01*
X111390552Y-67220026D01*
X111410543Y-67208044D01*
X111431613Y-67198079D01*
X111453557Y-67190227D01*
X111476166Y-67184563D01*
X111499221Y-67181144D01*
X111522500Y-67180000D01*
X111997500Y-67180000D01*
X112020779Y-67181144D01*
G37*
G36*
X112020779Y-68931144D02*
G01*
X112043834Y-68934563D01*
X112066443Y-68940227D01*
X112088387Y-68948079D01*
X112109457Y-68958044D01*
X112129448Y-68970026D01*
X112148168Y-68983910D01*
X112165438Y-68999562D01*
X112181090Y-69016832D01*
X112194974Y-69035552D01*
X112206956Y-69055543D01*
X112216921Y-69076613D01*
X112224773Y-69098557D01*
X112230437Y-69121166D01*
X112233856Y-69144221D01*
X112235000Y-69167500D01*
X112235000Y-69742500D01*
X112233856Y-69765779D01*
X112230437Y-69788834D01*
X112224773Y-69811443D01*
X112216921Y-69833387D01*
X112206956Y-69854457D01*
X112194974Y-69874448D01*
X112181090Y-69893168D01*
X112165438Y-69910438D01*
X112148168Y-69926090D01*
X112129448Y-69939974D01*
X112109457Y-69951956D01*
X112088387Y-69961921D01*
X112066443Y-69969773D01*
X112043834Y-69975437D01*
X112020779Y-69978856D01*
X111997500Y-69980000D01*
X111522500Y-69980000D01*
X111499221Y-69978856D01*
X111476166Y-69975437D01*
X111453557Y-69969773D01*
X111431613Y-69961921D01*
X111410543Y-69951956D01*
X111390552Y-69939974D01*
X111371832Y-69926090D01*
X111354562Y-69910438D01*
X111338910Y-69893168D01*
X111325026Y-69874448D01*
X111313044Y-69854457D01*
X111303079Y-69833387D01*
X111295227Y-69811443D01*
X111289563Y-69788834D01*
X111286144Y-69765779D01*
X111285000Y-69742500D01*
X111285000Y-69167500D01*
X111286144Y-69144221D01*
X111289563Y-69121166D01*
X111295227Y-69098557D01*
X111303079Y-69076613D01*
X111313044Y-69055543D01*
X111325026Y-69035552D01*
X111338910Y-69016832D01*
X111354562Y-68999562D01*
X111371832Y-68983910D01*
X111390552Y-68970026D01*
X111410543Y-68958044D01*
X111431613Y-68948079D01*
X111453557Y-68940227D01*
X111476166Y-68934563D01*
X111499221Y-68931144D01*
X111522500Y-68930000D01*
X111997500Y-68930000D01*
X112020779Y-68931144D01*
G37*
G36*
X109480779Y-68931144D02*
G01*
X109503834Y-68934563D01*
X109526443Y-68940227D01*
X109548387Y-68948079D01*
X109569457Y-68958044D01*
X109589448Y-68970026D01*
X109608168Y-68983910D01*
X109625438Y-68999562D01*
X109641090Y-69016832D01*
X109654974Y-69035552D01*
X109666956Y-69055543D01*
X109676921Y-69076613D01*
X109684773Y-69098557D01*
X109690437Y-69121166D01*
X109693856Y-69144221D01*
X109695000Y-69167500D01*
X109695000Y-69742500D01*
X109693856Y-69765779D01*
X109690437Y-69788834D01*
X109684773Y-69811443D01*
X109676921Y-69833387D01*
X109666956Y-69854457D01*
X109654974Y-69874448D01*
X109641090Y-69893168D01*
X109625438Y-69910438D01*
X109608168Y-69926090D01*
X109589448Y-69939974D01*
X109569457Y-69951956D01*
X109548387Y-69961921D01*
X109526443Y-69969773D01*
X109503834Y-69975437D01*
X109480779Y-69978856D01*
X109457500Y-69980000D01*
X108982500Y-69980000D01*
X108959221Y-69978856D01*
X108936166Y-69975437D01*
X108913557Y-69969773D01*
X108891613Y-69961921D01*
X108870543Y-69951956D01*
X108850552Y-69939974D01*
X108831832Y-69926090D01*
X108814562Y-69910438D01*
X108798910Y-69893168D01*
X108785026Y-69874448D01*
X108773044Y-69854457D01*
X108763079Y-69833387D01*
X108755227Y-69811443D01*
X108749563Y-69788834D01*
X108746144Y-69765779D01*
X108745000Y-69742500D01*
X108745000Y-69167500D01*
X108746144Y-69144221D01*
X108749563Y-69121166D01*
X108755227Y-69098557D01*
X108763079Y-69076613D01*
X108773044Y-69055543D01*
X108785026Y-69035552D01*
X108798910Y-69016832D01*
X108814562Y-68999562D01*
X108831832Y-68983910D01*
X108850552Y-68970026D01*
X108870543Y-68958044D01*
X108891613Y-68948079D01*
X108913557Y-68940227D01*
X108936166Y-68934563D01*
X108959221Y-68931144D01*
X108982500Y-68930000D01*
X109457500Y-68930000D01*
X109480779Y-68931144D01*
G37*
G36*
X109480779Y-67181144D02*
G01*
X109503834Y-67184563D01*
X109526443Y-67190227D01*
X109548387Y-67198079D01*
X109569457Y-67208044D01*
X109589448Y-67220026D01*
X109608168Y-67233910D01*
X109625438Y-67249562D01*
X109641090Y-67266832D01*
X109654974Y-67285552D01*
X109666956Y-67305543D01*
X109676921Y-67326613D01*
X109684773Y-67348557D01*
X109690437Y-67371166D01*
X109693856Y-67394221D01*
X109695000Y-67417500D01*
X109695000Y-67992500D01*
X109693856Y-68015779D01*
X109690437Y-68038834D01*
X109684773Y-68061443D01*
X109676921Y-68083387D01*
X109666956Y-68104457D01*
X109654974Y-68124448D01*
X109641090Y-68143168D01*
X109625438Y-68160438D01*
X109608168Y-68176090D01*
X109589448Y-68189974D01*
X109569457Y-68201956D01*
X109548387Y-68211921D01*
X109526443Y-68219773D01*
X109503834Y-68225437D01*
X109480779Y-68228856D01*
X109457500Y-68230000D01*
X108982500Y-68230000D01*
X108959221Y-68228856D01*
X108936166Y-68225437D01*
X108913557Y-68219773D01*
X108891613Y-68211921D01*
X108870543Y-68201956D01*
X108850552Y-68189974D01*
X108831832Y-68176090D01*
X108814562Y-68160438D01*
X108798910Y-68143168D01*
X108785026Y-68124448D01*
X108773044Y-68104457D01*
X108763079Y-68083387D01*
X108755227Y-68061443D01*
X108749563Y-68038834D01*
X108746144Y-68015779D01*
X108745000Y-67992500D01*
X108745000Y-67417500D01*
X108746144Y-67394221D01*
X108749563Y-67371166D01*
X108755227Y-67348557D01*
X108763079Y-67326613D01*
X108773044Y-67305543D01*
X108785026Y-67285552D01*
X108798910Y-67266832D01*
X108814562Y-67249562D01*
X108831832Y-67233910D01*
X108850552Y-67220026D01*
X108870543Y-67208044D01*
X108891613Y-67198079D01*
X108913557Y-67190227D01*
X108936166Y-67184563D01*
X108959221Y-67181144D01*
X108982500Y-67180000D01*
X109457500Y-67180000D01*
X109480779Y-67181144D01*
G37*
D17*
X107950000Y-50190000D03*
D18*
X107950000Y-56490000D03*
X110250000Y-56490000D03*
X105650000Y-56490000D03*
D19*
X97739200Y-66802000D03*
X97739200Y-65532000D03*
X97739200Y-64262000D03*
X97739200Y-62992000D03*
X97739200Y-61722000D03*
X97739200Y-60452000D03*
X97739200Y-57912000D03*
X97739200Y-59182000D03*
X97739200Y-56642000D03*
X97739200Y-55372000D03*
X97739200Y-54102000D03*
X97739200Y-52832000D03*
D20*
X95859600Y-49911000D03*
X94589600Y-49911000D03*
X93319600Y-49911000D03*
X92049600Y-49911000D03*
X90779600Y-49911000D03*
X89509600Y-49911000D03*
X88239600Y-49911000D03*
X86969600Y-49911000D03*
X85699600Y-49911000D03*
X84429600Y-49911000D03*
X83159600Y-49911000D03*
X95834200Y-69824600D03*
X94564200Y-69824600D03*
X93294200Y-69824600D03*
X92024200Y-69824600D03*
X90754200Y-69824600D03*
X89484200Y-69824600D03*
X88214200Y-69824600D03*
X86944200Y-69824600D03*
X85674200Y-69824600D03*
X84404200Y-69824600D03*
X83134200Y-69824600D03*
X67818000Y-69773800D03*
X69088000Y-69773800D03*
X70358000Y-69773800D03*
D15*
G36*
X117100779Y-51151144D02*
G01*
X117123834Y-51154563D01*
X117146443Y-51160227D01*
X117168387Y-51168079D01*
X117189457Y-51178044D01*
X117209448Y-51190026D01*
X117228168Y-51203910D01*
X117245438Y-51219562D01*
X117261090Y-51236832D01*
X117274974Y-51255552D01*
X117286956Y-51275543D01*
X117296921Y-51296613D01*
X117304773Y-51318557D01*
X117310437Y-51341166D01*
X117313856Y-51364221D01*
X117315000Y-51387500D01*
X117315000Y-51962500D01*
X117313856Y-51985779D01*
X117310437Y-52008834D01*
X117304773Y-52031443D01*
X117296921Y-52053387D01*
X117286956Y-52074457D01*
X117274974Y-52094448D01*
X117261090Y-52113168D01*
X117245438Y-52130438D01*
X117228168Y-52146090D01*
X117209448Y-52159974D01*
X117189457Y-52171956D01*
X117168387Y-52181921D01*
X117146443Y-52189773D01*
X117123834Y-52195437D01*
X117100779Y-52198856D01*
X117077500Y-52200000D01*
X116602500Y-52200000D01*
X116579221Y-52198856D01*
X116556166Y-52195437D01*
X116533557Y-52189773D01*
X116511613Y-52181921D01*
X116490543Y-52171956D01*
X116470552Y-52159974D01*
X116451832Y-52146090D01*
X116434562Y-52130438D01*
X116418910Y-52113168D01*
X116405026Y-52094448D01*
X116393044Y-52074457D01*
X116383079Y-52053387D01*
X116375227Y-52031443D01*
X116369563Y-52008834D01*
X116366144Y-51985779D01*
X116365000Y-51962500D01*
X116365000Y-51387500D01*
X116366144Y-51364221D01*
X116369563Y-51341166D01*
X116375227Y-51318557D01*
X116383079Y-51296613D01*
X116393044Y-51275543D01*
X116405026Y-51255552D01*
X116418910Y-51236832D01*
X116434562Y-51219562D01*
X116451832Y-51203910D01*
X116470552Y-51190026D01*
X116490543Y-51178044D01*
X116511613Y-51168079D01*
X116533557Y-51160227D01*
X116556166Y-51154563D01*
X116579221Y-51151144D01*
X116602500Y-51150000D01*
X117077500Y-51150000D01*
X117100779Y-51151144D01*
G37*
G36*
X117100779Y-49401144D02*
G01*
X117123834Y-49404563D01*
X117146443Y-49410227D01*
X117168387Y-49418079D01*
X117189457Y-49428044D01*
X117209448Y-49440026D01*
X117228168Y-49453910D01*
X117245438Y-49469562D01*
X117261090Y-49486832D01*
X117274974Y-49505552D01*
X117286956Y-49525543D01*
X117296921Y-49546613D01*
X117304773Y-49568557D01*
X117310437Y-49591166D01*
X117313856Y-49614221D01*
X117315000Y-49637500D01*
X117315000Y-50212500D01*
X117313856Y-50235779D01*
X117310437Y-50258834D01*
X117304773Y-50281443D01*
X117296921Y-50303387D01*
X117286956Y-50324457D01*
X117274974Y-50344448D01*
X117261090Y-50363168D01*
X117245438Y-50380438D01*
X117228168Y-50396090D01*
X117209448Y-50409974D01*
X117189457Y-50421956D01*
X117168387Y-50431921D01*
X117146443Y-50439773D01*
X117123834Y-50445437D01*
X117100779Y-50448856D01*
X117077500Y-50450000D01*
X116602500Y-50450000D01*
X116579221Y-50448856D01*
X116556166Y-50445437D01*
X116533557Y-50439773D01*
X116511613Y-50431921D01*
X116490543Y-50421956D01*
X116470552Y-50409974D01*
X116451832Y-50396090D01*
X116434562Y-50380438D01*
X116418910Y-50363168D01*
X116405026Y-50344448D01*
X116393044Y-50324457D01*
X116383079Y-50303387D01*
X116375227Y-50281443D01*
X116369563Y-50258834D01*
X116366144Y-50235779D01*
X116365000Y-50212500D01*
X116365000Y-49637500D01*
X116366144Y-49614221D01*
X116369563Y-49591166D01*
X116375227Y-49568557D01*
X116383079Y-49546613D01*
X116393044Y-49525543D01*
X116405026Y-49505552D01*
X116418910Y-49486832D01*
X116434562Y-49469562D01*
X116451832Y-49453910D01*
X116470552Y-49440026D01*
X116490543Y-49428044D01*
X116511613Y-49418079D01*
X116533557Y-49410227D01*
X116556166Y-49404563D01*
X116579221Y-49401144D01*
X116602500Y-49400000D01*
X117077500Y-49400000D01*
X117100779Y-49401144D01*
G37*
G36*
X114560779Y-49401144D02*
G01*
X114583834Y-49404563D01*
X114606443Y-49410227D01*
X114628387Y-49418079D01*
X114649457Y-49428044D01*
X114669448Y-49440026D01*
X114688168Y-49453910D01*
X114705438Y-49469562D01*
X114721090Y-49486832D01*
X114734974Y-49505552D01*
X114746956Y-49525543D01*
X114756921Y-49546613D01*
X114764773Y-49568557D01*
X114770437Y-49591166D01*
X114773856Y-49614221D01*
X114775000Y-49637500D01*
X114775000Y-50212500D01*
X114773856Y-50235779D01*
X114770437Y-50258834D01*
X114764773Y-50281443D01*
X114756921Y-50303387D01*
X114746956Y-50324457D01*
X114734974Y-50344448D01*
X114721090Y-50363168D01*
X114705438Y-50380438D01*
X114688168Y-50396090D01*
X114669448Y-50409974D01*
X114649457Y-50421956D01*
X114628387Y-50431921D01*
X114606443Y-50439773D01*
X114583834Y-50445437D01*
X114560779Y-50448856D01*
X114537500Y-50450000D01*
X114062500Y-50450000D01*
X114039221Y-50448856D01*
X114016166Y-50445437D01*
X113993557Y-50439773D01*
X113971613Y-50431921D01*
X113950543Y-50421956D01*
X113930552Y-50409974D01*
X113911832Y-50396090D01*
X113894562Y-50380438D01*
X113878910Y-50363168D01*
X113865026Y-50344448D01*
X113853044Y-50324457D01*
X113843079Y-50303387D01*
X113835227Y-50281443D01*
X113829563Y-50258834D01*
X113826144Y-50235779D01*
X113825000Y-50212500D01*
X113825000Y-49637500D01*
X113826144Y-49614221D01*
X113829563Y-49591166D01*
X113835227Y-49568557D01*
X113843079Y-49546613D01*
X113853044Y-49525543D01*
X113865026Y-49505552D01*
X113878910Y-49486832D01*
X113894562Y-49469562D01*
X113911832Y-49453910D01*
X113930552Y-49440026D01*
X113950543Y-49428044D01*
X113971613Y-49418079D01*
X113993557Y-49410227D01*
X114016166Y-49404563D01*
X114039221Y-49401144D01*
X114062500Y-49400000D01*
X114537500Y-49400000D01*
X114560779Y-49401144D01*
G37*
G36*
X114560779Y-51151144D02*
G01*
X114583834Y-51154563D01*
X114606443Y-51160227D01*
X114628387Y-51168079D01*
X114649457Y-51178044D01*
X114669448Y-51190026D01*
X114688168Y-51203910D01*
X114705438Y-51219562D01*
X114721090Y-51236832D01*
X114734974Y-51255552D01*
X114746956Y-51275543D01*
X114756921Y-51296613D01*
X114764773Y-51318557D01*
X114770437Y-51341166D01*
X114773856Y-51364221D01*
X114775000Y-51387500D01*
X114775000Y-51962500D01*
X114773856Y-51985779D01*
X114770437Y-52008834D01*
X114764773Y-52031443D01*
X114756921Y-52053387D01*
X114746956Y-52074457D01*
X114734974Y-52094448D01*
X114721090Y-52113168D01*
X114705438Y-52130438D01*
X114688168Y-52146090D01*
X114669448Y-52159974D01*
X114649457Y-52171956D01*
X114628387Y-52181921D01*
X114606443Y-52189773D01*
X114583834Y-52195437D01*
X114560779Y-52198856D01*
X114537500Y-52200000D01*
X114062500Y-52200000D01*
X114039221Y-52198856D01*
X114016166Y-52195437D01*
X113993557Y-52189773D01*
X113971613Y-52181921D01*
X113950543Y-52171956D01*
X113930552Y-52159974D01*
X113911832Y-52146090D01*
X113894562Y-52130438D01*
X113878910Y-52113168D01*
X113865026Y-52094448D01*
X113853044Y-52074457D01*
X113843079Y-52053387D01*
X113835227Y-52031443D01*
X113829563Y-52008834D01*
X113826144Y-51985779D01*
X113825000Y-51962500D01*
X113825000Y-51387500D01*
X113826144Y-51364221D01*
X113829563Y-51341166D01*
X113835227Y-51318557D01*
X113843079Y-51296613D01*
X113853044Y-51275543D01*
X113865026Y-51255552D01*
X113878910Y-51236832D01*
X113894562Y-51219562D01*
X113911832Y-51203910D01*
X113930552Y-51190026D01*
X113950543Y-51178044D01*
X113971613Y-51168079D01*
X113993557Y-51160227D01*
X114016166Y-51154563D01*
X114039221Y-51151144D01*
X114062500Y-51150000D01*
X114537500Y-51150000D01*
X114560779Y-51151144D01*
G37*
G36*
X101860779Y-50671144D02*
G01*
X101883834Y-50674563D01*
X101906443Y-50680227D01*
X101928387Y-50688079D01*
X101949457Y-50698044D01*
X101969448Y-50710026D01*
X101988168Y-50723910D01*
X102005438Y-50739562D01*
X102021090Y-50756832D01*
X102034974Y-50775552D01*
X102046956Y-50795543D01*
X102056921Y-50816613D01*
X102064773Y-50838557D01*
X102070437Y-50861166D01*
X102073856Y-50884221D01*
X102075000Y-50907500D01*
X102075000Y-51482500D01*
X102073856Y-51505779D01*
X102070437Y-51528834D01*
X102064773Y-51551443D01*
X102056921Y-51573387D01*
X102046956Y-51594457D01*
X102034974Y-51614448D01*
X102021090Y-51633168D01*
X102005438Y-51650438D01*
X101988168Y-51666090D01*
X101969448Y-51679974D01*
X101949457Y-51691956D01*
X101928387Y-51701921D01*
X101906443Y-51709773D01*
X101883834Y-51715437D01*
X101860779Y-51718856D01*
X101837500Y-51720000D01*
X101362500Y-51720000D01*
X101339221Y-51718856D01*
X101316166Y-51715437D01*
X101293557Y-51709773D01*
X101271613Y-51701921D01*
X101250543Y-51691956D01*
X101230552Y-51679974D01*
X101211832Y-51666090D01*
X101194562Y-51650438D01*
X101178910Y-51633168D01*
X101165026Y-51614448D01*
X101153044Y-51594457D01*
X101143079Y-51573387D01*
X101135227Y-51551443D01*
X101129563Y-51528834D01*
X101126144Y-51505779D01*
X101125000Y-51482500D01*
X101125000Y-50907500D01*
X101126144Y-50884221D01*
X101129563Y-50861166D01*
X101135227Y-50838557D01*
X101143079Y-50816613D01*
X101153044Y-50795543D01*
X101165026Y-50775552D01*
X101178910Y-50756832D01*
X101194562Y-50739562D01*
X101211832Y-50723910D01*
X101230552Y-50710026D01*
X101250543Y-50698044D01*
X101271613Y-50688079D01*
X101293557Y-50680227D01*
X101316166Y-50674563D01*
X101339221Y-50671144D01*
X101362500Y-50670000D01*
X101837500Y-50670000D01*
X101860779Y-50671144D01*
G37*
G36*
X101860779Y-52421144D02*
G01*
X101883834Y-52424563D01*
X101906443Y-52430227D01*
X101928387Y-52438079D01*
X101949457Y-52448044D01*
X101969448Y-52460026D01*
X101988168Y-52473910D01*
X102005438Y-52489562D01*
X102021090Y-52506832D01*
X102034974Y-52525552D01*
X102046956Y-52545543D01*
X102056921Y-52566613D01*
X102064773Y-52588557D01*
X102070437Y-52611166D01*
X102073856Y-52634221D01*
X102075000Y-52657500D01*
X102075000Y-53232500D01*
X102073856Y-53255779D01*
X102070437Y-53278834D01*
X102064773Y-53301443D01*
X102056921Y-53323387D01*
X102046956Y-53344457D01*
X102034974Y-53364448D01*
X102021090Y-53383168D01*
X102005438Y-53400438D01*
X101988168Y-53416090D01*
X101969448Y-53429974D01*
X101949457Y-53441956D01*
X101928387Y-53451921D01*
X101906443Y-53459773D01*
X101883834Y-53465437D01*
X101860779Y-53468856D01*
X101837500Y-53470000D01*
X101362500Y-53470000D01*
X101339221Y-53468856D01*
X101316166Y-53465437D01*
X101293557Y-53459773D01*
X101271613Y-53451921D01*
X101250543Y-53441956D01*
X101230552Y-53429974D01*
X101211832Y-53416090D01*
X101194562Y-53400438D01*
X101178910Y-53383168D01*
X101165026Y-53364448D01*
X101153044Y-53344457D01*
X101143079Y-53323387D01*
X101135227Y-53301443D01*
X101129563Y-53278834D01*
X101126144Y-53255779D01*
X101125000Y-53232500D01*
X101125000Y-52657500D01*
X101126144Y-52634221D01*
X101129563Y-52611166D01*
X101135227Y-52588557D01*
X101143079Y-52566613D01*
X101153044Y-52545543D01*
X101165026Y-52525552D01*
X101178910Y-52506832D01*
X101194562Y-52489562D01*
X101211832Y-52473910D01*
X101230552Y-52460026D01*
X101250543Y-52448044D01*
X101271613Y-52438079D01*
X101293557Y-52430227D01*
X101316166Y-52424563D01*
X101339221Y-52421144D01*
X101362500Y-52420000D01*
X101837500Y-52420000D01*
X101860779Y-52421144D01*
G37*
M02*
