G04 #@! TF.GenerationSoftware,KiCad,Pcbnew,(5.1.5)-3*
G04 #@! TF.CreationDate,2020-03-31T21:34:46+02:00*
G04 #@! TF.ProjectId,cc1352P-dongle,63633133-3532-4502-9d64-6f6e676c652e,rev?*
G04 #@! TF.SameCoordinates,Original*
G04 #@! TF.FileFunction,Legend,Top*
G04 #@! TF.FilePolarity,Positive*
%FSLAX46Y46*%
G04 Gerber Fmt 4.6, Leading zero omitted, Abs format (unit mm)*
G04 Created by KiCad (PCBNEW (5.1.5)-3) date 2020-03-31 21:34:46*
%MOMM*%
%LPD*%
G04 APERTURE LIST*
%ADD10C,0.100000*%
%ADD11C,0.150000*%
%ADD12C,0.120000*%
G04 APERTURE END LIST*
D10*
X102063809Y-68215714D02*
X102025714Y-68253809D01*
X101911428Y-68291904D01*
X101835238Y-68291904D01*
X101720952Y-68253809D01*
X101644761Y-68177619D01*
X101606666Y-68101428D01*
X101568571Y-67949047D01*
X101568571Y-67834761D01*
X101606666Y-67682380D01*
X101644761Y-67606190D01*
X101720952Y-67530000D01*
X101835238Y-67491904D01*
X101911428Y-67491904D01*
X102025714Y-67530000D01*
X102063809Y-67568095D01*
X102863809Y-68215714D02*
X102825714Y-68253809D01*
X102711428Y-68291904D01*
X102635238Y-68291904D01*
X102520952Y-68253809D01*
X102444761Y-68177619D01*
X102406666Y-68101428D01*
X102368571Y-67949047D01*
X102368571Y-67834761D01*
X102406666Y-67682380D01*
X102444761Y-67606190D01*
X102520952Y-67530000D01*
X102635238Y-67491904D01*
X102711428Y-67491904D01*
X102825714Y-67530000D01*
X102863809Y-67568095D01*
X103625714Y-68291904D02*
X103168571Y-68291904D01*
X103397142Y-68291904D02*
X103397142Y-67491904D01*
X103320952Y-67606190D01*
X103244761Y-67682380D01*
X103168571Y-67720476D01*
X103892380Y-67491904D02*
X104387619Y-67491904D01*
X104120952Y-67796666D01*
X104235238Y-67796666D01*
X104311428Y-67834761D01*
X104349523Y-67872857D01*
X104387619Y-67949047D01*
X104387619Y-68139523D01*
X104349523Y-68215714D01*
X104311428Y-68253809D01*
X104235238Y-68291904D01*
X104006666Y-68291904D01*
X103930476Y-68253809D01*
X103892380Y-68215714D01*
X105111428Y-67491904D02*
X104730476Y-67491904D01*
X104692380Y-67872857D01*
X104730476Y-67834761D01*
X104806666Y-67796666D01*
X104997142Y-67796666D01*
X105073333Y-67834761D01*
X105111428Y-67872857D01*
X105149523Y-67949047D01*
X105149523Y-68139523D01*
X105111428Y-68215714D01*
X105073333Y-68253809D01*
X104997142Y-68291904D01*
X104806666Y-68291904D01*
X104730476Y-68253809D01*
X104692380Y-68215714D01*
X105454285Y-67568095D02*
X105492380Y-67530000D01*
X105568571Y-67491904D01*
X105759047Y-67491904D01*
X105835238Y-67530000D01*
X105873333Y-67568095D01*
X105911428Y-67644285D01*
X105911428Y-67720476D01*
X105873333Y-67834761D01*
X105416190Y-68291904D01*
X105911428Y-68291904D01*
X106254285Y-68291904D02*
X106254285Y-67491904D01*
X106559047Y-67491904D01*
X106635238Y-67530000D01*
X106673333Y-67568095D01*
X106711428Y-67644285D01*
X106711428Y-67758571D01*
X106673333Y-67834761D01*
X106635238Y-67872857D01*
X106559047Y-67910952D01*
X106254285Y-67910952D01*
X100825714Y-68791904D02*
X100825714Y-69439523D01*
X100863809Y-69515714D01*
X100901904Y-69553809D01*
X100978095Y-69591904D01*
X101130476Y-69591904D01*
X101206666Y-69553809D01*
X101244761Y-69515714D01*
X101282857Y-69439523D01*
X101282857Y-68791904D01*
X101625714Y-69553809D02*
X101740000Y-69591904D01*
X101930476Y-69591904D01*
X102006666Y-69553809D01*
X102044761Y-69515714D01*
X102082857Y-69439523D01*
X102082857Y-69363333D01*
X102044761Y-69287142D01*
X102006666Y-69249047D01*
X101930476Y-69210952D01*
X101778095Y-69172857D01*
X101701904Y-69134761D01*
X101663809Y-69096666D01*
X101625714Y-69020476D01*
X101625714Y-68944285D01*
X101663809Y-68868095D01*
X101701904Y-68830000D01*
X101778095Y-68791904D01*
X101968571Y-68791904D01*
X102082857Y-68830000D01*
X102692380Y-69172857D02*
X102806666Y-69210952D01*
X102844761Y-69249047D01*
X102882857Y-69325238D01*
X102882857Y-69439523D01*
X102844761Y-69515714D01*
X102806666Y-69553809D01*
X102730476Y-69591904D01*
X102425714Y-69591904D01*
X102425714Y-68791904D01*
X102692380Y-68791904D01*
X102768571Y-68830000D01*
X102806666Y-68868095D01*
X102844761Y-68944285D01*
X102844761Y-69020476D01*
X102806666Y-69096666D01*
X102768571Y-69134761D01*
X102692380Y-69172857D01*
X102425714Y-69172857D01*
X104178095Y-69591904D02*
X104178095Y-68791904D01*
X104178095Y-69553809D02*
X104101904Y-69591904D01*
X103949523Y-69591904D01*
X103873333Y-69553809D01*
X103835238Y-69515714D01*
X103797142Y-69439523D01*
X103797142Y-69210952D01*
X103835238Y-69134761D01*
X103873333Y-69096666D01*
X103949523Y-69058571D01*
X104101904Y-69058571D01*
X104178095Y-69096666D01*
X104673333Y-69591904D02*
X104597142Y-69553809D01*
X104559047Y-69515714D01*
X104520952Y-69439523D01*
X104520952Y-69210952D01*
X104559047Y-69134761D01*
X104597142Y-69096666D01*
X104673333Y-69058571D01*
X104787619Y-69058571D01*
X104863809Y-69096666D01*
X104901904Y-69134761D01*
X104940000Y-69210952D01*
X104940000Y-69439523D01*
X104901904Y-69515714D01*
X104863809Y-69553809D01*
X104787619Y-69591904D01*
X104673333Y-69591904D01*
X105282857Y-69058571D02*
X105282857Y-69591904D01*
X105282857Y-69134761D02*
X105320952Y-69096666D01*
X105397142Y-69058571D01*
X105511428Y-69058571D01*
X105587619Y-69096666D01*
X105625714Y-69172857D01*
X105625714Y-69591904D01*
X106349523Y-69058571D02*
X106349523Y-69706190D01*
X106311428Y-69782380D01*
X106273333Y-69820476D01*
X106197142Y-69858571D01*
X106082857Y-69858571D01*
X106006666Y-69820476D01*
X106349523Y-69553809D02*
X106273333Y-69591904D01*
X106120952Y-69591904D01*
X106044761Y-69553809D01*
X106006666Y-69515714D01*
X105968571Y-69439523D01*
X105968571Y-69210952D01*
X106006666Y-69134761D01*
X106044761Y-69096666D01*
X106120952Y-69058571D01*
X106273333Y-69058571D01*
X106349523Y-69096666D01*
X106844761Y-69591904D02*
X106768571Y-69553809D01*
X106730476Y-69477619D01*
X106730476Y-68791904D01*
X107454285Y-69553809D02*
X107378095Y-69591904D01*
X107225714Y-69591904D01*
X107149523Y-69553809D01*
X107111428Y-69477619D01*
X107111428Y-69172857D01*
X107149523Y-69096666D01*
X107225714Y-69058571D01*
X107378095Y-69058571D01*
X107454285Y-69096666D01*
X107492380Y-69172857D01*
X107492380Y-69249047D01*
X107111428Y-69325238D01*
X106222857Y-63200000D02*
X106165714Y-63171428D01*
X106080000Y-63171428D01*
X105994285Y-63200000D01*
X105937142Y-63257142D01*
X105908571Y-63314285D01*
X105880000Y-63428571D01*
X105880000Y-63514285D01*
X105908571Y-63628571D01*
X105937142Y-63685714D01*
X105994285Y-63742857D01*
X106080000Y-63771428D01*
X106137142Y-63771428D01*
X106222857Y-63742857D01*
X106251428Y-63714285D01*
X106251428Y-63514285D01*
X106137142Y-63514285D01*
X106508571Y-63771428D02*
X106508571Y-63171428D01*
X106851428Y-63771428D01*
X106851428Y-63171428D01*
X107137142Y-63771428D02*
X107137142Y-63171428D01*
X107280000Y-63171428D01*
X107365714Y-63200000D01*
X107422857Y-63257142D01*
X107451428Y-63314285D01*
X107480000Y-63428571D01*
X107480000Y-63514285D01*
X107451428Y-63628571D01*
X107422857Y-63685714D01*
X107365714Y-63742857D01*
X107280000Y-63771428D01*
X107137142Y-63771428D01*
X105937142Y-64441428D02*
X106308571Y-64441428D01*
X106108571Y-64670000D01*
X106194285Y-64670000D01*
X106251428Y-64698571D01*
X106280000Y-64727142D01*
X106308571Y-64784285D01*
X106308571Y-64927142D01*
X106280000Y-64984285D01*
X106251428Y-65012857D01*
X106194285Y-65041428D01*
X106022857Y-65041428D01*
X105965714Y-65012857D01*
X105937142Y-64984285D01*
X106480000Y-64441428D02*
X106680000Y-65041428D01*
X106880000Y-64441428D01*
X107022857Y-64441428D02*
X107394285Y-64441428D01*
X107194285Y-64670000D01*
X107280000Y-64670000D01*
X107337142Y-64698571D01*
X107365714Y-64727142D01*
X107394285Y-64784285D01*
X107394285Y-64927142D01*
X107365714Y-64984285D01*
X107337142Y-65012857D01*
X107280000Y-65041428D01*
X107108571Y-65041428D01*
X107051428Y-65012857D01*
X107022857Y-64984285D01*
X99030000Y-62472857D02*
X99115714Y-62501428D01*
X99258571Y-62501428D01*
X99315714Y-62472857D01*
X99344285Y-62444285D01*
X99372857Y-62387142D01*
X99372857Y-62330000D01*
X99344285Y-62272857D01*
X99315714Y-62244285D01*
X99258571Y-62215714D01*
X99144285Y-62187142D01*
X99087142Y-62158571D01*
X99058571Y-62130000D01*
X99030000Y-62072857D01*
X99030000Y-62015714D01*
X99058571Y-61958571D01*
X99087142Y-61930000D01*
X99144285Y-61901428D01*
X99287142Y-61901428D01*
X99372857Y-61930000D01*
X99972857Y-62501428D02*
X99772857Y-62215714D01*
X99630000Y-62501428D02*
X99630000Y-61901428D01*
X99858571Y-61901428D01*
X99915714Y-61930000D01*
X99944285Y-61958571D01*
X99972857Y-62015714D01*
X99972857Y-62101428D01*
X99944285Y-62158571D01*
X99915714Y-62187142D01*
X99858571Y-62215714D01*
X99630000Y-62215714D01*
X100201428Y-62472857D02*
X100287142Y-62501428D01*
X100430000Y-62501428D01*
X100487142Y-62472857D01*
X100515714Y-62444285D01*
X100544285Y-62387142D01*
X100544285Y-62330000D01*
X100515714Y-62272857D01*
X100487142Y-62244285D01*
X100430000Y-62215714D01*
X100315714Y-62187142D01*
X100258571Y-62158571D01*
X100230000Y-62130000D01*
X100201428Y-62072857D01*
X100201428Y-62015714D01*
X100230000Y-61958571D01*
X100258571Y-61930000D01*
X100315714Y-61901428D01*
X100458571Y-61901428D01*
X100544285Y-61930000D01*
X100715714Y-61901428D02*
X101058571Y-61901428D01*
X100887142Y-62501428D02*
X100887142Y-61901428D01*
X101258571Y-62501428D02*
X101258571Y-61901428D01*
X101601428Y-62501428D01*
X101601428Y-61901428D01*
X99530000Y-64441428D02*
X99872857Y-64441428D01*
X99701428Y-65041428D02*
X99701428Y-64441428D01*
X100072857Y-65041428D02*
X100072857Y-64441428D01*
X100272857Y-64870000D01*
X100472857Y-64441428D01*
X100472857Y-65041428D01*
X100730000Y-65012857D02*
X100815714Y-65041428D01*
X100958571Y-65041428D01*
X101015714Y-65012857D01*
X101044285Y-64984285D01*
X101072857Y-64927142D01*
X101072857Y-64870000D01*
X101044285Y-64812857D01*
X101015714Y-64784285D01*
X100958571Y-64755714D01*
X100844285Y-64727142D01*
X100787142Y-64698571D01*
X100758571Y-64670000D01*
X100730000Y-64612857D01*
X100730000Y-64555714D01*
X100758571Y-64498571D01*
X100787142Y-64470000D01*
X100844285Y-64441428D01*
X100987142Y-64441428D01*
X101072857Y-64470000D01*
X99558571Y-63171428D02*
X99901428Y-63171428D01*
X99730000Y-63771428D02*
X99730000Y-63171428D01*
X100444285Y-63714285D02*
X100415714Y-63742857D01*
X100330000Y-63771428D01*
X100272857Y-63771428D01*
X100187142Y-63742857D01*
X100130000Y-63685714D01*
X100101428Y-63628571D01*
X100072857Y-63514285D01*
X100072857Y-63428571D01*
X100101428Y-63314285D01*
X100130000Y-63257142D01*
X100187142Y-63200000D01*
X100272857Y-63171428D01*
X100330000Y-63171428D01*
X100415714Y-63200000D01*
X100444285Y-63228571D01*
X100701428Y-63771428D02*
X100701428Y-63171428D01*
X101044285Y-63771428D02*
X100787142Y-63428571D01*
X101044285Y-63171428D02*
X100701428Y-63514285D01*
X99060000Y-58420000D02*
X99060000Y-55880000D01*
X101600000Y-58420000D02*
X99060000Y-58420000D01*
X101600000Y-55880000D02*
X101600000Y-58420000D01*
X99060000Y-55880000D02*
X101600000Y-55880000D01*
X99996666Y-56026190D02*
X99901428Y-56026190D01*
X99853809Y-56050000D01*
X99830000Y-56073809D01*
X99782380Y-56145238D01*
X99758571Y-56240476D01*
X99758571Y-56430952D01*
X99782380Y-56478571D01*
X99806190Y-56502380D01*
X99853809Y-56526190D01*
X99949047Y-56526190D01*
X99996666Y-56502380D01*
X100020476Y-56478571D01*
X100044285Y-56430952D01*
X100044285Y-56311904D01*
X100020476Y-56264285D01*
X99996666Y-56240476D01*
X99949047Y-56216666D01*
X99853809Y-56216666D01*
X99806190Y-56240476D01*
X99782380Y-56264285D01*
X99758571Y-56311904D01*
X100877619Y-56026190D02*
X100639523Y-56026190D01*
X100615714Y-56264285D01*
X100639523Y-56240476D01*
X100687142Y-56216666D01*
X100806190Y-56216666D01*
X100853809Y-56240476D01*
X100877619Y-56264285D01*
X100901428Y-56311904D01*
X100901428Y-56430952D01*
X100877619Y-56478571D01*
X100853809Y-56502380D01*
X100806190Y-56526190D01*
X100687142Y-56526190D01*
X100639523Y-56502380D01*
X100615714Y-56478571D01*
X99996666Y-57042857D02*
X99996666Y-57376190D01*
X99877619Y-56852380D02*
X99758571Y-57209523D01*
X100068095Y-57209523D01*
X100591904Y-56876190D02*
X100901428Y-56876190D01*
X100734761Y-57066666D01*
X100806190Y-57066666D01*
X100853809Y-57090476D01*
X100877619Y-57114285D01*
X100901428Y-57161904D01*
X100901428Y-57280952D01*
X100877619Y-57328571D01*
X100853809Y-57352380D01*
X100806190Y-57376190D01*
X100663333Y-57376190D01*
X100615714Y-57352380D01*
X100591904Y-57328571D01*
X99758571Y-57773809D02*
X99782380Y-57750000D01*
X99830000Y-57726190D01*
X99949047Y-57726190D01*
X99996666Y-57750000D01*
X100020476Y-57773809D01*
X100044285Y-57821428D01*
X100044285Y-57869047D01*
X100020476Y-57940476D01*
X99734761Y-58226190D01*
X100044285Y-58226190D01*
X100901428Y-58226190D02*
X100615714Y-58226190D01*
X100758571Y-58226190D02*
X100758571Y-57726190D01*
X100710952Y-57797619D01*
X100663333Y-57845238D01*
X100615714Y-57869047D01*
D11*
X66040000Y-71120000D02*
X66040000Y-48260000D01*
X129540000Y-71120000D02*
X66040000Y-71120000D01*
X129540000Y-48260000D02*
X129540000Y-71120000D01*
X66040000Y-48260000D02*
X129540000Y-48260000D01*
D12*
X105270000Y-65530000D02*
X104140000Y-65530000D01*
X105270000Y-64770000D02*
X105270000Y-65530000D01*
X102562470Y-65465000D02*
X101740000Y-65465000D01*
X103380000Y-65465000D02*
X103177530Y-65465000D01*
X103380000Y-65333471D02*
X103380000Y-65465000D01*
X103380000Y-64063471D02*
X103380000Y-64206529D01*
X103576529Y-64010000D02*
X103433471Y-64010000D01*
X105270000Y-64010000D02*
X104703471Y-64010000D01*
X101740000Y-65465000D02*
X101740000Y-61535000D01*
X105270000Y-64010000D02*
X105270000Y-61535000D01*
X103832470Y-61535000D02*
X103177530Y-61535000D01*
X102562470Y-61535000D02*
X101740000Y-61535000D01*
X105270000Y-61535000D02*
X104447530Y-61535000D01*
D11*
X119560000Y-64365000D02*
X119560000Y-63140000D01*
X116435000Y-64365000D02*
X116435000Y-67715000D01*
X119785000Y-64365000D02*
X119785000Y-67715000D01*
X116435000Y-64365000D02*
X116735000Y-64365000D01*
X116435000Y-67715000D02*
X116735000Y-67715000D01*
X119785000Y-67715000D02*
X119485000Y-67715000D01*
X119785000Y-64365000D02*
X119560000Y-64365000D01*
D12*
X123570000Y-49400000D02*
X123570000Y-49700000D01*
X120270000Y-49400000D02*
X123570000Y-49400000D01*
X120270000Y-49700000D02*
X120270000Y-49400000D01*
X123570000Y-52200000D02*
X123570000Y-51900000D01*
X120270000Y-52200000D02*
X123570000Y-52200000D01*
X120270000Y-51900000D02*
X120270000Y-52200000D01*
X116560000Y-58490000D02*
X116560000Y-61440000D01*
X119660000Y-60890000D02*
X119660000Y-58490000D01*
X114810000Y-56051267D02*
X114810000Y-55708733D01*
X113790000Y-56051267D02*
X113790000Y-55708733D01*
X113790000Y-68408733D02*
X113790000Y-68751267D01*
X114810000Y-68408733D02*
X114810000Y-68751267D01*
X111025000Y-62700000D02*
X111025000Y-65160000D01*
X111025000Y-65160000D02*
X112495000Y-65160000D01*
X112495000Y-65160000D02*
X112495000Y-62700000D01*
X109955000Y-65160000D02*
X109955000Y-62700000D01*
X108485000Y-65160000D02*
X109955000Y-65160000D01*
X108485000Y-62700000D02*
X108485000Y-65160000D01*
X125330000Y-55290000D02*
X125330000Y-64090000D01*
X128500000Y-53545000D02*
X129550000Y-53545000D01*
X128500000Y-65835000D02*
X129550000Y-65835000D01*
X112270000Y-68408733D02*
X112270000Y-68751267D01*
X111250000Y-68408733D02*
X111250000Y-68751267D01*
X108710000Y-68408733D02*
X108710000Y-68751267D01*
X109730000Y-68408733D02*
X109730000Y-68751267D01*
X111360000Y-51430000D02*
X110100000Y-51430000D01*
X104540000Y-51430000D02*
X105800000Y-51430000D01*
X111360000Y-55190000D02*
X111360000Y-51430000D01*
X104540000Y-57440000D02*
X104540000Y-51430000D01*
D11*
X67310000Y-69773800D02*
X67310000Y-49885600D01*
X67310000Y-49885600D02*
X97790000Y-49885600D01*
X97790000Y-49885600D02*
X97790000Y-69773800D01*
X97790000Y-69773800D02*
X67310000Y-69773800D01*
D12*
X116330000Y-50971267D02*
X116330000Y-50628733D01*
X117350000Y-50971267D02*
X117350000Y-50628733D01*
X114810000Y-50628733D02*
X114810000Y-50971267D01*
X113790000Y-50628733D02*
X113790000Y-50971267D01*
X102110000Y-51898733D02*
X102110000Y-52241267D01*
X101090000Y-51898733D02*
X101090000Y-52241267D01*
D11*
X103806666Y-60412380D02*
X103806666Y-61126666D01*
X103759047Y-61269523D01*
X103663809Y-61364761D01*
X103520952Y-61412380D01*
X103425714Y-61412380D01*
X104235238Y-60507619D02*
X104282857Y-60460000D01*
X104378095Y-60412380D01*
X104616190Y-60412380D01*
X104711428Y-60460000D01*
X104759047Y-60507619D01*
X104806666Y-60602857D01*
X104806666Y-60698095D01*
X104759047Y-60840952D01*
X104187619Y-61412380D01*
X104806666Y-61412380D01*
X120162380Y-66801904D02*
X120971904Y-66801904D01*
X121067142Y-66754285D01*
X121114761Y-66706666D01*
X121162380Y-66611428D01*
X121162380Y-66420952D01*
X121114761Y-66325714D01*
X121067142Y-66278095D01*
X120971904Y-66230476D01*
X120162380Y-66230476D01*
X120257619Y-65801904D02*
X120210000Y-65754285D01*
X120162380Y-65659047D01*
X120162380Y-65420952D01*
X120210000Y-65325714D01*
X120257619Y-65278095D01*
X120352857Y-65230476D01*
X120448095Y-65230476D01*
X120590952Y-65278095D01*
X121162380Y-65849523D01*
X121162380Y-65230476D01*
X120586666Y-53744761D02*
X120729523Y-53792380D01*
X120967619Y-53792380D01*
X121062857Y-53744761D01*
X121110476Y-53697142D01*
X121158095Y-53601904D01*
X121158095Y-53506666D01*
X121110476Y-53411428D01*
X121062857Y-53363809D01*
X120967619Y-53316190D01*
X120777142Y-53268571D01*
X120681904Y-53220952D01*
X120634285Y-53173333D01*
X120586666Y-53078095D01*
X120586666Y-52982857D01*
X120634285Y-52887619D01*
X120681904Y-52840000D01*
X120777142Y-52792380D01*
X121015238Y-52792380D01*
X121158095Y-52840000D01*
X121491428Y-52792380D02*
X121729523Y-53792380D01*
X121920000Y-53078095D01*
X122110476Y-53792380D01*
X122348571Y-52792380D01*
X123253333Y-53792380D02*
X122681904Y-53792380D01*
X122967619Y-53792380D02*
X122967619Y-52792380D01*
X122872380Y-52935238D01*
X122777142Y-53030476D01*
X122681904Y-53078095D01*
X121102380Y-60428095D02*
X120102380Y-60428095D01*
X120102380Y-60190000D01*
X120150000Y-60047142D01*
X120245238Y-59951904D01*
X120340476Y-59904285D01*
X120530952Y-59856666D01*
X120673809Y-59856666D01*
X120864285Y-59904285D01*
X120959523Y-59951904D01*
X121054761Y-60047142D01*
X121102380Y-60190000D01*
X121102380Y-60428095D01*
X120102380Y-59523333D02*
X120102380Y-58904285D01*
X120483333Y-59237619D01*
X120483333Y-59094761D01*
X120530952Y-58999523D01*
X120578571Y-58951904D01*
X120673809Y-58904285D01*
X120911904Y-58904285D01*
X121007142Y-58951904D01*
X121054761Y-58999523D01*
X121102380Y-59094761D01*
X121102380Y-59380476D01*
X121054761Y-59475714D01*
X121007142Y-59523333D01*
X114657142Y-58586666D02*
X114704761Y-58634285D01*
X114752380Y-58777142D01*
X114752380Y-58872380D01*
X114704761Y-59015238D01*
X114609523Y-59110476D01*
X114514285Y-59158095D01*
X114323809Y-59205714D01*
X114180952Y-59205714D01*
X113990476Y-59158095D01*
X113895238Y-59110476D01*
X113800000Y-59015238D01*
X113752380Y-58872380D01*
X113752380Y-58777142D01*
X113800000Y-58634285D01*
X113847619Y-58586666D01*
X114752380Y-57634285D02*
X114752380Y-58205714D01*
X114752380Y-57920000D02*
X113752380Y-57920000D01*
X113895238Y-58015238D01*
X113990476Y-58110476D01*
X114038095Y-58205714D01*
X115927142Y-68746666D02*
X115974761Y-68794285D01*
X116022380Y-68937142D01*
X116022380Y-69032380D01*
X115974761Y-69175238D01*
X115879523Y-69270476D01*
X115784285Y-69318095D01*
X115593809Y-69365714D01*
X115450952Y-69365714D01*
X115260476Y-69318095D01*
X115165238Y-69270476D01*
X115070000Y-69175238D01*
X115022380Y-69032380D01*
X115022380Y-68937142D01*
X115070000Y-68794285D01*
X115117619Y-68746666D01*
X115022380Y-68413333D02*
X115022380Y-67794285D01*
X115403333Y-68127619D01*
X115403333Y-67984761D01*
X115450952Y-67889523D01*
X115498571Y-67841904D01*
X115593809Y-67794285D01*
X115831904Y-67794285D01*
X115927142Y-67841904D01*
X115974761Y-67889523D01*
X116022380Y-67984761D01*
X116022380Y-68270476D01*
X115974761Y-68365714D01*
X115927142Y-68413333D01*
X112212380Y-61698095D02*
X111212380Y-61698095D01*
X111212380Y-61460000D01*
X111260000Y-61317142D01*
X111355238Y-61221904D01*
X111450476Y-61174285D01*
X111640952Y-61126666D01*
X111783809Y-61126666D01*
X111974285Y-61174285D01*
X112069523Y-61221904D01*
X112164761Y-61317142D01*
X112212380Y-61460000D01*
X112212380Y-61698095D01*
X112212380Y-60174285D02*
X112212380Y-60745714D01*
X112212380Y-60460000D02*
X111212380Y-60460000D01*
X111355238Y-60555238D01*
X111450476Y-60650476D01*
X111498095Y-60745714D01*
X109672380Y-61698095D02*
X108672380Y-61698095D01*
X108672380Y-61460000D01*
X108720000Y-61317142D01*
X108815238Y-61221904D01*
X108910476Y-61174285D01*
X109100952Y-61126666D01*
X109243809Y-61126666D01*
X109434285Y-61174285D01*
X109529523Y-61221904D01*
X109624761Y-61317142D01*
X109672380Y-61460000D01*
X109672380Y-61698095D01*
X108767619Y-60745714D02*
X108720000Y-60698095D01*
X108672380Y-60602857D01*
X108672380Y-60364761D01*
X108720000Y-60269523D01*
X108767619Y-60221904D01*
X108862857Y-60174285D01*
X108958095Y-60174285D01*
X109100952Y-60221904D01*
X109672380Y-60793333D01*
X109672380Y-60174285D01*
X126116666Y-51142380D02*
X126116666Y-51856666D01*
X126069047Y-51999523D01*
X125973809Y-52094761D01*
X125830952Y-52142380D01*
X125735714Y-52142380D01*
X127116666Y-52142380D02*
X126545238Y-52142380D01*
X126830952Y-52142380D02*
X126830952Y-51142380D01*
X126735714Y-51285238D01*
X126640476Y-51380476D01*
X126545238Y-51428095D01*
X113642380Y-68746666D02*
X113166190Y-69080000D01*
X113642380Y-69318095D02*
X112642380Y-69318095D01*
X112642380Y-68937142D01*
X112690000Y-68841904D01*
X112737619Y-68794285D01*
X112832857Y-68746666D01*
X112975714Y-68746666D01*
X113070952Y-68794285D01*
X113118571Y-68841904D01*
X113166190Y-68937142D01*
X113166190Y-69318095D01*
X113642380Y-67794285D02*
X113642380Y-68365714D01*
X113642380Y-68080000D02*
X112642380Y-68080000D01*
X112785238Y-68175238D01*
X112880476Y-68270476D01*
X112928095Y-68365714D01*
D10*
X111057142Y-68730000D02*
X110628571Y-69030000D01*
X111057142Y-69244285D02*
X110157142Y-69244285D01*
X110157142Y-68901428D01*
X110200000Y-68815714D01*
X110242857Y-68772857D01*
X110328571Y-68730000D01*
X110457142Y-68730000D01*
X110542857Y-68772857D01*
X110585714Y-68815714D01*
X110628571Y-68901428D01*
X110628571Y-69244285D01*
X110242857Y-68387142D02*
X110200000Y-68344285D01*
X110157142Y-68258571D01*
X110157142Y-68044285D01*
X110200000Y-67958571D01*
X110242857Y-67915714D01*
X110328571Y-67872857D01*
X110414285Y-67872857D01*
X110542857Y-67915714D01*
X111057142Y-68430000D01*
X111057142Y-67872857D01*
D11*
X102902380Y-54101904D02*
X103711904Y-54101904D01*
X103807142Y-54054285D01*
X103854761Y-54006666D01*
X103902380Y-53911428D01*
X103902380Y-53720952D01*
X103854761Y-53625714D01*
X103807142Y-53578095D01*
X103711904Y-53530476D01*
X102902380Y-53530476D01*
X103902380Y-52530476D02*
X103902380Y-53101904D01*
X103902380Y-52816190D02*
X102902380Y-52816190D01*
X103045238Y-52911428D01*
X103140476Y-53006666D01*
X103188095Y-53101904D01*
X79462380Y-59740704D02*
X80271904Y-59740704D01*
X80367142Y-59693085D01*
X80414761Y-59645466D01*
X80462380Y-59550228D01*
X80462380Y-59359752D01*
X80414761Y-59264514D01*
X80367142Y-59216895D01*
X80271904Y-59169276D01*
X79462380Y-59169276D01*
X79462380Y-58788323D02*
X79462380Y-58169276D01*
X79843333Y-58502609D01*
X79843333Y-58359752D01*
X79890952Y-58264514D01*
X79938571Y-58216895D01*
X80033809Y-58169276D01*
X80271904Y-58169276D01*
X80367142Y-58216895D01*
X80414761Y-58264514D01*
X80462380Y-58359752D01*
X80462380Y-58645466D01*
X80414761Y-58740704D01*
X80367142Y-58788323D01*
D10*
X118431428Y-50950000D02*
X118474285Y-50992857D01*
X118517142Y-51121428D01*
X118517142Y-51207142D01*
X118474285Y-51335714D01*
X118388571Y-51421428D01*
X118302857Y-51464285D01*
X118131428Y-51507142D01*
X118002857Y-51507142D01*
X117831428Y-51464285D01*
X117745714Y-51421428D01*
X117660000Y-51335714D01*
X117617142Y-51207142D01*
X117617142Y-51121428D01*
X117660000Y-50992857D01*
X117702857Y-50950000D01*
X117917142Y-50178571D02*
X118517142Y-50178571D01*
X117574285Y-50392857D02*
X118217142Y-50607142D01*
X118217142Y-50050000D01*
X116137142Y-50950000D02*
X115708571Y-51250000D01*
X116137142Y-51464285D02*
X115237142Y-51464285D01*
X115237142Y-51121428D01*
X115280000Y-51035714D01*
X115322857Y-50992857D01*
X115408571Y-50950000D01*
X115537142Y-50950000D01*
X115622857Y-50992857D01*
X115665714Y-51035714D01*
X115708571Y-51121428D01*
X115708571Y-51464285D01*
X115237142Y-50650000D02*
X115237142Y-50092857D01*
X115580000Y-50392857D01*
X115580000Y-50264285D01*
X115622857Y-50178571D01*
X115665714Y-50135714D01*
X115751428Y-50092857D01*
X115965714Y-50092857D01*
X116051428Y-50135714D01*
X116094285Y-50178571D01*
X116137142Y-50264285D01*
X116137142Y-50521428D01*
X116094285Y-50607142D01*
X116051428Y-50650000D01*
D11*
X101957142Y-49696666D02*
X102004761Y-49744285D01*
X102052380Y-49887142D01*
X102052380Y-49982380D01*
X102004761Y-50125238D01*
X101909523Y-50220476D01*
X101814285Y-50268095D01*
X101623809Y-50315714D01*
X101480952Y-50315714D01*
X101290476Y-50268095D01*
X101195238Y-50220476D01*
X101100000Y-50125238D01*
X101052380Y-49982380D01*
X101052380Y-49887142D01*
X101100000Y-49744285D01*
X101147619Y-49696666D01*
X101147619Y-49315714D02*
X101100000Y-49268095D01*
X101052380Y-49172857D01*
X101052380Y-48934761D01*
X101100000Y-48839523D01*
X101147619Y-48791904D01*
X101242857Y-48744285D01*
X101338095Y-48744285D01*
X101480952Y-48791904D01*
X102052380Y-49363333D01*
X102052380Y-48744285D01*
M02*
