G04 #@! TF.GenerationSoftware,KiCad,Pcbnew,(5.1.5)-3*
G04 #@! TF.CreationDate,2020-03-31T21:34:46+02:00*
G04 #@! TF.ProjectId,cc1352P-dongle,63633133-3532-4502-9d64-6f6e676c652e,rev?*
G04 #@! TF.SameCoordinates,Original*
G04 #@! TF.FileFunction,Soldermask,Bot*
G04 #@! TF.FilePolarity,Negative*
%FSLAX46Y46*%
G04 Gerber Fmt 4.6, Leading zero omitted, Abs format (unit mm)*
G04 Created by KiCad (PCBNEW (5.1.5)-3) date 2020-03-31 21:34:46*
%MOMM*%
%LPD*%
G04 APERTURE LIST*
%ADD10C,0.150000*%
%ADD11C,0.100000*%
G04 APERTURE END LIST*
D10*
X66040000Y-71120000D02*
X66040000Y-48260000D01*
X129540000Y-71120000D02*
X66040000Y-71120000D01*
X129540000Y-48260000D02*
X129540000Y-71120000D01*
X66040000Y-48260000D02*
X129540000Y-48260000D01*
D11*
G36*
X127446228Y-64403483D02*
G01*
X127634922Y-64460723D01*
X127808815Y-64553671D01*
X127961239Y-64678761D01*
X128086329Y-64831185D01*
X128179277Y-65005078D01*
X128236517Y-65193772D01*
X128255843Y-65390000D01*
X128236517Y-65586228D01*
X128179277Y-65774922D01*
X128086329Y-65948815D01*
X127961239Y-66101239D01*
X127808815Y-66226329D01*
X127634922Y-66319277D01*
X127446228Y-66376517D01*
X127299175Y-66391000D01*
X125600825Y-66391000D01*
X125453772Y-66376517D01*
X125265078Y-66319277D01*
X125091185Y-66226329D01*
X124938761Y-66101239D01*
X124813671Y-65948815D01*
X124720723Y-65774922D01*
X124663483Y-65586228D01*
X124644157Y-65390000D01*
X124663483Y-65193772D01*
X124720723Y-65005078D01*
X124813671Y-64831185D01*
X124938761Y-64678761D01*
X125091185Y-64553671D01*
X125265078Y-64460723D01*
X125453772Y-64403483D01*
X125600825Y-64389000D01*
X127299175Y-64389000D01*
X127446228Y-64403483D01*
G37*
G36*
X103030721Y-61700174D02*
G01*
X103130995Y-61741709D01*
X103130996Y-61741710D01*
X103221242Y-61802010D01*
X103297990Y-61878758D01*
X103297991Y-61878760D01*
X103358291Y-61969005D01*
X103389516Y-62044389D01*
X103401067Y-62066000D01*
X103416612Y-62084941D01*
X103435554Y-62100487D01*
X103457165Y-62112038D01*
X103480614Y-62119151D01*
X103505000Y-62121553D01*
X103529386Y-62119151D01*
X103552835Y-62112038D01*
X103574446Y-62100487D01*
X103593387Y-62084942D01*
X103608933Y-62066000D01*
X103620484Y-62044389D01*
X103651709Y-61969005D01*
X103712009Y-61878760D01*
X103712010Y-61878758D01*
X103788758Y-61802010D01*
X103879004Y-61741710D01*
X103879005Y-61741709D01*
X103979279Y-61700174D01*
X104085730Y-61679000D01*
X104194270Y-61679000D01*
X104300721Y-61700174D01*
X104400995Y-61741709D01*
X104400996Y-61741710D01*
X104491242Y-61802010D01*
X104567990Y-61878758D01*
X104567991Y-61878760D01*
X104628291Y-61969005D01*
X104669826Y-62069279D01*
X104691000Y-62175730D01*
X104691000Y-62284270D01*
X104669826Y-62390721D01*
X104628291Y-62490995D01*
X104628290Y-62490996D01*
X104567990Y-62581242D01*
X104491242Y-62657990D01*
X104445812Y-62688345D01*
X104400995Y-62718291D01*
X104325611Y-62749516D01*
X104304000Y-62761067D01*
X104285059Y-62776612D01*
X104269513Y-62795554D01*
X104257962Y-62817165D01*
X104250849Y-62840614D01*
X104248447Y-62865000D01*
X104250849Y-62889386D01*
X104257962Y-62912835D01*
X104269513Y-62934446D01*
X104285058Y-62953387D01*
X104304000Y-62968933D01*
X104325611Y-62980484D01*
X104400995Y-63011709D01*
X104400996Y-63011710D01*
X104491242Y-63072010D01*
X104567990Y-63148758D01*
X104567991Y-63148760D01*
X104628291Y-63239005D01*
X104669826Y-63339279D01*
X104691000Y-63445730D01*
X104691000Y-63554270D01*
X104669826Y-63660721D01*
X104628291Y-63760995D01*
X104628290Y-63760996D01*
X104567990Y-63851242D01*
X104491242Y-63927990D01*
X104459816Y-63948988D01*
X104398336Y-63990068D01*
X104379394Y-64005614D01*
X104363849Y-64024556D01*
X104352298Y-64046167D01*
X104345185Y-64069615D01*
X104342783Y-64094002D01*
X104345185Y-64118388D01*
X104352298Y-64141837D01*
X104363849Y-64163447D01*
X104379395Y-64182389D01*
X104398337Y-64197934D01*
X104419948Y-64209485D01*
X104443396Y-64216598D01*
X104467782Y-64219000D01*
X104691000Y-64219000D01*
X104691000Y-65321000D01*
X103589000Y-65321000D01*
X103589000Y-65097782D01*
X103586598Y-65073396D01*
X103579485Y-65049947D01*
X103567934Y-65028336D01*
X103552389Y-65009394D01*
X103533447Y-64993849D01*
X103511836Y-64982298D01*
X103488387Y-64975185D01*
X103464001Y-64972783D01*
X103439615Y-64975185D01*
X103416166Y-64982298D01*
X103394555Y-64993849D01*
X103375613Y-65009394D01*
X103360068Y-65028336D01*
X103318988Y-65089816D01*
X103297990Y-65121242D01*
X103221242Y-65197990D01*
X103175812Y-65228345D01*
X103130995Y-65258291D01*
X103030721Y-65299826D01*
X102924270Y-65321000D01*
X102815730Y-65321000D01*
X102709279Y-65299826D01*
X102609005Y-65258291D01*
X102564188Y-65228345D01*
X102518758Y-65197990D01*
X102442010Y-65121242D01*
X102410041Y-65073396D01*
X102381709Y-65030995D01*
X102340174Y-64930721D01*
X102319000Y-64824270D01*
X102319000Y-64715730D01*
X102340174Y-64609279D01*
X102381709Y-64509005D01*
X102442009Y-64418760D01*
X102442010Y-64418758D01*
X102518758Y-64342010D01*
X102609004Y-64281710D01*
X102609005Y-64281709D01*
X102684389Y-64250484D01*
X102706000Y-64238933D01*
X102724941Y-64223388D01*
X102740487Y-64204446D01*
X102752038Y-64182835D01*
X102759151Y-64159386D01*
X102761553Y-64135000D01*
X102978447Y-64135000D01*
X102980849Y-64159386D01*
X102987962Y-64182835D01*
X102999513Y-64204446D01*
X103015058Y-64223387D01*
X103034000Y-64238933D01*
X103055611Y-64250484D01*
X103130995Y-64281709D01*
X103130996Y-64281710D01*
X103221242Y-64342010D01*
X103297990Y-64418758D01*
X103297991Y-64418760D01*
X103360068Y-64511664D01*
X103375614Y-64530606D01*
X103394556Y-64546151D01*
X103416167Y-64557702D01*
X103439615Y-64564815D01*
X103464002Y-64567217D01*
X103488388Y-64564815D01*
X103511837Y-64557702D01*
X103533447Y-64546151D01*
X103552389Y-64530605D01*
X103567934Y-64511663D01*
X103579485Y-64490052D01*
X103586598Y-64466604D01*
X103589000Y-64442218D01*
X103589000Y-64219000D01*
X103812218Y-64219000D01*
X103836604Y-64216598D01*
X103860053Y-64209485D01*
X103881664Y-64197934D01*
X103900606Y-64182389D01*
X103916151Y-64163447D01*
X103927702Y-64141836D01*
X103934815Y-64118387D01*
X103937217Y-64094001D01*
X103934815Y-64069615D01*
X103927702Y-64046166D01*
X103916151Y-64024555D01*
X103900606Y-64005613D01*
X103881664Y-63990068D01*
X103820184Y-63948988D01*
X103788758Y-63927990D01*
X103712010Y-63851242D01*
X103651710Y-63760996D01*
X103651709Y-63760995D01*
X103620484Y-63685611D01*
X103608933Y-63664000D01*
X103593388Y-63645059D01*
X103574446Y-63629513D01*
X103552835Y-63617962D01*
X103529386Y-63610849D01*
X103505000Y-63608447D01*
X103480614Y-63610849D01*
X103457165Y-63617962D01*
X103435554Y-63629513D01*
X103416613Y-63645058D01*
X103401067Y-63664000D01*
X103389516Y-63685611D01*
X103358291Y-63760995D01*
X103358290Y-63760996D01*
X103297990Y-63851242D01*
X103221242Y-63927990D01*
X103175812Y-63958345D01*
X103130995Y-63988291D01*
X103055611Y-64019516D01*
X103034000Y-64031067D01*
X103015059Y-64046612D01*
X102999513Y-64065554D01*
X102987962Y-64087165D01*
X102980849Y-64110614D01*
X102978447Y-64135000D01*
X102761553Y-64135000D01*
X102759151Y-64110614D01*
X102752038Y-64087165D01*
X102740487Y-64065554D01*
X102724942Y-64046613D01*
X102706000Y-64031067D01*
X102684389Y-64019516D01*
X102609005Y-63988291D01*
X102564188Y-63958345D01*
X102518758Y-63927990D01*
X102442010Y-63851242D01*
X102381710Y-63760996D01*
X102381709Y-63760995D01*
X102340174Y-63660721D01*
X102319000Y-63554270D01*
X102319000Y-63445730D01*
X102340174Y-63339279D01*
X102381709Y-63239005D01*
X102442009Y-63148760D01*
X102442010Y-63148758D01*
X102518758Y-63072010D01*
X102609004Y-63011710D01*
X102609005Y-63011709D01*
X102684389Y-62980484D01*
X102706000Y-62968933D01*
X102724941Y-62953388D01*
X102740487Y-62934446D01*
X102752038Y-62912835D01*
X102759151Y-62889386D01*
X102761553Y-62865000D01*
X102978447Y-62865000D01*
X102980849Y-62889386D01*
X102987962Y-62912835D01*
X102999513Y-62934446D01*
X103015058Y-62953387D01*
X103034000Y-62968933D01*
X103055611Y-62980484D01*
X103130995Y-63011709D01*
X103130996Y-63011710D01*
X103221242Y-63072010D01*
X103297990Y-63148758D01*
X103297991Y-63148760D01*
X103358291Y-63239005D01*
X103389516Y-63314389D01*
X103401067Y-63336000D01*
X103416612Y-63354941D01*
X103435554Y-63370487D01*
X103457165Y-63382038D01*
X103480614Y-63389151D01*
X103505000Y-63391553D01*
X103529386Y-63389151D01*
X103552835Y-63382038D01*
X103574446Y-63370487D01*
X103593387Y-63354942D01*
X103608933Y-63336000D01*
X103620484Y-63314389D01*
X103651709Y-63239005D01*
X103712009Y-63148760D01*
X103712010Y-63148758D01*
X103788758Y-63072010D01*
X103879004Y-63011710D01*
X103879005Y-63011709D01*
X103954389Y-62980484D01*
X103976000Y-62968933D01*
X103994941Y-62953388D01*
X104010487Y-62934446D01*
X104022038Y-62912835D01*
X104029151Y-62889386D01*
X104031553Y-62865000D01*
X104029151Y-62840614D01*
X104022038Y-62817165D01*
X104010487Y-62795554D01*
X103994942Y-62776613D01*
X103976000Y-62761067D01*
X103954389Y-62749516D01*
X103879005Y-62718291D01*
X103834188Y-62688345D01*
X103788758Y-62657990D01*
X103712010Y-62581242D01*
X103651710Y-62490996D01*
X103651709Y-62490995D01*
X103620484Y-62415611D01*
X103608933Y-62394000D01*
X103593388Y-62375059D01*
X103574446Y-62359513D01*
X103552835Y-62347962D01*
X103529386Y-62340849D01*
X103505000Y-62338447D01*
X103480614Y-62340849D01*
X103457165Y-62347962D01*
X103435554Y-62359513D01*
X103416613Y-62375058D01*
X103401067Y-62394000D01*
X103389516Y-62415611D01*
X103358291Y-62490995D01*
X103358290Y-62490996D01*
X103297990Y-62581242D01*
X103221242Y-62657990D01*
X103175812Y-62688345D01*
X103130995Y-62718291D01*
X103055611Y-62749516D01*
X103034000Y-62761067D01*
X103015059Y-62776612D01*
X102999513Y-62795554D01*
X102987962Y-62817165D01*
X102980849Y-62840614D01*
X102978447Y-62865000D01*
X102761553Y-62865000D01*
X102759151Y-62840614D01*
X102752038Y-62817165D01*
X102740487Y-62795554D01*
X102724942Y-62776613D01*
X102706000Y-62761067D01*
X102684389Y-62749516D01*
X102609005Y-62718291D01*
X102564188Y-62688345D01*
X102518758Y-62657990D01*
X102442010Y-62581242D01*
X102381710Y-62490996D01*
X102381709Y-62490995D01*
X102340174Y-62390721D01*
X102319000Y-62284270D01*
X102319000Y-62175730D01*
X102340174Y-62069279D01*
X102381709Y-61969005D01*
X102442009Y-61878760D01*
X102442010Y-61878758D01*
X102518758Y-61802010D01*
X102609004Y-61741710D01*
X102609005Y-61741709D01*
X102709279Y-61700174D01*
X102815730Y-61679000D01*
X102924270Y-61679000D01*
X103030721Y-61700174D01*
G37*
G36*
X126586601Y-61404397D02*
G01*
X126625305Y-61412096D01*
X126657340Y-61425365D01*
X126734680Y-61457400D01*
X126833115Y-61523173D01*
X126916827Y-61606885D01*
X126982600Y-61705320D01*
X127014635Y-61782660D01*
X127022650Y-61802010D01*
X127027904Y-61814696D01*
X127051000Y-61930805D01*
X127051000Y-62049195D01*
X127027904Y-62165304D01*
X126982600Y-62274680D01*
X126916827Y-62373115D01*
X126833115Y-62456827D01*
X126734680Y-62522600D01*
X126657340Y-62554635D01*
X126625305Y-62567904D01*
X126586601Y-62575603D01*
X126509195Y-62591000D01*
X126390805Y-62591000D01*
X126313399Y-62575603D01*
X126274695Y-62567904D01*
X126242660Y-62554635D01*
X126165320Y-62522600D01*
X126066885Y-62456827D01*
X125983173Y-62373115D01*
X125917400Y-62274680D01*
X125872096Y-62165304D01*
X125849000Y-62049195D01*
X125849000Y-61930805D01*
X125872096Y-61814696D01*
X125877351Y-61802010D01*
X125885365Y-61782660D01*
X125917400Y-61705320D01*
X125983173Y-61606885D01*
X126066885Y-61523173D01*
X126165320Y-61457400D01*
X126242660Y-61425365D01*
X126274695Y-61412096D01*
X126313399Y-61404397D01*
X126390805Y-61389000D01*
X126509195Y-61389000D01*
X126586601Y-61404397D01*
G37*
G36*
X126586601Y-56804397D02*
G01*
X126625305Y-56812096D01*
X126657340Y-56825365D01*
X126734680Y-56857400D01*
X126833115Y-56923173D01*
X126916827Y-57006885D01*
X126982600Y-57105320D01*
X127027904Y-57214696D01*
X127051000Y-57330805D01*
X127051000Y-57449195D01*
X127027904Y-57565304D01*
X126982600Y-57674680D01*
X126916827Y-57773115D01*
X126833115Y-57856827D01*
X126734680Y-57922600D01*
X126657340Y-57954635D01*
X126625305Y-57967904D01*
X126586601Y-57975603D01*
X126509195Y-57991000D01*
X126390805Y-57991000D01*
X126313399Y-57975603D01*
X126274695Y-57967904D01*
X126242660Y-57954635D01*
X126165320Y-57922600D01*
X126066885Y-57856827D01*
X125983173Y-57773115D01*
X125917400Y-57674680D01*
X125872096Y-57565304D01*
X125849000Y-57449195D01*
X125849000Y-57330805D01*
X125872096Y-57214696D01*
X125917400Y-57105320D01*
X125983173Y-57006885D01*
X126066885Y-56923173D01*
X126165320Y-56857400D01*
X126242660Y-56825365D01*
X126274695Y-56812096D01*
X126313399Y-56804397D01*
X126390805Y-56789000D01*
X126509195Y-56789000D01*
X126586601Y-56804397D01*
G37*
G36*
X127446228Y-53003483D02*
G01*
X127634922Y-53060723D01*
X127808815Y-53153671D01*
X127961239Y-53278761D01*
X128086329Y-53431185D01*
X128179277Y-53605078D01*
X128236517Y-53793772D01*
X128255843Y-53990000D01*
X128236517Y-54186228D01*
X128179277Y-54374922D01*
X128086329Y-54548815D01*
X127961239Y-54701239D01*
X127808815Y-54826329D01*
X127634922Y-54919277D01*
X127446228Y-54976517D01*
X127299175Y-54991000D01*
X125600825Y-54991000D01*
X125453772Y-54976517D01*
X125265078Y-54919277D01*
X125091185Y-54826329D01*
X124938761Y-54701239D01*
X124813671Y-54548815D01*
X124720723Y-54374922D01*
X124663483Y-54186228D01*
X124644157Y-53990000D01*
X124663483Y-53793772D01*
X124720723Y-53605078D01*
X124813671Y-53431185D01*
X124938761Y-53278761D01*
X125091185Y-53153671D01*
X125265078Y-53060723D01*
X125453772Y-53003483D01*
X125600825Y-52989000D01*
X127299175Y-52989000D01*
X127446228Y-53003483D01*
G37*
M02*
