G04 #@! TF.GenerationSoftware,KiCad,Pcbnew,(5.1.5)-3*
G04 #@! TF.CreationDate,2020-03-31T21:34:46+02:00*
G04 #@! TF.ProjectId,cc1352P-dongle,63633133-3532-4502-9d64-6f6e676c652e,rev?*
G04 #@! TF.SameCoordinates,Original*
G04 #@! TF.FileFunction,Copper,L1,Top*
G04 #@! TF.FilePolarity,Positive*
%FSLAX46Y46*%
G04 Gerber Fmt 4.6, Leading zero omitted, Abs format (unit mm)*
G04 Created by KiCad (PCBNEW (5.1.5)-3) date 2020-03-31 21:34:46*
%MOMM*%
%LPD*%
G04 APERTURE LIST*
%ADD10C,0.150000*%
%ADD11O,1.000000X1.000000*%
%ADD12R,1.000000X1.000000*%
%ADD13R,0.300000X1.400000*%
%ADD14R,0.900000X1.700000*%
%ADD15R,1.000000X1.400000*%
%ADD16R,1.200000X1.400000*%
%ADD17C,0.100000*%
%ADD18R,2.500000X1.100000*%
%ADD19O,3.500000X1.900000*%
%ADD20R,3.800000X2.000000*%
%ADD21R,1.500000X2.000000*%
%ADD22O,1.400000X0.700000*%
%ADD23O,0.700000X1.400000*%
%ADD24C,0.800000*%
%ADD25C,0.400000*%
%ADD26C,0.600000*%
%ADD27C,0.250000*%
%ADD28C,0.500000*%
%ADD29C,0.200000*%
%ADD30C,0.254000*%
G04 APERTURE END LIST*
D10*
X66040000Y-71120000D02*
X66040000Y-48260000D01*
X129540000Y-71120000D02*
X66040000Y-71120000D01*
X129540000Y-48260000D02*
X129540000Y-71120000D01*
X66040000Y-48260000D02*
X129540000Y-48260000D01*
D11*
X102870000Y-62230000D03*
X104140000Y-62230000D03*
X102870000Y-63500000D03*
X104140000Y-63500000D03*
X102870000Y-64770000D03*
D12*
X104140000Y-64770000D03*
D13*
X119110000Y-68240000D03*
X118610000Y-68240000D03*
X118110000Y-68240000D03*
X117610000Y-68240000D03*
X117110000Y-68240000D03*
X117110000Y-63840000D03*
X117610000Y-63840000D03*
X118110000Y-63840000D03*
X118610000Y-63840000D03*
X119110000Y-63840000D03*
D14*
X123620000Y-50800000D03*
X120220000Y-50800000D03*
D15*
X117160000Y-58590000D03*
X119060000Y-58590000D03*
X119060000Y-60790000D03*
D16*
X117340000Y-60790000D03*
G04 #@! TA.AperFunction,SMDPad,CuDef*
D17*
G36*
X114560779Y-54481144D02*
G01*
X114583834Y-54484563D01*
X114606443Y-54490227D01*
X114628387Y-54498079D01*
X114649457Y-54508044D01*
X114669448Y-54520026D01*
X114688168Y-54533910D01*
X114705438Y-54549562D01*
X114721090Y-54566832D01*
X114734974Y-54585552D01*
X114746956Y-54605543D01*
X114756921Y-54626613D01*
X114764773Y-54648557D01*
X114770437Y-54671166D01*
X114773856Y-54694221D01*
X114775000Y-54717500D01*
X114775000Y-55292500D01*
X114773856Y-55315779D01*
X114770437Y-55338834D01*
X114764773Y-55361443D01*
X114756921Y-55383387D01*
X114746956Y-55404457D01*
X114734974Y-55424448D01*
X114721090Y-55443168D01*
X114705438Y-55460438D01*
X114688168Y-55476090D01*
X114669448Y-55489974D01*
X114649457Y-55501956D01*
X114628387Y-55511921D01*
X114606443Y-55519773D01*
X114583834Y-55525437D01*
X114560779Y-55528856D01*
X114537500Y-55530000D01*
X114062500Y-55530000D01*
X114039221Y-55528856D01*
X114016166Y-55525437D01*
X113993557Y-55519773D01*
X113971613Y-55511921D01*
X113950543Y-55501956D01*
X113930552Y-55489974D01*
X113911832Y-55476090D01*
X113894562Y-55460438D01*
X113878910Y-55443168D01*
X113865026Y-55424448D01*
X113853044Y-55404457D01*
X113843079Y-55383387D01*
X113835227Y-55361443D01*
X113829563Y-55338834D01*
X113826144Y-55315779D01*
X113825000Y-55292500D01*
X113825000Y-54717500D01*
X113826144Y-54694221D01*
X113829563Y-54671166D01*
X113835227Y-54648557D01*
X113843079Y-54626613D01*
X113853044Y-54605543D01*
X113865026Y-54585552D01*
X113878910Y-54566832D01*
X113894562Y-54549562D01*
X113911832Y-54533910D01*
X113930552Y-54520026D01*
X113950543Y-54508044D01*
X113971613Y-54498079D01*
X113993557Y-54490227D01*
X114016166Y-54484563D01*
X114039221Y-54481144D01*
X114062500Y-54480000D01*
X114537500Y-54480000D01*
X114560779Y-54481144D01*
G37*
G04 #@! TD.AperFunction*
G04 #@! TA.AperFunction,SMDPad,CuDef*
G36*
X114560779Y-56231144D02*
G01*
X114583834Y-56234563D01*
X114606443Y-56240227D01*
X114628387Y-56248079D01*
X114649457Y-56258044D01*
X114669448Y-56270026D01*
X114688168Y-56283910D01*
X114705438Y-56299562D01*
X114721090Y-56316832D01*
X114734974Y-56335552D01*
X114746956Y-56355543D01*
X114756921Y-56376613D01*
X114764773Y-56398557D01*
X114770437Y-56421166D01*
X114773856Y-56444221D01*
X114775000Y-56467500D01*
X114775000Y-57042500D01*
X114773856Y-57065779D01*
X114770437Y-57088834D01*
X114764773Y-57111443D01*
X114756921Y-57133387D01*
X114746956Y-57154457D01*
X114734974Y-57174448D01*
X114721090Y-57193168D01*
X114705438Y-57210438D01*
X114688168Y-57226090D01*
X114669448Y-57239974D01*
X114649457Y-57251956D01*
X114628387Y-57261921D01*
X114606443Y-57269773D01*
X114583834Y-57275437D01*
X114560779Y-57278856D01*
X114537500Y-57280000D01*
X114062500Y-57280000D01*
X114039221Y-57278856D01*
X114016166Y-57275437D01*
X113993557Y-57269773D01*
X113971613Y-57261921D01*
X113950543Y-57251956D01*
X113930552Y-57239974D01*
X113911832Y-57226090D01*
X113894562Y-57210438D01*
X113878910Y-57193168D01*
X113865026Y-57174448D01*
X113853044Y-57154457D01*
X113843079Y-57133387D01*
X113835227Y-57111443D01*
X113829563Y-57088834D01*
X113826144Y-57065779D01*
X113825000Y-57042500D01*
X113825000Y-56467500D01*
X113826144Y-56444221D01*
X113829563Y-56421166D01*
X113835227Y-56398557D01*
X113843079Y-56376613D01*
X113853044Y-56355543D01*
X113865026Y-56335552D01*
X113878910Y-56316832D01*
X113894562Y-56299562D01*
X113911832Y-56283910D01*
X113930552Y-56270026D01*
X113950543Y-56258044D01*
X113971613Y-56248079D01*
X113993557Y-56240227D01*
X114016166Y-56234563D01*
X114039221Y-56231144D01*
X114062500Y-56230000D01*
X114537500Y-56230000D01*
X114560779Y-56231144D01*
G37*
G04 #@! TD.AperFunction*
G04 #@! TA.AperFunction,SMDPad,CuDef*
G36*
X114560779Y-68931144D02*
G01*
X114583834Y-68934563D01*
X114606443Y-68940227D01*
X114628387Y-68948079D01*
X114649457Y-68958044D01*
X114669448Y-68970026D01*
X114688168Y-68983910D01*
X114705438Y-68999562D01*
X114721090Y-69016832D01*
X114734974Y-69035552D01*
X114746956Y-69055543D01*
X114756921Y-69076613D01*
X114764773Y-69098557D01*
X114770437Y-69121166D01*
X114773856Y-69144221D01*
X114775000Y-69167500D01*
X114775000Y-69742500D01*
X114773856Y-69765779D01*
X114770437Y-69788834D01*
X114764773Y-69811443D01*
X114756921Y-69833387D01*
X114746956Y-69854457D01*
X114734974Y-69874448D01*
X114721090Y-69893168D01*
X114705438Y-69910438D01*
X114688168Y-69926090D01*
X114669448Y-69939974D01*
X114649457Y-69951956D01*
X114628387Y-69961921D01*
X114606443Y-69969773D01*
X114583834Y-69975437D01*
X114560779Y-69978856D01*
X114537500Y-69980000D01*
X114062500Y-69980000D01*
X114039221Y-69978856D01*
X114016166Y-69975437D01*
X113993557Y-69969773D01*
X113971613Y-69961921D01*
X113950543Y-69951956D01*
X113930552Y-69939974D01*
X113911832Y-69926090D01*
X113894562Y-69910438D01*
X113878910Y-69893168D01*
X113865026Y-69874448D01*
X113853044Y-69854457D01*
X113843079Y-69833387D01*
X113835227Y-69811443D01*
X113829563Y-69788834D01*
X113826144Y-69765779D01*
X113825000Y-69742500D01*
X113825000Y-69167500D01*
X113826144Y-69144221D01*
X113829563Y-69121166D01*
X113835227Y-69098557D01*
X113843079Y-69076613D01*
X113853044Y-69055543D01*
X113865026Y-69035552D01*
X113878910Y-69016832D01*
X113894562Y-68999562D01*
X113911832Y-68983910D01*
X113930552Y-68970026D01*
X113950543Y-68958044D01*
X113971613Y-68948079D01*
X113993557Y-68940227D01*
X114016166Y-68934563D01*
X114039221Y-68931144D01*
X114062500Y-68930000D01*
X114537500Y-68930000D01*
X114560779Y-68931144D01*
G37*
G04 #@! TD.AperFunction*
G04 #@! TA.AperFunction,SMDPad,CuDef*
G36*
X114560779Y-67181144D02*
G01*
X114583834Y-67184563D01*
X114606443Y-67190227D01*
X114628387Y-67198079D01*
X114649457Y-67208044D01*
X114669448Y-67220026D01*
X114688168Y-67233910D01*
X114705438Y-67249562D01*
X114721090Y-67266832D01*
X114734974Y-67285552D01*
X114746956Y-67305543D01*
X114756921Y-67326613D01*
X114764773Y-67348557D01*
X114770437Y-67371166D01*
X114773856Y-67394221D01*
X114775000Y-67417500D01*
X114775000Y-67992500D01*
X114773856Y-68015779D01*
X114770437Y-68038834D01*
X114764773Y-68061443D01*
X114756921Y-68083387D01*
X114746956Y-68104457D01*
X114734974Y-68124448D01*
X114721090Y-68143168D01*
X114705438Y-68160438D01*
X114688168Y-68176090D01*
X114669448Y-68189974D01*
X114649457Y-68201956D01*
X114628387Y-68211921D01*
X114606443Y-68219773D01*
X114583834Y-68225437D01*
X114560779Y-68228856D01*
X114537500Y-68230000D01*
X114062500Y-68230000D01*
X114039221Y-68228856D01*
X114016166Y-68225437D01*
X113993557Y-68219773D01*
X113971613Y-68211921D01*
X113950543Y-68201956D01*
X113930552Y-68189974D01*
X113911832Y-68176090D01*
X113894562Y-68160438D01*
X113878910Y-68143168D01*
X113865026Y-68124448D01*
X113853044Y-68104457D01*
X113843079Y-68083387D01*
X113835227Y-68061443D01*
X113829563Y-68038834D01*
X113826144Y-68015779D01*
X113825000Y-67992500D01*
X113825000Y-67417500D01*
X113826144Y-67394221D01*
X113829563Y-67371166D01*
X113835227Y-67348557D01*
X113843079Y-67326613D01*
X113853044Y-67305543D01*
X113865026Y-67285552D01*
X113878910Y-67266832D01*
X113894562Y-67249562D01*
X113911832Y-67233910D01*
X113930552Y-67220026D01*
X113950543Y-67208044D01*
X113971613Y-67198079D01*
X113993557Y-67190227D01*
X114016166Y-67184563D01*
X114039221Y-67181144D01*
X114062500Y-67180000D01*
X114537500Y-67180000D01*
X114560779Y-67181144D01*
G37*
G04 #@! TD.AperFunction*
G04 #@! TA.AperFunction,SMDPad,CuDef*
G36*
X112020779Y-63851144D02*
G01*
X112043834Y-63854563D01*
X112066443Y-63860227D01*
X112088387Y-63868079D01*
X112109457Y-63878044D01*
X112129448Y-63890026D01*
X112148168Y-63903910D01*
X112165438Y-63919562D01*
X112181090Y-63936832D01*
X112194974Y-63955552D01*
X112206956Y-63975543D01*
X112216921Y-63996613D01*
X112224773Y-64018557D01*
X112230437Y-64041166D01*
X112233856Y-64064221D01*
X112235000Y-64087500D01*
X112235000Y-64662500D01*
X112233856Y-64685779D01*
X112230437Y-64708834D01*
X112224773Y-64731443D01*
X112216921Y-64753387D01*
X112206956Y-64774457D01*
X112194974Y-64794448D01*
X112181090Y-64813168D01*
X112165438Y-64830438D01*
X112148168Y-64846090D01*
X112129448Y-64859974D01*
X112109457Y-64871956D01*
X112088387Y-64881921D01*
X112066443Y-64889773D01*
X112043834Y-64895437D01*
X112020779Y-64898856D01*
X111997500Y-64900000D01*
X111522500Y-64900000D01*
X111499221Y-64898856D01*
X111476166Y-64895437D01*
X111453557Y-64889773D01*
X111431613Y-64881921D01*
X111410543Y-64871956D01*
X111390552Y-64859974D01*
X111371832Y-64846090D01*
X111354562Y-64830438D01*
X111338910Y-64813168D01*
X111325026Y-64794448D01*
X111313044Y-64774457D01*
X111303079Y-64753387D01*
X111295227Y-64731443D01*
X111289563Y-64708834D01*
X111286144Y-64685779D01*
X111285000Y-64662500D01*
X111285000Y-64087500D01*
X111286144Y-64064221D01*
X111289563Y-64041166D01*
X111295227Y-64018557D01*
X111303079Y-63996613D01*
X111313044Y-63975543D01*
X111325026Y-63955552D01*
X111338910Y-63936832D01*
X111354562Y-63919562D01*
X111371832Y-63903910D01*
X111390552Y-63890026D01*
X111410543Y-63878044D01*
X111431613Y-63868079D01*
X111453557Y-63860227D01*
X111476166Y-63854563D01*
X111499221Y-63851144D01*
X111522500Y-63850000D01*
X111997500Y-63850000D01*
X112020779Y-63851144D01*
G37*
G04 #@! TD.AperFunction*
G04 #@! TA.AperFunction,SMDPad,CuDef*
G36*
X112020779Y-62101144D02*
G01*
X112043834Y-62104563D01*
X112066443Y-62110227D01*
X112088387Y-62118079D01*
X112109457Y-62128044D01*
X112129448Y-62140026D01*
X112148168Y-62153910D01*
X112165438Y-62169562D01*
X112181090Y-62186832D01*
X112194974Y-62205552D01*
X112206956Y-62225543D01*
X112216921Y-62246613D01*
X112224773Y-62268557D01*
X112230437Y-62291166D01*
X112233856Y-62314221D01*
X112235000Y-62337500D01*
X112235000Y-62912500D01*
X112233856Y-62935779D01*
X112230437Y-62958834D01*
X112224773Y-62981443D01*
X112216921Y-63003387D01*
X112206956Y-63024457D01*
X112194974Y-63044448D01*
X112181090Y-63063168D01*
X112165438Y-63080438D01*
X112148168Y-63096090D01*
X112129448Y-63109974D01*
X112109457Y-63121956D01*
X112088387Y-63131921D01*
X112066443Y-63139773D01*
X112043834Y-63145437D01*
X112020779Y-63148856D01*
X111997500Y-63150000D01*
X111522500Y-63150000D01*
X111499221Y-63148856D01*
X111476166Y-63145437D01*
X111453557Y-63139773D01*
X111431613Y-63131921D01*
X111410543Y-63121956D01*
X111390552Y-63109974D01*
X111371832Y-63096090D01*
X111354562Y-63080438D01*
X111338910Y-63063168D01*
X111325026Y-63044448D01*
X111313044Y-63024457D01*
X111303079Y-63003387D01*
X111295227Y-62981443D01*
X111289563Y-62958834D01*
X111286144Y-62935779D01*
X111285000Y-62912500D01*
X111285000Y-62337500D01*
X111286144Y-62314221D01*
X111289563Y-62291166D01*
X111295227Y-62268557D01*
X111303079Y-62246613D01*
X111313044Y-62225543D01*
X111325026Y-62205552D01*
X111338910Y-62186832D01*
X111354562Y-62169562D01*
X111371832Y-62153910D01*
X111390552Y-62140026D01*
X111410543Y-62128044D01*
X111431613Y-62118079D01*
X111453557Y-62110227D01*
X111476166Y-62104563D01*
X111499221Y-62101144D01*
X111522500Y-62100000D01*
X111997500Y-62100000D01*
X112020779Y-62101144D01*
G37*
G04 #@! TD.AperFunction*
G04 #@! TA.AperFunction,SMDPad,CuDef*
G36*
X109480779Y-62101144D02*
G01*
X109503834Y-62104563D01*
X109526443Y-62110227D01*
X109548387Y-62118079D01*
X109569457Y-62128044D01*
X109589448Y-62140026D01*
X109608168Y-62153910D01*
X109625438Y-62169562D01*
X109641090Y-62186832D01*
X109654974Y-62205552D01*
X109666956Y-62225543D01*
X109676921Y-62246613D01*
X109684773Y-62268557D01*
X109690437Y-62291166D01*
X109693856Y-62314221D01*
X109695000Y-62337500D01*
X109695000Y-62912500D01*
X109693856Y-62935779D01*
X109690437Y-62958834D01*
X109684773Y-62981443D01*
X109676921Y-63003387D01*
X109666956Y-63024457D01*
X109654974Y-63044448D01*
X109641090Y-63063168D01*
X109625438Y-63080438D01*
X109608168Y-63096090D01*
X109589448Y-63109974D01*
X109569457Y-63121956D01*
X109548387Y-63131921D01*
X109526443Y-63139773D01*
X109503834Y-63145437D01*
X109480779Y-63148856D01*
X109457500Y-63150000D01*
X108982500Y-63150000D01*
X108959221Y-63148856D01*
X108936166Y-63145437D01*
X108913557Y-63139773D01*
X108891613Y-63131921D01*
X108870543Y-63121956D01*
X108850552Y-63109974D01*
X108831832Y-63096090D01*
X108814562Y-63080438D01*
X108798910Y-63063168D01*
X108785026Y-63044448D01*
X108773044Y-63024457D01*
X108763079Y-63003387D01*
X108755227Y-62981443D01*
X108749563Y-62958834D01*
X108746144Y-62935779D01*
X108745000Y-62912500D01*
X108745000Y-62337500D01*
X108746144Y-62314221D01*
X108749563Y-62291166D01*
X108755227Y-62268557D01*
X108763079Y-62246613D01*
X108773044Y-62225543D01*
X108785026Y-62205552D01*
X108798910Y-62186832D01*
X108814562Y-62169562D01*
X108831832Y-62153910D01*
X108850552Y-62140026D01*
X108870543Y-62128044D01*
X108891613Y-62118079D01*
X108913557Y-62110227D01*
X108936166Y-62104563D01*
X108959221Y-62101144D01*
X108982500Y-62100000D01*
X109457500Y-62100000D01*
X109480779Y-62101144D01*
G37*
G04 #@! TD.AperFunction*
G04 #@! TA.AperFunction,SMDPad,CuDef*
G36*
X109480779Y-63851144D02*
G01*
X109503834Y-63854563D01*
X109526443Y-63860227D01*
X109548387Y-63868079D01*
X109569457Y-63878044D01*
X109589448Y-63890026D01*
X109608168Y-63903910D01*
X109625438Y-63919562D01*
X109641090Y-63936832D01*
X109654974Y-63955552D01*
X109666956Y-63975543D01*
X109676921Y-63996613D01*
X109684773Y-64018557D01*
X109690437Y-64041166D01*
X109693856Y-64064221D01*
X109695000Y-64087500D01*
X109695000Y-64662500D01*
X109693856Y-64685779D01*
X109690437Y-64708834D01*
X109684773Y-64731443D01*
X109676921Y-64753387D01*
X109666956Y-64774457D01*
X109654974Y-64794448D01*
X109641090Y-64813168D01*
X109625438Y-64830438D01*
X109608168Y-64846090D01*
X109589448Y-64859974D01*
X109569457Y-64871956D01*
X109548387Y-64881921D01*
X109526443Y-64889773D01*
X109503834Y-64895437D01*
X109480779Y-64898856D01*
X109457500Y-64900000D01*
X108982500Y-64900000D01*
X108959221Y-64898856D01*
X108936166Y-64895437D01*
X108913557Y-64889773D01*
X108891613Y-64881921D01*
X108870543Y-64871956D01*
X108850552Y-64859974D01*
X108831832Y-64846090D01*
X108814562Y-64830438D01*
X108798910Y-64813168D01*
X108785026Y-64794448D01*
X108773044Y-64774457D01*
X108763079Y-64753387D01*
X108755227Y-64731443D01*
X108749563Y-64708834D01*
X108746144Y-64685779D01*
X108745000Y-64662500D01*
X108745000Y-64087500D01*
X108746144Y-64064221D01*
X108749563Y-64041166D01*
X108755227Y-64018557D01*
X108763079Y-63996613D01*
X108773044Y-63975543D01*
X108785026Y-63955552D01*
X108798910Y-63936832D01*
X108814562Y-63919562D01*
X108831832Y-63903910D01*
X108850552Y-63890026D01*
X108870543Y-63878044D01*
X108891613Y-63868079D01*
X108913557Y-63860227D01*
X108936166Y-63854563D01*
X108959221Y-63851144D01*
X108982500Y-63850000D01*
X109457500Y-63850000D01*
X109480779Y-63851144D01*
G37*
G04 #@! TD.AperFunction*
D18*
X123700000Y-58690000D03*
X123700000Y-60690000D03*
X123700000Y-56190000D03*
X123700000Y-63190000D03*
D19*
X126450000Y-53990000D03*
X126450000Y-65390000D03*
G04 #@! TA.AperFunction,SMDPad,CuDef*
D17*
G36*
X112020779Y-67181144D02*
G01*
X112043834Y-67184563D01*
X112066443Y-67190227D01*
X112088387Y-67198079D01*
X112109457Y-67208044D01*
X112129448Y-67220026D01*
X112148168Y-67233910D01*
X112165438Y-67249562D01*
X112181090Y-67266832D01*
X112194974Y-67285552D01*
X112206956Y-67305543D01*
X112216921Y-67326613D01*
X112224773Y-67348557D01*
X112230437Y-67371166D01*
X112233856Y-67394221D01*
X112235000Y-67417500D01*
X112235000Y-67992500D01*
X112233856Y-68015779D01*
X112230437Y-68038834D01*
X112224773Y-68061443D01*
X112216921Y-68083387D01*
X112206956Y-68104457D01*
X112194974Y-68124448D01*
X112181090Y-68143168D01*
X112165438Y-68160438D01*
X112148168Y-68176090D01*
X112129448Y-68189974D01*
X112109457Y-68201956D01*
X112088387Y-68211921D01*
X112066443Y-68219773D01*
X112043834Y-68225437D01*
X112020779Y-68228856D01*
X111997500Y-68230000D01*
X111522500Y-68230000D01*
X111499221Y-68228856D01*
X111476166Y-68225437D01*
X111453557Y-68219773D01*
X111431613Y-68211921D01*
X111410543Y-68201956D01*
X111390552Y-68189974D01*
X111371832Y-68176090D01*
X111354562Y-68160438D01*
X111338910Y-68143168D01*
X111325026Y-68124448D01*
X111313044Y-68104457D01*
X111303079Y-68083387D01*
X111295227Y-68061443D01*
X111289563Y-68038834D01*
X111286144Y-68015779D01*
X111285000Y-67992500D01*
X111285000Y-67417500D01*
X111286144Y-67394221D01*
X111289563Y-67371166D01*
X111295227Y-67348557D01*
X111303079Y-67326613D01*
X111313044Y-67305543D01*
X111325026Y-67285552D01*
X111338910Y-67266832D01*
X111354562Y-67249562D01*
X111371832Y-67233910D01*
X111390552Y-67220026D01*
X111410543Y-67208044D01*
X111431613Y-67198079D01*
X111453557Y-67190227D01*
X111476166Y-67184563D01*
X111499221Y-67181144D01*
X111522500Y-67180000D01*
X111997500Y-67180000D01*
X112020779Y-67181144D01*
G37*
G04 #@! TD.AperFunction*
G04 #@! TA.AperFunction,SMDPad,CuDef*
G36*
X112020779Y-68931144D02*
G01*
X112043834Y-68934563D01*
X112066443Y-68940227D01*
X112088387Y-68948079D01*
X112109457Y-68958044D01*
X112129448Y-68970026D01*
X112148168Y-68983910D01*
X112165438Y-68999562D01*
X112181090Y-69016832D01*
X112194974Y-69035552D01*
X112206956Y-69055543D01*
X112216921Y-69076613D01*
X112224773Y-69098557D01*
X112230437Y-69121166D01*
X112233856Y-69144221D01*
X112235000Y-69167500D01*
X112235000Y-69742500D01*
X112233856Y-69765779D01*
X112230437Y-69788834D01*
X112224773Y-69811443D01*
X112216921Y-69833387D01*
X112206956Y-69854457D01*
X112194974Y-69874448D01*
X112181090Y-69893168D01*
X112165438Y-69910438D01*
X112148168Y-69926090D01*
X112129448Y-69939974D01*
X112109457Y-69951956D01*
X112088387Y-69961921D01*
X112066443Y-69969773D01*
X112043834Y-69975437D01*
X112020779Y-69978856D01*
X111997500Y-69980000D01*
X111522500Y-69980000D01*
X111499221Y-69978856D01*
X111476166Y-69975437D01*
X111453557Y-69969773D01*
X111431613Y-69961921D01*
X111410543Y-69951956D01*
X111390552Y-69939974D01*
X111371832Y-69926090D01*
X111354562Y-69910438D01*
X111338910Y-69893168D01*
X111325026Y-69874448D01*
X111313044Y-69854457D01*
X111303079Y-69833387D01*
X111295227Y-69811443D01*
X111289563Y-69788834D01*
X111286144Y-69765779D01*
X111285000Y-69742500D01*
X111285000Y-69167500D01*
X111286144Y-69144221D01*
X111289563Y-69121166D01*
X111295227Y-69098557D01*
X111303079Y-69076613D01*
X111313044Y-69055543D01*
X111325026Y-69035552D01*
X111338910Y-69016832D01*
X111354562Y-68999562D01*
X111371832Y-68983910D01*
X111390552Y-68970026D01*
X111410543Y-68958044D01*
X111431613Y-68948079D01*
X111453557Y-68940227D01*
X111476166Y-68934563D01*
X111499221Y-68931144D01*
X111522500Y-68930000D01*
X111997500Y-68930000D01*
X112020779Y-68931144D01*
G37*
G04 #@! TD.AperFunction*
G04 #@! TA.AperFunction,SMDPad,CuDef*
G36*
X109480779Y-68931144D02*
G01*
X109503834Y-68934563D01*
X109526443Y-68940227D01*
X109548387Y-68948079D01*
X109569457Y-68958044D01*
X109589448Y-68970026D01*
X109608168Y-68983910D01*
X109625438Y-68999562D01*
X109641090Y-69016832D01*
X109654974Y-69035552D01*
X109666956Y-69055543D01*
X109676921Y-69076613D01*
X109684773Y-69098557D01*
X109690437Y-69121166D01*
X109693856Y-69144221D01*
X109695000Y-69167500D01*
X109695000Y-69742500D01*
X109693856Y-69765779D01*
X109690437Y-69788834D01*
X109684773Y-69811443D01*
X109676921Y-69833387D01*
X109666956Y-69854457D01*
X109654974Y-69874448D01*
X109641090Y-69893168D01*
X109625438Y-69910438D01*
X109608168Y-69926090D01*
X109589448Y-69939974D01*
X109569457Y-69951956D01*
X109548387Y-69961921D01*
X109526443Y-69969773D01*
X109503834Y-69975437D01*
X109480779Y-69978856D01*
X109457500Y-69980000D01*
X108982500Y-69980000D01*
X108959221Y-69978856D01*
X108936166Y-69975437D01*
X108913557Y-69969773D01*
X108891613Y-69961921D01*
X108870543Y-69951956D01*
X108850552Y-69939974D01*
X108831832Y-69926090D01*
X108814562Y-69910438D01*
X108798910Y-69893168D01*
X108785026Y-69874448D01*
X108773044Y-69854457D01*
X108763079Y-69833387D01*
X108755227Y-69811443D01*
X108749563Y-69788834D01*
X108746144Y-69765779D01*
X108745000Y-69742500D01*
X108745000Y-69167500D01*
X108746144Y-69144221D01*
X108749563Y-69121166D01*
X108755227Y-69098557D01*
X108763079Y-69076613D01*
X108773044Y-69055543D01*
X108785026Y-69035552D01*
X108798910Y-69016832D01*
X108814562Y-68999562D01*
X108831832Y-68983910D01*
X108850552Y-68970026D01*
X108870543Y-68958044D01*
X108891613Y-68948079D01*
X108913557Y-68940227D01*
X108936166Y-68934563D01*
X108959221Y-68931144D01*
X108982500Y-68930000D01*
X109457500Y-68930000D01*
X109480779Y-68931144D01*
G37*
G04 #@! TD.AperFunction*
G04 #@! TA.AperFunction,SMDPad,CuDef*
G36*
X109480779Y-67181144D02*
G01*
X109503834Y-67184563D01*
X109526443Y-67190227D01*
X109548387Y-67198079D01*
X109569457Y-67208044D01*
X109589448Y-67220026D01*
X109608168Y-67233910D01*
X109625438Y-67249562D01*
X109641090Y-67266832D01*
X109654974Y-67285552D01*
X109666956Y-67305543D01*
X109676921Y-67326613D01*
X109684773Y-67348557D01*
X109690437Y-67371166D01*
X109693856Y-67394221D01*
X109695000Y-67417500D01*
X109695000Y-67992500D01*
X109693856Y-68015779D01*
X109690437Y-68038834D01*
X109684773Y-68061443D01*
X109676921Y-68083387D01*
X109666956Y-68104457D01*
X109654974Y-68124448D01*
X109641090Y-68143168D01*
X109625438Y-68160438D01*
X109608168Y-68176090D01*
X109589448Y-68189974D01*
X109569457Y-68201956D01*
X109548387Y-68211921D01*
X109526443Y-68219773D01*
X109503834Y-68225437D01*
X109480779Y-68228856D01*
X109457500Y-68230000D01*
X108982500Y-68230000D01*
X108959221Y-68228856D01*
X108936166Y-68225437D01*
X108913557Y-68219773D01*
X108891613Y-68211921D01*
X108870543Y-68201956D01*
X108850552Y-68189974D01*
X108831832Y-68176090D01*
X108814562Y-68160438D01*
X108798910Y-68143168D01*
X108785026Y-68124448D01*
X108773044Y-68104457D01*
X108763079Y-68083387D01*
X108755227Y-68061443D01*
X108749563Y-68038834D01*
X108746144Y-68015779D01*
X108745000Y-67992500D01*
X108745000Y-67417500D01*
X108746144Y-67394221D01*
X108749563Y-67371166D01*
X108755227Y-67348557D01*
X108763079Y-67326613D01*
X108773044Y-67305543D01*
X108785026Y-67285552D01*
X108798910Y-67266832D01*
X108814562Y-67249562D01*
X108831832Y-67233910D01*
X108850552Y-67220026D01*
X108870543Y-67208044D01*
X108891613Y-67198079D01*
X108913557Y-67190227D01*
X108936166Y-67184563D01*
X108959221Y-67181144D01*
X108982500Y-67180000D01*
X109457500Y-67180000D01*
X109480779Y-67181144D01*
G37*
G04 #@! TD.AperFunction*
D20*
X107950000Y-50190000D03*
D21*
X107950000Y-56490000D03*
X110250000Y-56490000D03*
X105650000Y-56490000D03*
D22*
X97739200Y-66802000D03*
X97739200Y-65532000D03*
X97739200Y-64262000D03*
X97739200Y-62992000D03*
X97739200Y-61722000D03*
X97739200Y-60452000D03*
X97739200Y-57912000D03*
X97739200Y-59182000D03*
X97739200Y-56642000D03*
X97739200Y-55372000D03*
X97739200Y-54102000D03*
X97739200Y-52832000D03*
D23*
X95859600Y-49911000D03*
X94589600Y-49911000D03*
X93319600Y-49911000D03*
X92049600Y-49911000D03*
X90779600Y-49911000D03*
X89509600Y-49911000D03*
X88239600Y-49911000D03*
X86969600Y-49911000D03*
X85699600Y-49911000D03*
X84429600Y-49911000D03*
X83159600Y-49911000D03*
X95834200Y-69824600D03*
X94564200Y-69824600D03*
X93294200Y-69824600D03*
X92024200Y-69824600D03*
X90754200Y-69824600D03*
X89484200Y-69824600D03*
X88214200Y-69824600D03*
X86944200Y-69824600D03*
X85674200Y-69824600D03*
X84404200Y-69824600D03*
X83134200Y-69824600D03*
X67818000Y-69773800D03*
X69088000Y-69773800D03*
X70358000Y-69773800D03*
G04 #@! TA.AperFunction,SMDPad,CuDef*
D17*
G36*
X117100779Y-51151144D02*
G01*
X117123834Y-51154563D01*
X117146443Y-51160227D01*
X117168387Y-51168079D01*
X117189457Y-51178044D01*
X117209448Y-51190026D01*
X117228168Y-51203910D01*
X117245438Y-51219562D01*
X117261090Y-51236832D01*
X117274974Y-51255552D01*
X117286956Y-51275543D01*
X117296921Y-51296613D01*
X117304773Y-51318557D01*
X117310437Y-51341166D01*
X117313856Y-51364221D01*
X117315000Y-51387500D01*
X117315000Y-51962500D01*
X117313856Y-51985779D01*
X117310437Y-52008834D01*
X117304773Y-52031443D01*
X117296921Y-52053387D01*
X117286956Y-52074457D01*
X117274974Y-52094448D01*
X117261090Y-52113168D01*
X117245438Y-52130438D01*
X117228168Y-52146090D01*
X117209448Y-52159974D01*
X117189457Y-52171956D01*
X117168387Y-52181921D01*
X117146443Y-52189773D01*
X117123834Y-52195437D01*
X117100779Y-52198856D01*
X117077500Y-52200000D01*
X116602500Y-52200000D01*
X116579221Y-52198856D01*
X116556166Y-52195437D01*
X116533557Y-52189773D01*
X116511613Y-52181921D01*
X116490543Y-52171956D01*
X116470552Y-52159974D01*
X116451832Y-52146090D01*
X116434562Y-52130438D01*
X116418910Y-52113168D01*
X116405026Y-52094448D01*
X116393044Y-52074457D01*
X116383079Y-52053387D01*
X116375227Y-52031443D01*
X116369563Y-52008834D01*
X116366144Y-51985779D01*
X116365000Y-51962500D01*
X116365000Y-51387500D01*
X116366144Y-51364221D01*
X116369563Y-51341166D01*
X116375227Y-51318557D01*
X116383079Y-51296613D01*
X116393044Y-51275543D01*
X116405026Y-51255552D01*
X116418910Y-51236832D01*
X116434562Y-51219562D01*
X116451832Y-51203910D01*
X116470552Y-51190026D01*
X116490543Y-51178044D01*
X116511613Y-51168079D01*
X116533557Y-51160227D01*
X116556166Y-51154563D01*
X116579221Y-51151144D01*
X116602500Y-51150000D01*
X117077500Y-51150000D01*
X117100779Y-51151144D01*
G37*
G04 #@! TD.AperFunction*
G04 #@! TA.AperFunction,SMDPad,CuDef*
G36*
X117100779Y-49401144D02*
G01*
X117123834Y-49404563D01*
X117146443Y-49410227D01*
X117168387Y-49418079D01*
X117189457Y-49428044D01*
X117209448Y-49440026D01*
X117228168Y-49453910D01*
X117245438Y-49469562D01*
X117261090Y-49486832D01*
X117274974Y-49505552D01*
X117286956Y-49525543D01*
X117296921Y-49546613D01*
X117304773Y-49568557D01*
X117310437Y-49591166D01*
X117313856Y-49614221D01*
X117315000Y-49637500D01*
X117315000Y-50212500D01*
X117313856Y-50235779D01*
X117310437Y-50258834D01*
X117304773Y-50281443D01*
X117296921Y-50303387D01*
X117286956Y-50324457D01*
X117274974Y-50344448D01*
X117261090Y-50363168D01*
X117245438Y-50380438D01*
X117228168Y-50396090D01*
X117209448Y-50409974D01*
X117189457Y-50421956D01*
X117168387Y-50431921D01*
X117146443Y-50439773D01*
X117123834Y-50445437D01*
X117100779Y-50448856D01*
X117077500Y-50450000D01*
X116602500Y-50450000D01*
X116579221Y-50448856D01*
X116556166Y-50445437D01*
X116533557Y-50439773D01*
X116511613Y-50431921D01*
X116490543Y-50421956D01*
X116470552Y-50409974D01*
X116451832Y-50396090D01*
X116434562Y-50380438D01*
X116418910Y-50363168D01*
X116405026Y-50344448D01*
X116393044Y-50324457D01*
X116383079Y-50303387D01*
X116375227Y-50281443D01*
X116369563Y-50258834D01*
X116366144Y-50235779D01*
X116365000Y-50212500D01*
X116365000Y-49637500D01*
X116366144Y-49614221D01*
X116369563Y-49591166D01*
X116375227Y-49568557D01*
X116383079Y-49546613D01*
X116393044Y-49525543D01*
X116405026Y-49505552D01*
X116418910Y-49486832D01*
X116434562Y-49469562D01*
X116451832Y-49453910D01*
X116470552Y-49440026D01*
X116490543Y-49428044D01*
X116511613Y-49418079D01*
X116533557Y-49410227D01*
X116556166Y-49404563D01*
X116579221Y-49401144D01*
X116602500Y-49400000D01*
X117077500Y-49400000D01*
X117100779Y-49401144D01*
G37*
G04 #@! TD.AperFunction*
G04 #@! TA.AperFunction,SMDPad,CuDef*
G36*
X114560779Y-49401144D02*
G01*
X114583834Y-49404563D01*
X114606443Y-49410227D01*
X114628387Y-49418079D01*
X114649457Y-49428044D01*
X114669448Y-49440026D01*
X114688168Y-49453910D01*
X114705438Y-49469562D01*
X114721090Y-49486832D01*
X114734974Y-49505552D01*
X114746956Y-49525543D01*
X114756921Y-49546613D01*
X114764773Y-49568557D01*
X114770437Y-49591166D01*
X114773856Y-49614221D01*
X114775000Y-49637500D01*
X114775000Y-50212500D01*
X114773856Y-50235779D01*
X114770437Y-50258834D01*
X114764773Y-50281443D01*
X114756921Y-50303387D01*
X114746956Y-50324457D01*
X114734974Y-50344448D01*
X114721090Y-50363168D01*
X114705438Y-50380438D01*
X114688168Y-50396090D01*
X114669448Y-50409974D01*
X114649457Y-50421956D01*
X114628387Y-50431921D01*
X114606443Y-50439773D01*
X114583834Y-50445437D01*
X114560779Y-50448856D01*
X114537500Y-50450000D01*
X114062500Y-50450000D01*
X114039221Y-50448856D01*
X114016166Y-50445437D01*
X113993557Y-50439773D01*
X113971613Y-50431921D01*
X113950543Y-50421956D01*
X113930552Y-50409974D01*
X113911832Y-50396090D01*
X113894562Y-50380438D01*
X113878910Y-50363168D01*
X113865026Y-50344448D01*
X113853044Y-50324457D01*
X113843079Y-50303387D01*
X113835227Y-50281443D01*
X113829563Y-50258834D01*
X113826144Y-50235779D01*
X113825000Y-50212500D01*
X113825000Y-49637500D01*
X113826144Y-49614221D01*
X113829563Y-49591166D01*
X113835227Y-49568557D01*
X113843079Y-49546613D01*
X113853044Y-49525543D01*
X113865026Y-49505552D01*
X113878910Y-49486832D01*
X113894562Y-49469562D01*
X113911832Y-49453910D01*
X113930552Y-49440026D01*
X113950543Y-49428044D01*
X113971613Y-49418079D01*
X113993557Y-49410227D01*
X114016166Y-49404563D01*
X114039221Y-49401144D01*
X114062500Y-49400000D01*
X114537500Y-49400000D01*
X114560779Y-49401144D01*
G37*
G04 #@! TD.AperFunction*
G04 #@! TA.AperFunction,SMDPad,CuDef*
G36*
X114560779Y-51151144D02*
G01*
X114583834Y-51154563D01*
X114606443Y-51160227D01*
X114628387Y-51168079D01*
X114649457Y-51178044D01*
X114669448Y-51190026D01*
X114688168Y-51203910D01*
X114705438Y-51219562D01*
X114721090Y-51236832D01*
X114734974Y-51255552D01*
X114746956Y-51275543D01*
X114756921Y-51296613D01*
X114764773Y-51318557D01*
X114770437Y-51341166D01*
X114773856Y-51364221D01*
X114775000Y-51387500D01*
X114775000Y-51962500D01*
X114773856Y-51985779D01*
X114770437Y-52008834D01*
X114764773Y-52031443D01*
X114756921Y-52053387D01*
X114746956Y-52074457D01*
X114734974Y-52094448D01*
X114721090Y-52113168D01*
X114705438Y-52130438D01*
X114688168Y-52146090D01*
X114669448Y-52159974D01*
X114649457Y-52171956D01*
X114628387Y-52181921D01*
X114606443Y-52189773D01*
X114583834Y-52195437D01*
X114560779Y-52198856D01*
X114537500Y-52200000D01*
X114062500Y-52200000D01*
X114039221Y-52198856D01*
X114016166Y-52195437D01*
X113993557Y-52189773D01*
X113971613Y-52181921D01*
X113950543Y-52171956D01*
X113930552Y-52159974D01*
X113911832Y-52146090D01*
X113894562Y-52130438D01*
X113878910Y-52113168D01*
X113865026Y-52094448D01*
X113853044Y-52074457D01*
X113843079Y-52053387D01*
X113835227Y-52031443D01*
X113829563Y-52008834D01*
X113826144Y-51985779D01*
X113825000Y-51962500D01*
X113825000Y-51387500D01*
X113826144Y-51364221D01*
X113829563Y-51341166D01*
X113835227Y-51318557D01*
X113843079Y-51296613D01*
X113853044Y-51275543D01*
X113865026Y-51255552D01*
X113878910Y-51236832D01*
X113894562Y-51219562D01*
X113911832Y-51203910D01*
X113930552Y-51190026D01*
X113950543Y-51178044D01*
X113971613Y-51168079D01*
X113993557Y-51160227D01*
X114016166Y-51154563D01*
X114039221Y-51151144D01*
X114062500Y-51150000D01*
X114537500Y-51150000D01*
X114560779Y-51151144D01*
G37*
G04 #@! TD.AperFunction*
G04 #@! TA.AperFunction,SMDPad,CuDef*
G36*
X101860779Y-50671144D02*
G01*
X101883834Y-50674563D01*
X101906443Y-50680227D01*
X101928387Y-50688079D01*
X101949457Y-50698044D01*
X101969448Y-50710026D01*
X101988168Y-50723910D01*
X102005438Y-50739562D01*
X102021090Y-50756832D01*
X102034974Y-50775552D01*
X102046956Y-50795543D01*
X102056921Y-50816613D01*
X102064773Y-50838557D01*
X102070437Y-50861166D01*
X102073856Y-50884221D01*
X102075000Y-50907500D01*
X102075000Y-51482500D01*
X102073856Y-51505779D01*
X102070437Y-51528834D01*
X102064773Y-51551443D01*
X102056921Y-51573387D01*
X102046956Y-51594457D01*
X102034974Y-51614448D01*
X102021090Y-51633168D01*
X102005438Y-51650438D01*
X101988168Y-51666090D01*
X101969448Y-51679974D01*
X101949457Y-51691956D01*
X101928387Y-51701921D01*
X101906443Y-51709773D01*
X101883834Y-51715437D01*
X101860779Y-51718856D01*
X101837500Y-51720000D01*
X101362500Y-51720000D01*
X101339221Y-51718856D01*
X101316166Y-51715437D01*
X101293557Y-51709773D01*
X101271613Y-51701921D01*
X101250543Y-51691956D01*
X101230552Y-51679974D01*
X101211832Y-51666090D01*
X101194562Y-51650438D01*
X101178910Y-51633168D01*
X101165026Y-51614448D01*
X101153044Y-51594457D01*
X101143079Y-51573387D01*
X101135227Y-51551443D01*
X101129563Y-51528834D01*
X101126144Y-51505779D01*
X101125000Y-51482500D01*
X101125000Y-50907500D01*
X101126144Y-50884221D01*
X101129563Y-50861166D01*
X101135227Y-50838557D01*
X101143079Y-50816613D01*
X101153044Y-50795543D01*
X101165026Y-50775552D01*
X101178910Y-50756832D01*
X101194562Y-50739562D01*
X101211832Y-50723910D01*
X101230552Y-50710026D01*
X101250543Y-50698044D01*
X101271613Y-50688079D01*
X101293557Y-50680227D01*
X101316166Y-50674563D01*
X101339221Y-50671144D01*
X101362500Y-50670000D01*
X101837500Y-50670000D01*
X101860779Y-50671144D01*
G37*
G04 #@! TD.AperFunction*
G04 #@! TA.AperFunction,SMDPad,CuDef*
G36*
X101860779Y-52421144D02*
G01*
X101883834Y-52424563D01*
X101906443Y-52430227D01*
X101928387Y-52438079D01*
X101949457Y-52448044D01*
X101969448Y-52460026D01*
X101988168Y-52473910D01*
X102005438Y-52489562D01*
X102021090Y-52506832D01*
X102034974Y-52525552D01*
X102046956Y-52545543D01*
X102056921Y-52566613D01*
X102064773Y-52588557D01*
X102070437Y-52611166D01*
X102073856Y-52634221D01*
X102075000Y-52657500D01*
X102075000Y-53232500D01*
X102073856Y-53255779D01*
X102070437Y-53278834D01*
X102064773Y-53301443D01*
X102056921Y-53323387D01*
X102046956Y-53344457D01*
X102034974Y-53364448D01*
X102021090Y-53383168D01*
X102005438Y-53400438D01*
X101988168Y-53416090D01*
X101969448Y-53429974D01*
X101949457Y-53441956D01*
X101928387Y-53451921D01*
X101906443Y-53459773D01*
X101883834Y-53465437D01*
X101860779Y-53468856D01*
X101837500Y-53470000D01*
X101362500Y-53470000D01*
X101339221Y-53468856D01*
X101316166Y-53465437D01*
X101293557Y-53459773D01*
X101271613Y-53451921D01*
X101250543Y-53441956D01*
X101230552Y-53429974D01*
X101211832Y-53416090D01*
X101194562Y-53400438D01*
X101178910Y-53383168D01*
X101165026Y-53364448D01*
X101153044Y-53344457D01*
X101143079Y-53323387D01*
X101135227Y-53301443D01*
X101129563Y-53278834D01*
X101126144Y-53255779D01*
X101125000Y-53232500D01*
X101125000Y-52657500D01*
X101126144Y-52634221D01*
X101129563Y-52611166D01*
X101135227Y-52588557D01*
X101143079Y-52566613D01*
X101153044Y-52545543D01*
X101165026Y-52525552D01*
X101178910Y-52506832D01*
X101194562Y-52489562D01*
X101211832Y-52473910D01*
X101230552Y-52460026D01*
X101250543Y-52448044D01*
X101271613Y-52438079D01*
X101293557Y-52430227D01*
X101316166Y-52424563D01*
X101339221Y-52421144D01*
X101362500Y-52420000D01*
X101837500Y-52420000D01*
X101860779Y-52421144D01*
G37*
G04 #@! TD.AperFunction*
D24*
X111760000Y-53340000D03*
X106680000Y-53340000D03*
X116840000Y-62230000D03*
X120650000Y-62230000D03*
X118262706Y-66939994D03*
X92710000Y-67310000D03*
X107950000Y-60960000D03*
X88900000Y-67310000D03*
X109220000Y-59690000D03*
X85090000Y-67310000D03*
X91440034Y-66040000D03*
X115570000Y-66040000D03*
X99060000Y-68580000D03*
X125730000Y-50800000D03*
X110490000Y-52070000D03*
X100330000Y-54610000D03*
D25*
X125350000Y-63190000D02*
X123700000Y-63190000D01*
X126450000Y-64040000D02*
X125600000Y-63190000D01*
X125600000Y-63190000D02*
X125350000Y-63190000D01*
X114300000Y-69455000D02*
X111760000Y-69455000D01*
X111760000Y-69455000D02*
X109220000Y-69455000D01*
D26*
X103505000Y-52945000D02*
X105650000Y-55090000D01*
X101600000Y-52945000D02*
X103505000Y-52945000D01*
X105650000Y-55090000D02*
X105650000Y-56490000D01*
D25*
X97852200Y-52945000D02*
X97739200Y-52832000D01*
X101600000Y-52945000D02*
X97852200Y-52945000D01*
X83083400Y-69773800D02*
X83134200Y-69824600D01*
X70358000Y-69773800D02*
X83083400Y-69773800D01*
X128600000Y-55340000D02*
X127250000Y-53990000D01*
X128600000Y-61890000D02*
X128600000Y-55340000D01*
X126450000Y-64040000D02*
X128600000Y-61890000D01*
X127250000Y-53990000D02*
X126450000Y-53990000D01*
X126450000Y-65390000D02*
X126450000Y-64040000D01*
X95250000Y-54321200D02*
X95250000Y-65312800D01*
D27*
X118110000Y-62890000D02*
X118110000Y-63840000D01*
X118110000Y-62510000D02*
X118110000Y-62890000D01*
X117340000Y-61740000D02*
X118110000Y-62510000D01*
X117340000Y-60790000D02*
X117340000Y-61740000D01*
D26*
X113825000Y-55005000D02*
X112160000Y-53340000D01*
X112160000Y-53340000D02*
X111760000Y-53340000D01*
D25*
X111760000Y-53340000D02*
X111760000Y-53340000D01*
D26*
X106680000Y-54060000D02*
X105650000Y-55090000D01*
X106680000Y-53340000D02*
X106680000Y-54060000D01*
D25*
X96739200Y-66802000D02*
X95250000Y-65312800D01*
X97739200Y-66802000D02*
X96739200Y-66802000D01*
X83134200Y-66725800D02*
X83134200Y-69824600D01*
X84620001Y-65239999D02*
X83134200Y-66725800D01*
X95250000Y-65312800D02*
X95177199Y-65239999D01*
X95177199Y-65239999D02*
X84620001Y-65239999D01*
X117315000Y-49925000D02*
X118110000Y-50720000D01*
X116840000Y-49925000D02*
X117315000Y-49925000D01*
X118110000Y-50720000D02*
X118110000Y-53340000D01*
X118110000Y-53340000D02*
X117460000Y-53990000D01*
X117330000Y-61740000D02*
X117340000Y-61740000D01*
X116840000Y-62230000D02*
X117330000Y-61740000D01*
X117330000Y-60800000D02*
X117340000Y-60790000D01*
X117330000Y-61740000D02*
X117330000Y-60800000D01*
X121610000Y-63190000D02*
X121049999Y-62629999D01*
X121049999Y-62629999D02*
X120650000Y-62230000D01*
X123700000Y-63190000D02*
X121610000Y-63190000D01*
X122160000Y-53990000D02*
X124300000Y-53990000D01*
X120220000Y-52050000D02*
X122160000Y-53990000D01*
X124300000Y-53990000D02*
X126450000Y-53990000D01*
X120220000Y-50800000D02*
X120220000Y-52050000D01*
X105650000Y-62697106D02*
X105650000Y-57890000D01*
X104847106Y-63500000D02*
X105650000Y-62697106D01*
X105650000Y-57890000D02*
X105650000Y-56490000D01*
X104140000Y-63500000D02*
X104847106Y-63500000D01*
X123700000Y-64140000D02*
X123700000Y-63190000D01*
X119089991Y-69830011D02*
X123700000Y-65220002D01*
X123700000Y-65220002D02*
X123700000Y-64140000D01*
X115150011Y-69830011D02*
X119089991Y-69830011D01*
X114775000Y-69455000D02*
X115150011Y-69830011D01*
X114300000Y-69455000D02*
X114775000Y-69455000D01*
X96231200Y-53340000D02*
X95250000Y-54321200D01*
X96231200Y-53240000D02*
X96231200Y-53340000D01*
X96639200Y-52832000D02*
X96231200Y-53240000D01*
X97739200Y-52832000D02*
X96639200Y-52832000D01*
D26*
X83159600Y-52679600D02*
X83159600Y-49911000D01*
X96231200Y-53340000D02*
X83820000Y-53340000D01*
X83820000Y-53340000D02*
X83159600Y-52679600D01*
X126450000Y-53990000D02*
X117460000Y-53990000D01*
X116445000Y-55005000D02*
X114300000Y-55005000D01*
X117460000Y-53990000D02*
X116445000Y-55005000D01*
X110515000Y-56755000D02*
X110250000Y-56490000D01*
X114300000Y-56755000D02*
X110515000Y-56755000D01*
X114300000Y-56755000D02*
X121045000Y-56755000D01*
X121045000Y-56755000D02*
X121610000Y-56190000D01*
X121610000Y-56190000D02*
X123700000Y-56190000D01*
X107950000Y-50190000D02*
X107950000Y-56490000D01*
D25*
X108560000Y-50800000D02*
X107950000Y-50190000D01*
D26*
X101600000Y-50670000D02*
X101600000Y-51195000D01*
X107950000Y-50190000D02*
X102080000Y-50190000D01*
X102080000Y-50190000D02*
X101600000Y-50670000D01*
D25*
X84429600Y-50139600D02*
X84429600Y-49911000D01*
X114300000Y-67705000D02*
X114300000Y-67180000D01*
D28*
X113499996Y-66379996D02*
X113499996Y-62289996D01*
X108790000Y-57580000D02*
X107950000Y-56740000D01*
X113499996Y-62289996D02*
X108790000Y-57580000D01*
X107950000Y-56740000D02*
X107950000Y-56490000D01*
D25*
X114180038Y-67060038D02*
X113499996Y-66379996D01*
X114300000Y-67180000D02*
X114180038Y-67060038D01*
D27*
X116882450Y-66562450D02*
X116882450Y-64942448D01*
X117610000Y-67290000D02*
X116882450Y-66562450D01*
X117610000Y-68240000D02*
X117610000Y-67290000D01*
X119110000Y-66562820D02*
X117489628Y-64942448D01*
X119110000Y-68240000D02*
X119110000Y-66562820D01*
X117489628Y-64942448D02*
X116882450Y-64942448D01*
D25*
X108215000Y-49925000D02*
X107950000Y-50190000D01*
X114300000Y-49925000D02*
X108215000Y-49925000D01*
D28*
X117160000Y-58590000D02*
X109879998Y-58590000D01*
D25*
X113499996Y-66379996D02*
X113499996Y-64300004D01*
X113499996Y-64300004D02*
X114142440Y-64942448D01*
X114142440Y-64942448D02*
X116882450Y-64942448D01*
X107950000Y-57890000D02*
X107950000Y-56490000D01*
X107149999Y-58690001D02*
X107950000Y-57890000D01*
X107149999Y-62660001D02*
X107149999Y-58690001D01*
X105040000Y-64770000D02*
X107149999Y-62660001D01*
X104140000Y-64770000D02*
X105040000Y-64770000D01*
D26*
X84429600Y-51470300D02*
X84429600Y-49911000D01*
X96369814Y-52070000D02*
X85029300Y-52070000D01*
X85029300Y-52070000D02*
X84429600Y-51470300D01*
X101600000Y-51195000D02*
X97244814Y-51195000D01*
X97244814Y-51195000D02*
X96369814Y-52070000D01*
D27*
X118610000Y-67287288D02*
X118262706Y-66939994D01*
X118610000Y-68240000D02*
X118610000Y-67287288D01*
X92024200Y-67995800D02*
X92024200Y-69824600D01*
X92710000Y-67310000D02*
X92024200Y-67995800D01*
X108745000Y-62625000D02*
X107950000Y-61830000D01*
X109220000Y-62625000D02*
X108745000Y-62625000D01*
X107950000Y-61830000D02*
X107950000Y-60960000D01*
X107950000Y-60960000D02*
X107950000Y-60960000D01*
X89484200Y-67894200D02*
X89484200Y-69824600D01*
X88900000Y-67310000D02*
X89484200Y-67894200D01*
X111285000Y-62625000D02*
X109220000Y-60560000D01*
X111760000Y-62625000D02*
X111285000Y-62625000D01*
X109220000Y-60560000D02*
X109220000Y-59690000D01*
X109220000Y-59690000D02*
X109220000Y-59690000D01*
X84404200Y-69824600D02*
X84404200Y-67995800D01*
X84404200Y-67995800D02*
X85090000Y-67310000D01*
X117994999Y-69305001D02*
X116011987Y-69305001D01*
X116011987Y-69305001D02*
X115570000Y-68863014D01*
X118110000Y-69190000D02*
X117994999Y-69305001D01*
X118110000Y-68240000D02*
X118110000Y-69190000D01*
X115570000Y-68863014D02*
X115570000Y-66605685D01*
X115570000Y-66605685D02*
X115570000Y-66040000D01*
X91040035Y-66439999D02*
X91440034Y-66040000D01*
X90754200Y-69824600D02*
X90754200Y-66725834D01*
X90754200Y-66725834D02*
X91040035Y-66439999D01*
X94958800Y-68580000D02*
X94958800Y-68580000D01*
X94564200Y-68974600D02*
X94958800Y-68580000D01*
X94958800Y-68580000D02*
X99060000Y-68580000D01*
X94564200Y-69824600D02*
X94564200Y-68974600D01*
X123620000Y-50800000D02*
X125730000Y-50800000D01*
X125730000Y-50800000D02*
X125730000Y-50800000D01*
X102108000Y-65532000D02*
X97739200Y-65532000D01*
X102870000Y-64770000D02*
X102108000Y-65532000D01*
X102108000Y-64262000D02*
X97739200Y-64262000D01*
X102870000Y-63500000D02*
X102108000Y-64262000D01*
X111055685Y-52070000D02*
X110490000Y-52070000D01*
X116840000Y-51675000D02*
X114300000Y-51675000D01*
X111450685Y-51675000D02*
X111055685Y-52070000D01*
X114300000Y-51675000D02*
X111450685Y-51675000D01*
X100330000Y-59690000D02*
X100330000Y-54610000D01*
X102870000Y-62230000D02*
X100330000Y-59690000D01*
X99930001Y-54210001D02*
X100330000Y-54610000D01*
X97739200Y-54102000D02*
X99822000Y-54102000D01*
X99822000Y-54102000D02*
X99930001Y-54210001D01*
X111760000Y-64375000D02*
X111760000Y-67705000D01*
X109220000Y-64375000D02*
X109220000Y-67705000D01*
X119160000Y-58690000D02*
X119060000Y-58590000D01*
X123700000Y-58690000D02*
X119160000Y-58690000D01*
D29*
X118610000Y-62408946D02*
X118610000Y-62940000D01*
X118240001Y-62038947D02*
X118610000Y-62408946D01*
X118240001Y-58709999D02*
X118240001Y-62038947D01*
X118610000Y-62940000D02*
X118610000Y-63840000D01*
X118360000Y-58590000D02*
X118240001Y-58709999D01*
X119060000Y-58590000D02*
X118360000Y-58590000D01*
D27*
X119160000Y-60690000D02*
X119060000Y-60790000D01*
X123700000Y-60690000D02*
X119160000Y-60690000D01*
X119110000Y-61790000D02*
X119110000Y-62890000D01*
X119060000Y-61740000D02*
X119110000Y-61790000D01*
X119110000Y-62890000D02*
X119110000Y-63840000D01*
X119060000Y-60790000D02*
X119060000Y-61740000D01*
D30*
G36*
X115834463Y-49045506D02*
G01*
X115775498Y-49155820D01*
X115739188Y-49275518D01*
X115726928Y-49400000D01*
X115730000Y-49639250D01*
X115888750Y-49798000D01*
X116713000Y-49798000D01*
X116713000Y-49778000D01*
X116967000Y-49778000D01*
X116967000Y-49798000D01*
X117791250Y-49798000D01*
X117950000Y-49639250D01*
X117953072Y-49400000D01*
X117940812Y-49275518D01*
X117904502Y-49155820D01*
X117845537Y-49045506D01*
X117783571Y-48970000D01*
X128830000Y-48970000D01*
X128830000Y-53862998D01*
X128670585Y-53862998D01*
X128790586Y-53617412D01*
X128762949Y-53500779D01*
X128638436Y-53215017D01*
X128460566Y-52959038D01*
X128236175Y-52742678D01*
X127973886Y-52574252D01*
X127683778Y-52460232D01*
X127377000Y-52405000D01*
X126577000Y-52405000D01*
X126577000Y-53863000D01*
X126597000Y-53863000D01*
X126597000Y-54117000D01*
X126577000Y-54117000D01*
X126577000Y-55575000D01*
X127377000Y-55575000D01*
X127683778Y-55519768D01*
X127973886Y-55405748D01*
X128236175Y-55237322D01*
X128460566Y-55020962D01*
X128638436Y-54764983D01*
X128762949Y-54479221D01*
X128790586Y-54362588D01*
X128670585Y-54117002D01*
X128830000Y-54117002D01*
X128830001Y-65262998D01*
X128670585Y-65262998D01*
X128790586Y-65017412D01*
X128762949Y-64900779D01*
X128638436Y-64615017D01*
X128460566Y-64359038D01*
X128236175Y-64142678D01*
X127973886Y-63974252D01*
X127683778Y-63860232D01*
X127377000Y-63805000D01*
X126577000Y-63805000D01*
X126577000Y-65263000D01*
X126597000Y-65263000D01*
X126597000Y-65517000D01*
X126577000Y-65517000D01*
X126577000Y-66975000D01*
X127377000Y-66975000D01*
X127683778Y-66919768D01*
X127973886Y-66805748D01*
X128236175Y-66637322D01*
X128460566Y-66420962D01*
X128638436Y-66164983D01*
X128762949Y-65879221D01*
X128790586Y-65762588D01*
X128670585Y-65517002D01*
X128830001Y-65517002D01*
X128830001Y-70410000D01*
X115243571Y-70410000D01*
X115305537Y-70334494D01*
X115364502Y-70224180D01*
X115400812Y-70104482D01*
X115413072Y-69980000D01*
X115410482Y-69778297D01*
X115448183Y-69815998D01*
X115471986Y-69845002D01*
X115533574Y-69895546D01*
X115587710Y-69939975D01*
X115662591Y-69980000D01*
X115719740Y-70010547D01*
X115863001Y-70054004D01*
X115974654Y-70065001D01*
X115974664Y-70065001D01*
X116011986Y-70068677D01*
X116049309Y-70065001D01*
X117957677Y-70065001D01*
X117994999Y-70068677D01*
X118032321Y-70065001D01*
X118032332Y-70065001D01*
X118143985Y-70054004D01*
X118287246Y-70010547D01*
X118419275Y-69939975D01*
X118535000Y-69845002D01*
X118558803Y-69815998D01*
X118620997Y-69753804D01*
X118650001Y-69730001D01*
X118744974Y-69614276D01*
X118764566Y-69577622D01*
X118860000Y-69568223D01*
X118960000Y-69578072D01*
X119260000Y-69578072D01*
X119384482Y-69565812D01*
X119504180Y-69529502D01*
X119614494Y-69470537D01*
X119711185Y-69391185D01*
X119790537Y-69294494D01*
X119849502Y-69184180D01*
X119885812Y-69064482D01*
X119898072Y-68940000D01*
X119898072Y-67540000D01*
X119885812Y-67415518D01*
X119870000Y-67363393D01*
X119870000Y-66600142D01*
X119873676Y-66562819D01*
X119870000Y-66525496D01*
X119870000Y-66525487D01*
X119859003Y-66413834D01*
X119815546Y-66270573D01*
X119815349Y-66270204D01*
X119744974Y-66138543D01*
X119673799Y-66051817D01*
X119650001Y-66022819D01*
X119621003Y-65999021D01*
X119384570Y-65762588D01*
X124109414Y-65762588D01*
X124137051Y-65879221D01*
X124261564Y-66164983D01*
X124439434Y-66420962D01*
X124663825Y-66637322D01*
X124926114Y-66805748D01*
X125216222Y-66919768D01*
X125523000Y-66975000D01*
X126323000Y-66975000D01*
X126323000Y-65517000D01*
X124229416Y-65517000D01*
X124109414Y-65762588D01*
X119384570Y-65762588D01*
X118796462Y-65174481D01*
X118860000Y-65168223D01*
X118960000Y-65178072D01*
X119260000Y-65178072D01*
X119384482Y-65165812D01*
X119504180Y-65129502D01*
X119614494Y-65070537D01*
X119711185Y-64991185D01*
X119790537Y-64894494D01*
X119849502Y-64784180D01*
X119885812Y-64664482D01*
X119898072Y-64540000D01*
X119898072Y-63740000D01*
X121811928Y-63740000D01*
X121824188Y-63864482D01*
X121860498Y-63984180D01*
X121919463Y-64094494D01*
X121998815Y-64191185D01*
X122095506Y-64270537D01*
X122205820Y-64329502D01*
X122325518Y-64365812D01*
X122450000Y-64378072D01*
X123414250Y-64375000D01*
X123573000Y-64216250D01*
X123573000Y-63317000D01*
X123827000Y-63317000D01*
X123827000Y-64216250D01*
X123985750Y-64375000D01*
X124427365Y-64376407D01*
X124261564Y-64615017D01*
X124137051Y-64900779D01*
X124109414Y-65017412D01*
X124229416Y-65263000D01*
X126323000Y-65263000D01*
X126323000Y-63805000D01*
X125581670Y-63805000D01*
X125588072Y-63740000D01*
X125585000Y-63475750D01*
X125426250Y-63317000D01*
X123827000Y-63317000D01*
X123573000Y-63317000D01*
X121973750Y-63317000D01*
X121815000Y-63475750D01*
X121811928Y-63740000D01*
X119898072Y-63740000D01*
X119898072Y-63140000D01*
X119885812Y-63015518D01*
X119870000Y-62963393D01*
X119870000Y-62640000D01*
X121811928Y-62640000D01*
X121815000Y-62904250D01*
X121973750Y-63063000D01*
X123573000Y-63063000D01*
X123573000Y-62163750D01*
X123414250Y-62005000D01*
X122450000Y-62001928D01*
X122325518Y-62014188D01*
X122205820Y-62050498D01*
X122095506Y-62109463D01*
X121998815Y-62188815D01*
X121919463Y-62285506D01*
X121860498Y-62395820D01*
X121824188Y-62515518D01*
X121811928Y-62640000D01*
X119870000Y-62640000D01*
X119870000Y-62044320D01*
X119914494Y-62020537D01*
X120011185Y-61941185D01*
X120090537Y-61844494D01*
X120149502Y-61734180D01*
X120185812Y-61614482D01*
X120198072Y-61490000D01*
X120198072Y-61450000D01*
X121850130Y-61450000D01*
X121860498Y-61484180D01*
X121919463Y-61594494D01*
X121998815Y-61691185D01*
X122095506Y-61770537D01*
X122205820Y-61829502D01*
X122325518Y-61865812D01*
X122450000Y-61878072D01*
X124950000Y-61878072D01*
X125074482Y-61865812D01*
X125194180Y-61829502D01*
X125283171Y-61781934D01*
X125265000Y-61873288D01*
X125265000Y-62088353D01*
X125194180Y-62050498D01*
X125074482Y-62014188D01*
X124950000Y-62001928D01*
X123985750Y-62005000D01*
X123827000Y-62163750D01*
X123827000Y-63063000D01*
X125426250Y-63063000D01*
X125585000Y-62904250D01*
X125586188Y-62802032D01*
X125694606Y-62910450D01*
X125888692Y-63040134D01*
X126104348Y-63129461D01*
X126333288Y-63175000D01*
X126566712Y-63175000D01*
X126795652Y-63129461D01*
X127011308Y-63040134D01*
X127205394Y-62910450D01*
X127370450Y-62745394D01*
X127500134Y-62551308D01*
X127589461Y-62335652D01*
X127635000Y-62106712D01*
X127635000Y-61873288D01*
X127589461Y-61644348D01*
X127500134Y-61428692D01*
X127370450Y-61234606D01*
X127205394Y-61069550D01*
X127011308Y-60939866D01*
X126795652Y-60850539D01*
X126566712Y-60805000D01*
X126333288Y-60805000D01*
X126104348Y-60850539D01*
X125888692Y-60939866D01*
X125694606Y-61069550D01*
X125588072Y-61176084D01*
X125588072Y-60140000D01*
X125575812Y-60015518D01*
X125539502Y-59895820D01*
X125480537Y-59785506D01*
X125402158Y-59690000D01*
X125480537Y-59594494D01*
X125539502Y-59484180D01*
X125575812Y-59364482D01*
X125588072Y-59240000D01*
X125588072Y-58203916D01*
X125694606Y-58310450D01*
X125888692Y-58440134D01*
X126104348Y-58529461D01*
X126333288Y-58575000D01*
X126566712Y-58575000D01*
X126795652Y-58529461D01*
X127011308Y-58440134D01*
X127205394Y-58310450D01*
X127370450Y-58145394D01*
X127500134Y-57951308D01*
X127589461Y-57735652D01*
X127635000Y-57506712D01*
X127635000Y-57273288D01*
X127589461Y-57044348D01*
X127500134Y-56828692D01*
X127370450Y-56634606D01*
X127205394Y-56469550D01*
X127011308Y-56339866D01*
X126795652Y-56250539D01*
X126566712Y-56205000D01*
X126333288Y-56205000D01*
X126104348Y-56250539D01*
X125888692Y-56339866D01*
X125694606Y-56469550D01*
X125588072Y-56576084D01*
X125588072Y-55640000D01*
X125581670Y-55575000D01*
X126323000Y-55575000D01*
X126323000Y-54117000D01*
X124229416Y-54117000D01*
X124109414Y-54362588D01*
X124137051Y-54479221D01*
X124261564Y-54764983D01*
X124426208Y-55001928D01*
X122450000Y-55001928D01*
X122325518Y-55014188D01*
X122205820Y-55050498D01*
X122095506Y-55109463D01*
X121998815Y-55188815D01*
X121944499Y-55255000D01*
X121655935Y-55255000D01*
X121610000Y-55250476D01*
X121426708Y-55268528D01*
X121250459Y-55321993D01*
X121193880Y-55352235D01*
X121088028Y-55408814D01*
X120945656Y-55525656D01*
X120916366Y-55561346D01*
X120657711Y-55820000D01*
X115340010Y-55820000D01*
X115364502Y-55774180D01*
X115400812Y-55654482D01*
X115413072Y-55530000D01*
X115410000Y-55290750D01*
X115251250Y-55132000D01*
X114427000Y-55132000D01*
X114427000Y-55152000D01*
X114173000Y-55152000D01*
X114173000Y-55132000D01*
X113348750Y-55132000D01*
X113190000Y-55290750D01*
X113186928Y-55530000D01*
X113199188Y-55654482D01*
X113235498Y-55774180D01*
X113259990Y-55820000D01*
X111638072Y-55820000D01*
X111638072Y-55490000D01*
X111625812Y-55365518D01*
X111589502Y-55245820D01*
X111530537Y-55135506D01*
X111451185Y-55038815D01*
X111354494Y-54959463D01*
X111244180Y-54900498D01*
X111124482Y-54864188D01*
X111000000Y-54851928D01*
X109500000Y-54851928D01*
X109375518Y-54864188D01*
X109255820Y-54900498D01*
X109145506Y-54959463D01*
X109100000Y-54996809D01*
X109054494Y-54959463D01*
X108944180Y-54900498D01*
X108885000Y-54882546D01*
X108885000Y-54480000D01*
X113186928Y-54480000D01*
X113190000Y-54719250D01*
X113348750Y-54878000D01*
X114173000Y-54878000D01*
X114173000Y-54003750D01*
X114427000Y-54003750D01*
X114427000Y-54878000D01*
X115251250Y-54878000D01*
X115410000Y-54719250D01*
X115413072Y-54480000D01*
X115400812Y-54355518D01*
X115364502Y-54235820D01*
X115305537Y-54125506D01*
X115226185Y-54028815D01*
X115129494Y-53949463D01*
X115019180Y-53890498D01*
X114899482Y-53854188D01*
X114775000Y-53841928D01*
X114585750Y-53845000D01*
X114427000Y-54003750D01*
X114173000Y-54003750D01*
X114014250Y-53845000D01*
X113825000Y-53841928D01*
X113700518Y-53854188D01*
X113580820Y-53890498D01*
X113470506Y-53949463D01*
X113373815Y-54028815D01*
X113294463Y-54125506D01*
X113235498Y-54235820D01*
X113199188Y-54355518D01*
X113186928Y-54480000D01*
X108885000Y-54480000D01*
X108885000Y-53617412D01*
X124109414Y-53617412D01*
X124229416Y-53863000D01*
X126323000Y-53863000D01*
X126323000Y-52405000D01*
X125523000Y-52405000D01*
X125216222Y-52460232D01*
X124926114Y-52574252D01*
X124663825Y-52742678D01*
X124439434Y-52959038D01*
X124261564Y-53215017D01*
X124137051Y-53500779D01*
X124109414Y-53617412D01*
X108885000Y-53617412D01*
X108885000Y-51828072D01*
X109482845Y-51828072D01*
X109455000Y-51968061D01*
X109455000Y-52171939D01*
X109494774Y-52371898D01*
X109572795Y-52560256D01*
X109686063Y-52729774D01*
X109830226Y-52873937D01*
X109999744Y-52987205D01*
X110188102Y-53065226D01*
X110388061Y-53105000D01*
X110591939Y-53105000D01*
X110791898Y-53065226D01*
X110980256Y-52987205D01*
X111149774Y-52873937D01*
X111204724Y-52818987D01*
X111347932Y-52775546D01*
X111479961Y-52704974D01*
X111595686Y-52610001D01*
X111619489Y-52580997D01*
X111765486Y-52435000D01*
X113327036Y-52435000D01*
X113334488Y-52448942D01*
X113443377Y-52581623D01*
X113576058Y-52690512D01*
X113727433Y-52771423D01*
X113891684Y-52821248D01*
X114062500Y-52838072D01*
X114537500Y-52838072D01*
X114708316Y-52821248D01*
X114872567Y-52771423D01*
X115023942Y-52690512D01*
X115156623Y-52581623D01*
X115265512Y-52448942D01*
X115272964Y-52435000D01*
X115867036Y-52435000D01*
X115874488Y-52448942D01*
X115983377Y-52581623D01*
X116116058Y-52690512D01*
X116267433Y-52771423D01*
X116431684Y-52821248D01*
X116602500Y-52838072D01*
X117077500Y-52838072D01*
X117248316Y-52821248D01*
X117412567Y-52771423D01*
X117563942Y-52690512D01*
X117696623Y-52581623D01*
X117805512Y-52448942D01*
X117886423Y-52297567D01*
X117936248Y-52133316D01*
X117953072Y-51962500D01*
X117953072Y-51650000D01*
X119131928Y-51650000D01*
X119144188Y-51774482D01*
X119180498Y-51894180D01*
X119239463Y-52004494D01*
X119318815Y-52101185D01*
X119415506Y-52180537D01*
X119525820Y-52239502D01*
X119645518Y-52275812D01*
X119770000Y-52288072D01*
X119934250Y-52285000D01*
X120093000Y-52126250D01*
X120093000Y-50927000D01*
X120347000Y-50927000D01*
X120347000Y-52126250D01*
X120505750Y-52285000D01*
X120670000Y-52288072D01*
X120794482Y-52275812D01*
X120914180Y-52239502D01*
X121024494Y-52180537D01*
X121121185Y-52101185D01*
X121200537Y-52004494D01*
X121259502Y-51894180D01*
X121295812Y-51774482D01*
X121308072Y-51650000D01*
X121305000Y-51085750D01*
X121146250Y-50927000D01*
X120347000Y-50927000D01*
X120093000Y-50927000D01*
X119293750Y-50927000D01*
X119135000Y-51085750D01*
X119131928Y-51650000D01*
X117953072Y-51650000D01*
X117953072Y-51387500D01*
X117936248Y-51216684D01*
X117886423Y-51052433D01*
X117805512Y-50901058D01*
X117785901Y-50877161D01*
X117845537Y-50804494D01*
X117904502Y-50694180D01*
X117940812Y-50574482D01*
X117953072Y-50450000D01*
X117950000Y-50210750D01*
X117791250Y-50052000D01*
X116967000Y-50052000D01*
X116967000Y-50072000D01*
X116713000Y-50072000D01*
X116713000Y-50052000D01*
X115888750Y-50052000D01*
X115730000Y-50210750D01*
X115726928Y-50450000D01*
X115739188Y-50574482D01*
X115775498Y-50694180D01*
X115834463Y-50804494D01*
X115894099Y-50877161D01*
X115874488Y-50901058D01*
X115867036Y-50915000D01*
X115272964Y-50915000D01*
X115265512Y-50901058D01*
X115182575Y-50800000D01*
X115265512Y-50698942D01*
X115346423Y-50547567D01*
X115396248Y-50383316D01*
X115413072Y-50212500D01*
X115413072Y-49950000D01*
X119131928Y-49950000D01*
X119135000Y-50514250D01*
X119293750Y-50673000D01*
X120093000Y-50673000D01*
X120093000Y-49473750D01*
X120347000Y-49473750D01*
X120347000Y-50673000D01*
X121146250Y-50673000D01*
X121305000Y-50514250D01*
X121308072Y-49950000D01*
X122531928Y-49950000D01*
X122531928Y-51650000D01*
X122544188Y-51774482D01*
X122580498Y-51894180D01*
X122639463Y-52004494D01*
X122718815Y-52101185D01*
X122815506Y-52180537D01*
X122925820Y-52239502D01*
X123045518Y-52275812D01*
X123170000Y-52288072D01*
X124070000Y-52288072D01*
X124194482Y-52275812D01*
X124314180Y-52239502D01*
X124424494Y-52180537D01*
X124521185Y-52101185D01*
X124600537Y-52004494D01*
X124659502Y-51894180D01*
X124695812Y-51774482D01*
X124708072Y-51650000D01*
X124708072Y-51560000D01*
X125026289Y-51560000D01*
X125070226Y-51603937D01*
X125239744Y-51717205D01*
X125428102Y-51795226D01*
X125628061Y-51835000D01*
X125831939Y-51835000D01*
X126031898Y-51795226D01*
X126220256Y-51717205D01*
X126389774Y-51603937D01*
X126533937Y-51459774D01*
X126647205Y-51290256D01*
X126725226Y-51101898D01*
X126765000Y-50901939D01*
X126765000Y-50698061D01*
X126725226Y-50498102D01*
X126647205Y-50309744D01*
X126533937Y-50140226D01*
X126389774Y-49996063D01*
X126220256Y-49882795D01*
X126031898Y-49804774D01*
X125831939Y-49765000D01*
X125628061Y-49765000D01*
X125428102Y-49804774D01*
X125239744Y-49882795D01*
X125070226Y-49996063D01*
X125026289Y-50040000D01*
X124708072Y-50040000D01*
X124708072Y-49950000D01*
X124695812Y-49825518D01*
X124659502Y-49705820D01*
X124600537Y-49595506D01*
X124521185Y-49498815D01*
X124424494Y-49419463D01*
X124314180Y-49360498D01*
X124194482Y-49324188D01*
X124070000Y-49311928D01*
X123170000Y-49311928D01*
X123045518Y-49324188D01*
X122925820Y-49360498D01*
X122815506Y-49419463D01*
X122718815Y-49498815D01*
X122639463Y-49595506D01*
X122580498Y-49705820D01*
X122544188Y-49825518D01*
X122531928Y-49950000D01*
X121308072Y-49950000D01*
X121295812Y-49825518D01*
X121259502Y-49705820D01*
X121200537Y-49595506D01*
X121121185Y-49498815D01*
X121024494Y-49419463D01*
X120914180Y-49360498D01*
X120794482Y-49324188D01*
X120670000Y-49311928D01*
X120505750Y-49315000D01*
X120347000Y-49473750D01*
X120093000Y-49473750D01*
X119934250Y-49315000D01*
X119770000Y-49311928D01*
X119645518Y-49324188D01*
X119525820Y-49360498D01*
X119415506Y-49419463D01*
X119318815Y-49498815D01*
X119239463Y-49595506D01*
X119180498Y-49705820D01*
X119144188Y-49825518D01*
X119131928Y-49950000D01*
X115413072Y-49950000D01*
X115413072Y-49637500D01*
X115396248Y-49466684D01*
X115346423Y-49302433D01*
X115265512Y-49151058D01*
X115156623Y-49018377D01*
X115097676Y-48970000D01*
X115896429Y-48970000D01*
X115834463Y-49045506D01*
G37*
X115834463Y-49045506D02*
X115775498Y-49155820D01*
X115739188Y-49275518D01*
X115726928Y-49400000D01*
X115730000Y-49639250D01*
X115888750Y-49798000D01*
X116713000Y-49798000D01*
X116713000Y-49778000D01*
X116967000Y-49778000D01*
X116967000Y-49798000D01*
X117791250Y-49798000D01*
X117950000Y-49639250D01*
X117953072Y-49400000D01*
X117940812Y-49275518D01*
X117904502Y-49155820D01*
X117845537Y-49045506D01*
X117783571Y-48970000D01*
X128830000Y-48970000D01*
X128830000Y-53862998D01*
X128670585Y-53862998D01*
X128790586Y-53617412D01*
X128762949Y-53500779D01*
X128638436Y-53215017D01*
X128460566Y-52959038D01*
X128236175Y-52742678D01*
X127973886Y-52574252D01*
X127683778Y-52460232D01*
X127377000Y-52405000D01*
X126577000Y-52405000D01*
X126577000Y-53863000D01*
X126597000Y-53863000D01*
X126597000Y-54117000D01*
X126577000Y-54117000D01*
X126577000Y-55575000D01*
X127377000Y-55575000D01*
X127683778Y-55519768D01*
X127973886Y-55405748D01*
X128236175Y-55237322D01*
X128460566Y-55020962D01*
X128638436Y-54764983D01*
X128762949Y-54479221D01*
X128790586Y-54362588D01*
X128670585Y-54117002D01*
X128830000Y-54117002D01*
X128830001Y-65262998D01*
X128670585Y-65262998D01*
X128790586Y-65017412D01*
X128762949Y-64900779D01*
X128638436Y-64615017D01*
X128460566Y-64359038D01*
X128236175Y-64142678D01*
X127973886Y-63974252D01*
X127683778Y-63860232D01*
X127377000Y-63805000D01*
X126577000Y-63805000D01*
X126577000Y-65263000D01*
X126597000Y-65263000D01*
X126597000Y-65517000D01*
X126577000Y-65517000D01*
X126577000Y-66975000D01*
X127377000Y-66975000D01*
X127683778Y-66919768D01*
X127973886Y-66805748D01*
X128236175Y-66637322D01*
X128460566Y-66420962D01*
X128638436Y-66164983D01*
X128762949Y-65879221D01*
X128790586Y-65762588D01*
X128670585Y-65517002D01*
X128830001Y-65517002D01*
X128830001Y-70410000D01*
X115243571Y-70410000D01*
X115305537Y-70334494D01*
X115364502Y-70224180D01*
X115400812Y-70104482D01*
X115413072Y-69980000D01*
X115410482Y-69778297D01*
X115448183Y-69815998D01*
X115471986Y-69845002D01*
X115533574Y-69895546D01*
X115587710Y-69939975D01*
X115662591Y-69980000D01*
X115719740Y-70010547D01*
X115863001Y-70054004D01*
X115974654Y-70065001D01*
X115974664Y-70065001D01*
X116011986Y-70068677D01*
X116049309Y-70065001D01*
X117957677Y-70065001D01*
X117994999Y-70068677D01*
X118032321Y-70065001D01*
X118032332Y-70065001D01*
X118143985Y-70054004D01*
X118287246Y-70010547D01*
X118419275Y-69939975D01*
X118535000Y-69845002D01*
X118558803Y-69815998D01*
X118620997Y-69753804D01*
X118650001Y-69730001D01*
X118744974Y-69614276D01*
X118764566Y-69577622D01*
X118860000Y-69568223D01*
X118960000Y-69578072D01*
X119260000Y-69578072D01*
X119384482Y-69565812D01*
X119504180Y-69529502D01*
X119614494Y-69470537D01*
X119711185Y-69391185D01*
X119790537Y-69294494D01*
X119849502Y-69184180D01*
X119885812Y-69064482D01*
X119898072Y-68940000D01*
X119898072Y-67540000D01*
X119885812Y-67415518D01*
X119870000Y-67363393D01*
X119870000Y-66600142D01*
X119873676Y-66562819D01*
X119870000Y-66525496D01*
X119870000Y-66525487D01*
X119859003Y-66413834D01*
X119815546Y-66270573D01*
X119815349Y-66270204D01*
X119744974Y-66138543D01*
X119673799Y-66051817D01*
X119650001Y-66022819D01*
X119621003Y-65999021D01*
X119384570Y-65762588D01*
X124109414Y-65762588D01*
X124137051Y-65879221D01*
X124261564Y-66164983D01*
X124439434Y-66420962D01*
X124663825Y-66637322D01*
X124926114Y-66805748D01*
X125216222Y-66919768D01*
X125523000Y-66975000D01*
X126323000Y-66975000D01*
X126323000Y-65517000D01*
X124229416Y-65517000D01*
X124109414Y-65762588D01*
X119384570Y-65762588D01*
X118796462Y-65174481D01*
X118860000Y-65168223D01*
X118960000Y-65178072D01*
X119260000Y-65178072D01*
X119384482Y-65165812D01*
X119504180Y-65129502D01*
X119614494Y-65070537D01*
X119711185Y-64991185D01*
X119790537Y-64894494D01*
X119849502Y-64784180D01*
X119885812Y-64664482D01*
X119898072Y-64540000D01*
X119898072Y-63740000D01*
X121811928Y-63740000D01*
X121824188Y-63864482D01*
X121860498Y-63984180D01*
X121919463Y-64094494D01*
X121998815Y-64191185D01*
X122095506Y-64270537D01*
X122205820Y-64329502D01*
X122325518Y-64365812D01*
X122450000Y-64378072D01*
X123414250Y-64375000D01*
X123573000Y-64216250D01*
X123573000Y-63317000D01*
X123827000Y-63317000D01*
X123827000Y-64216250D01*
X123985750Y-64375000D01*
X124427365Y-64376407D01*
X124261564Y-64615017D01*
X124137051Y-64900779D01*
X124109414Y-65017412D01*
X124229416Y-65263000D01*
X126323000Y-65263000D01*
X126323000Y-63805000D01*
X125581670Y-63805000D01*
X125588072Y-63740000D01*
X125585000Y-63475750D01*
X125426250Y-63317000D01*
X123827000Y-63317000D01*
X123573000Y-63317000D01*
X121973750Y-63317000D01*
X121815000Y-63475750D01*
X121811928Y-63740000D01*
X119898072Y-63740000D01*
X119898072Y-63140000D01*
X119885812Y-63015518D01*
X119870000Y-62963393D01*
X119870000Y-62640000D01*
X121811928Y-62640000D01*
X121815000Y-62904250D01*
X121973750Y-63063000D01*
X123573000Y-63063000D01*
X123573000Y-62163750D01*
X123414250Y-62005000D01*
X122450000Y-62001928D01*
X122325518Y-62014188D01*
X122205820Y-62050498D01*
X122095506Y-62109463D01*
X121998815Y-62188815D01*
X121919463Y-62285506D01*
X121860498Y-62395820D01*
X121824188Y-62515518D01*
X121811928Y-62640000D01*
X119870000Y-62640000D01*
X119870000Y-62044320D01*
X119914494Y-62020537D01*
X120011185Y-61941185D01*
X120090537Y-61844494D01*
X120149502Y-61734180D01*
X120185812Y-61614482D01*
X120198072Y-61490000D01*
X120198072Y-61450000D01*
X121850130Y-61450000D01*
X121860498Y-61484180D01*
X121919463Y-61594494D01*
X121998815Y-61691185D01*
X122095506Y-61770537D01*
X122205820Y-61829502D01*
X122325518Y-61865812D01*
X122450000Y-61878072D01*
X124950000Y-61878072D01*
X125074482Y-61865812D01*
X125194180Y-61829502D01*
X125283171Y-61781934D01*
X125265000Y-61873288D01*
X125265000Y-62088353D01*
X125194180Y-62050498D01*
X125074482Y-62014188D01*
X124950000Y-62001928D01*
X123985750Y-62005000D01*
X123827000Y-62163750D01*
X123827000Y-63063000D01*
X125426250Y-63063000D01*
X125585000Y-62904250D01*
X125586188Y-62802032D01*
X125694606Y-62910450D01*
X125888692Y-63040134D01*
X126104348Y-63129461D01*
X126333288Y-63175000D01*
X126566712Y-63175000D01*
X126795652Y-63129461D01*
X127011308Y-63040134D01*
X127205394Y-62910450D01*
X127370450Y-62745394D01*
X127500134Y-62551308D01*
X127589461Y-62335652D01*
X127635000Y-62106712D01*
X127635000Y-61873288D01*
X127589461Y-61644348D01*
X127500134Y-61428692D01*
X127370450Y-61234606D01*
X127205394Y-61069550D01*
X127011308Y-60939866D01*
X126795652Y-60850539D01*
X126566712Y-60805000D01*
X126333288Y-60805000D01*
X126104348Y-60850539D01*
X125888692Y-60939866D01*
X125694606Y-61069550D01*
X125588072Y-61176084D01*
X125588072Y-60140000D01*
X125575812Y-60015518D01*
X125539502Y-59895820D01*
X125480537Y-59785506D01*
X125402158Y-59690000D01*
X125480537Y-59594494D01*
X125539502Y-59484180D01*
X125575812Y-59364482D01*
X125588072Y-59240000D01*
X125588072Y-58203916D01*
X125694606Y-58310450D01*
X125888692Y-58440134D01*
X126104348Y-58529461D01*
X126333288Y-58575000D01*
X126566712Y-58575000D01*
X126795652Y-58529461D01*
X127011308Y-58440134D01*
X127205394Y-58310450D01*
X127370450Y-58145394D01*
X127500134Y-57951308D01*
X127589461Y-57735652D01*
X127635000Y-57506712D01*
X127635000Y-57273288D01*
X127589461Y-57044348D01*
X127500134Y-56828692D01*
X127370450Y-56634606D01*
X127205394Y-56469550D01*
X127011308Y-56339866D01*
X126795652Y-56250539D01*
X126566712Y-56205000D01*
X126333288Y-56205000D01*
X126104348Y-56250539D01*
X125888692Y-56339866D01*
X125694606Y-56469550D01*
X125588072Y-56576084D01*
X125588072Y-55640000D01*
X125581670Y-55575000D01*
X126323000Y-55575000D01*
X126323000Y-54117000D01*
X124229416Y-54117000D01*
X124109414Y-54362588D01*
X124137051Y-54479221D01*
X124261564Y-54764983D01*
X124426208Y-55001928D01*
X122450000Y-55001928D01*
X122325518Y-55014188D01*
X122205820Y-55050498D01*
X122095506Y-55109463D01*
X121998815Y-55188815D01*
X121944499Y-55255000D01*
X121655935Y-55255000D01*
X121610000Y-55250476D01*
X121426708Y-55268528D01*
X121250459Y-55321993D01*
X121193880Y-55352235D01*
X121088028Y-55408814D01*
X120945656Y-55525656D01*
X120916366Y-55561346D01*
X120657711Y-55820000D01*
X115340010Y-55820000D01*
X115364502Y-55774180D01*
X115400812Y-55654482D01*
X115413072Y-55530000D01*
X115410000Y-55290750D01*
X115251250Y-55132000D01*
X114427000Y-55132000D01*
X114427000Y-55152000D01*
X114173000Y-55152000D01*
X114173000Y-55132000D01*
X113348750Y-55132000D01*
X113190000Y-55290750D01*
X113186928Y-55530000D01*
X113199188Y-55654482D01*
X113235498Y-55774180D01*
X113259990Y-55820000D01*
X111638072Y-55820000D01*
X111638072Y-55490000D01*
X111625812Y-55365518D01*
X111589502Y-55245820D01*
X111530537Y-55135506D01*
X111451185Y-55038815D01*
X111354494Y-54959463D01*
X111244180Y-54900498D01*
X111124482Y-54864188D01*
X111000000Y-54851928D01*
X109500000Y-54851928D01*
X109375518Y-54864188D01*
X109255820Y-54900498D01*
X109145506Y-54959463D01*
X109100000Y-54996809D01*
X109054494Y-54959463D01*
X108944180Y-54900498D01*
X108885000Y-54882546D01*
X108885000Y-54480000D01*
X113186928Y-54480000D01*
X113190000Y-54719250D01*
X113348750Y-54878000D01*
X114173000Y-54878000D01*
X114173000Y-54003750D01*
X114427000Y-54003750D01*
X114427000Y-54878000D01*
X115251250Y-54878000D01*
X115410000Y-54719250D01*
X115413072Y-54480000D01*
X115400812Y-54355518D01*
X115364502Y-54235820D01*
X115305537Y-54125506D01*
X115226185Y-54028815D01*
X115129494Y-53949463D01*
X115019180Y-53890498D01*
X114899482Y-53854188D01*
X114775000Y-53841928D01*
X114585750Y-53845000D01*
X114427000Y-54003750D01*
X114173000Y-54003750D01*
X114014250Y-53845000D01*
X113825000Y-53841928D01*
X113700518Y-53854188D01*
X113580820Y-53890498D01*
X113470506Y-53949463D01*
X113373815Y-54028815D01*
X113294463Y-54125506D01*
X113235498Y-54235820D01*
X113199188Y-54355518D01*
X113186928Y-54480000D01*
X108885000Y-54480000D01*
X108885000Y-53617412D01*
X124109414Y-53617412D01*
X124229416Y-53863000D01*
X126323000Y-53863000D01*
X126323000Y-52405000D01*
X125523000Y-52405000D01*
X125216222Y-52460232D01*
X124926114Y-52574252D01*
X124663825Y-52742678D01*
X124439434Y-52959038D01*
X124261564Y-53215017D01*
X124137051Y-53500779D01*
X124109414Y-53617412D01*
X108885000Y-53617412D01*
X108885000Y-51828072D01*
X109482845Y-51828072D01*
X109455000Y-51968061D01*
X109455000Y-52171939D01*
X109494774Y-52371898D01*
X109572795Y-52560256D01*
X109686063Y-52729774D01*
X109830226Y-52873937D01*
X109999744Y-52987205D01*
X110188102Y-53065226D01*
X110388061Y-53105000D01*
X110591939Y-53105000D01*
X110791898Y-53065226D01*
X110980256Y-52987205D01*
X111149774Y-52873937D01*
X111204724Y-52818987D01*
X111347932Y-52775546D01*
X111479961Y-52704974D01*
X111595686Y-52610001D01*
X111619489Y-52580997D01*
X111765486Y-52435000D01*
X113327036Y-52435000D01*
X113334488Y-52448942D01*
X113443377Y-52581623D01*
X113576058Y-52690512D01*
X113727433Y-52771423D01*
X113891684Y-52821248D01*
X114062500Y-52838072D01*
X114537500Y-52838072D01*
X114708316Y-52821248D01*
X114872567Y-52771423D01*
X115023942Y-52690512D01*
X115156623Y-52581623D01*
X115265512Y-52448942D01*
X115272964Y-52435000D01*
X115867036Y-52435000D01*
X115874488Y-52448942D01*
X115983377Y-52581623D01*
X116116058Y-52690512D01*
X116267433Y-52771423D01*
X116431684Y-52821248D01*
X116602500Y-52838072D01*
X117077500Y-52838072D01*
X117248316Y-52821248D01*
X117412567Y-52771423D01*
X117563942Y-52690512D01*
X117696623Y-52581623D01*
X117805512Y-52448942D01*
X117886423Y-52297567D01*
X117936248Y-52133316D01*
X117953072Y-51962500D01*
X117953072Y-51650000D01*
X119131928Y-51650000D01*
X119144188Y-51774482D01*
X119180498Y-51894180D01*
X119239463Y-52004494D01*
X119318815Y-52101185D01*
X119415506Y-52180537D01*
X119525820Y-52239502D01*
X119645518Y-52275812D01*
X119770000Y-52288072D01*
X119934250Y-52285000D01*
X120093000Y-52126250D01*
X120093000Y-50927000D01*
X120347000Y-50927000D01*
X120347000Y-52126250D01*
X120505750Y-52285000D01*
X120670000Y-52288072D01*
X120794482Y-52275812D01*
X120914180Y-52239502D01*
X121024494Y-52180537D01*
X121121185Y-52101185D01*
X121200537Y-52004494D01*
X121259502Y-51894180D01*
X121295812Y-51774482D01*
X121308072Y-51650000D01*
X121305000Y-51085750D01*
X121146250Y-50927000D01*
X120347000Y-50927000D01*
X120093000Y-50927000D01*
X119293750Y-50927000D01*
X119135000Y-51085750D01*
X119131928Y-51650000D01*
X117953072Y-51650000D01*
X117953072Y-51387500D01*
X117936248Y-51216684D01*
X117886423Y-51052433D01*
X117805512Y-50901058D01*
X117785901Y-50877161D01*
X117845537Y-50804494D01*
X117904502Y-50694180D01*
X117940812Y-50574482D01*
X117953072Y-50450000D01*
X117950000Y-50210750D01*
X117791250Y-50052000D01*
X116967000Y-50052000D01*
X116967000Y-50072000D01*
X116713000Y-50072000D01*
X116713000Y-50052000D01*
X115888750Y-50052000D01*
X115730000Y-50210750D01*
X115726928Y-50450000D01*
X115739188Y-50574482D01*
X115775498Y-50694180D01*
X115834463Y-50804494D01*
X115894099Y-50877161D01*
X115874488Y-50901058D01*
X115867036Y-50915000D01*
X115272964Y-50915000D01*
X115265512Y-50901058D01*
X115182575Y-50800000D01*
X115265512Y-50698942D01*
X115346423Y-50547567D01*
X115396248Y-50383316D01*
X115413072Y-50212500D01*
X115413072Y-49950000D01*
X119131928Y-49950000D01*
X119135000Y-50514250D01*
X119293750Y-50673000D01*
X120093000Y-50673000D01*
X120093000Y-49473750D01*
X120347000Y-49473750D01*
X120347000Y-50673000D01*
X121146250Y-50673000D01*
X121305000Y-50514250D01*
X121308072Y-49950000D01*
X122531928Y-49950000D01*
X122531928Y-51650000D01*
X122544188Y-51774482D01*
X122580498Y-51894180D01*
X122639463Y-52004494D01*
X122718815Y-52101185D01*
X122815506Y-52180537D01*
X122925820Y-52239502D01*
X123045518Y-52275812D01*
X123170000Y-52288072D01*
X124070000Y-52288072D01*
X124194482Y-52275812D01*
X124314180Y-52239502D01*
X124424494Y-52180537D01*
X124521185Y-52101185D01*
X124600537Y-52004494D01*
X124659502Y-51894180D01*
X124695812Y-51774482D01*
X124708072Y-51650000D01*
X124708072Y-51560000D01*
X125026289Y-51560000D01*
X125070226Y-51603937D01*
X125239744Y-51717205D01*
X125428102Y-51795226D01*
X125628061Y-51835000D01*
X125831939Y-51835000D01*
X126031898Y-51795226D01*
X126220256Y-51717205D01*
X126389774Y-51603937D01*
X126533937Y-51459774D01*
X126647205Y-51290256D01*
X126725226Y-51101898D01*
X126765000Y-50901939D01*
X126765000Y-50698061D01*
X126725226Y-50498102D01*
X126647205Y-50309744D01*
X126533937Y-50140226D01*
X126389774Y-49996063D01*
X126220256Y-49882795D01*
X126031898Y-49804774D01*
X125831939Y-49765000D01*
X125628061Y-49765000D01*
X125428102Y-49804774D01*
X125239744Y-49882795D01*
X125070226Y-49996063D01*
X125026289Y-50040000D01*
X124708072Y-50040000D01*
X124708072Y-49950000D01*
X124695812Y-49825518D01*
X124659502Y-49705820D01*
X124600537Y-49595506D01*
X124521185Y-49498815D01*
X124424494Y-49419463D01*
X124314180Y-49360498D01*
X124194482Y-49324188D01*
X124070000Y-49311928D01*
X123170000Y-49311928D01*
X123045518Y-49324188D01*
X122925820Y-49360498D01*
X122815506Y-49419463D01*
X122718815Y-49498815D01*
X122639463Y-49595506D01*
X122580498Y-49705820D01*
X122544188Y-49825518D01*
X122531928Y-49950000D01*
X121308072Y-49950000D01*
X121295812Y-49825518D01*
X121259502Y-49705820D01*
X121200537Y-49595506D01*
X121121185Y-49498815D01*
X121024494Y-49419463D01*
X120914180Y-49360498D01*
X120794482Y-49324188D01*
X120670000Y-49311928D01*
X120505750Y-49315000D01*
X120347000Y-49473750D01*
X120093000Y-49473750D01*
X119934250Y-49315000D01*
X119770000Y-49311928D01*
X119645518Y-49324188D01*
X119525820Y-49360498D01*
X119415506Y-49419463D01*
X119318815Y-49498815D01*
X119239463Y-49595506D01*
X119180498Y-49705820D01*
X119144188Y-49825518D01*
X119131928Y-49950000D01*
X115413072Y-49950000D01*
X115413072Y-49637500D01*
X115396248Y-49466684D01*
X115346423Y-49302433D01*
X115265512Y-49151058D01*
X115156623Y-49018377D01*
X115097676Y-48970000D01*
X115896429Y-48970000D01*
X115834463Y-49045506D01*
G36*
X83286600Y-49784000D02*
G01*
X83306600Y-49784000D01*
X83306600Y-50038000D01*
X83286600Y-50038000D01*
X83286600Y-51077431D01*
X83437838Y-51205885D01*
X83494600Y-51186664D01*
X83494600Y-51424368D01*
X83490076Y-51470300D01*
X83495564Y-51526015D01*
X83508129Y-51653591D01*
X83561593Y-51829839D01*
X83648414Y-51992271D01*
X83765256Y-52134644D01*
X83800942Y-52163930D01*
X84335666Y-52698654D01*
X84364956Y-52734344D01*
X84507328Y-52851186D01*
X84669760Y-52938007D01*
X84831945Y-52987205D01*
X84846008Y-52991471D01*
X85029300Y-53009524D01*
X85075232Y-53005000D01*
X96323882Y-53005000D01*
X96369814Y-53009524D01*
X96415746Y-53005000D01*
X96544467Y-52992322D01*
X96444315Y-53110238D01*
X96499646Y-53273641D01*
X96602898Y-53438698D01*
X96633045Y-53470714D01*
X96566240Y-53552116D01*
X96474776Y-53723233D01*
X96418453Y-53908906D01*
X96399435Y-54102000D01*
X96418453Y-54295094D01*
X96474776Y-54480767D01*
X96566240Y-54651884D01*
X96636093Y-54737000D01*
X96566240Y-54822116D01*
X96474776Y-54993233D01*
X96418453Y-55178906D01*
X96399435Y-55372000D01*
X96418453Y-55565094D01*
X96474776Y-55750767D01*
X96566240Y-55921884D01*
X96636093Y-56007000D01*
X96566240Y-56092116D01*
X96474776Y-56263233D01*
X96418453Y-56448906D01*
X96399435Y-56642000D01*
X96418453Y-56835094D01*
X96474776Y-57020767D01*
X96566240Y-57191884D01*
X96636093Y-57277000D01*
X96566240Y-57362116D01*
X96474776Y-57533233D01*
X96418453Y-57718906D01*
X96399435Y-57912000D01*
X96418453Y-58105094D01*
X96474776Y-58290767D01*
X96566240Y-58461884D01*
X96636093Y-58547000D01*
X96566240Y-58632116D01*
X96474776Y-58803233D01*
X96418453Y-58988906D01*
X96399435Y-59182000D01*
X96418453Y-59375094D01*
X96474776Y-59560767D01*
X96566240Y-59731884D01*
X96636093Y-59817000D01*
X96566240Y-59902116D01*
X96474776Y-60073233D01*
X96418453Y-60258906D01*
X96399435Y-60452000D01*
X96418453Y-60645094D01*
X96474776Y-60830767D01*
X96566240Y-61001884D01*
X96636093Y-61087000D01*
X96566240Y-61172116D01*
X96474776Y-61343233D01*
X96418453Y-61528906D01*
X96399435Y-61722000D01*
X96418453Y-61915094D01*
X96474776Y-62100767D01*
X96566240Y-62271884D01*
X96636093Y-62357000D01*
X96566240Y-62442116D01*
X96474776Y-62613233D01*
X96418453Y-62798906D01*
X96399435Y-62992000D01*
X96418453Y-63185094D01*
X96474776Y-63370767D01*
X96566240Y-63541884D01*
X96636093Y-63627000D01*
X96566240Y-63712116D01*
X96474776Y-63883233D01*
X96418453Y-64068906D01*
X96399435Y-64262000D01*
X96418453Y-64455094D01*
X96474776Y-64640767D01*
X96566240Y-64811884D01*
X96636093Y-64897000D01*
X96566240Y-64982116D01*
X96474776Y-65153233D01*
X96418453Y-65338906D01*
X96399435Y-65532000D01*
X96418453Y-65725094D01*
X96474776Y-65910767D01*
X96566240Y-66081884D01*
X96633045Y-66163286D01*
X96602898Y-66195302D01*
X96499646Y-66360359D01*
X96444315Y-66523762D01*
X96572769Y-66675000D01*
X97612200Y-66675000D01*
X97612200Y-66655000D01*
X97866200Y-66655000D01*
X97866200Y-66675000D01*
X98905631Y-66675000D01*
X99034085Y-66523762D01*
X98978754Y-66360359D01*
X98935992Y-66292000D01*
X102070678Y-66292000D01*
X102108000Y-66295676D01*
X102145322Y-66292000D01*
X102145333Y-66292000D01*
X102256986Y-66281003D01*
X102400247Y-66237546D01*
X102532276Y-66166974D01*
X102648001Y-66072001D01*
X102671803Y-66042998D01*
X102809801Y-65905000D01*
X102981788Y-65905000D01*
X103201067Y-65861383D01*
X103312774Y-65815112D01*
X103395820Y-65859502D01*
X103515518Y-65895812D01*
X103640000Y-65908072D01*
X104640000Y-65908072D01*
X104764482Y-65895812D01*
X104884180Y-65859502D01*
X104994494Y-65800537D01*
X105091185Y-65721185D01*
X105170537Y-65624494D01*
X105186511Y-65594610D01*
X105203689Y-65592918D01*
X105361087Y-65545172D01*
X105506146Y-65467636D01*
X105633291Y-65363291D01*
X105659446Y-65331421D01*
X107711427Y-63279441D01*
X107743290Y-63253292D01*
X107847635Y-63126147D01*
X107925171Y-62981088D01*
X107948705Y-62903507D01*
X108123232Y-63078034D01*
X108123752Y-63083316D01*
X108173577Y-63247567D01*
X108254488Y-63398942D01*
X108337425Y-63500000D01*
X108254488Y-63601058D01*
X108173577Y-63752433D01*
X108123752Y-63916684D01*
X108106928Y-64087500D01*
X108106928Y-64662500D01*
X108123752Y-64833316D01*
X108173577Y-64997567D01*
X108254488Y-65148942D01*
X108363377Y-65281623D01*
X108460000Y-65360920D01*
X108460001Y-66719080D01*
X108363377Y-66798377D01*
X108254488Y-66931058D01*
X108173577Y-67082433D01*
X108123752Y-67246684D01*
X108106928Y-67417500D01*
X108106928Y-67992500D01*
X108123752Y-68163316D01*
X108173577Y-68327567D01*
X108254488Y-68478942D01*
X108274099Y-68502839D01*
X108214463Y-68575506D01*
X108155498Y-68685820D01*
X108119188Y-68805518D01*
X108106928Y-68930000D01*
X108110000Y-69169250D01*
X108268750Y-69328000D01*
X109093000Y-69328000D01*
X109093000Y-69308000D01*
X109347000Y-69308000D01*
X109347000Y-69328000D01*
X110171250Y-69328000D01*
X110330000Y-69169250D01*
X110333072Y-68930000D01*
X110320812Y-68805518D01*
X110284502Y-68685820D01*
X110225537Y-68575506D01*
X110165901Y-68502839D01*
X110185512Y-68478942D01*
X110266423Y-68327567D01*
X110316248Y-68163316D01*
X110333072Y-67992500D01*
X110333072Y-67417500D01*
X110316248Y-67246684D01*
X110266423Y-67082433D01*
X110185512Y-66931058D01*
X110076623Y-66798377D01*
X109980000Y-66719080D01*
X109980000Y-65360920D01*
X110076623Y-65281623D01*
X110185512Y-65148942D01*
X110266423Y-64997567D01*
X110316248Y-64833316D01*
X110333072Y-64662500D01*
X110333072Y-64087500D01*
X110316248Y-63916684D01*
X110266423Y-63752433D01*
X110185512Y-63601058D01*
X110102575Y-63500000D01*
X110185512Y-63398942D01*
X110266423Y-63247567D01*
X110316248Y-63083316D01*
X110333072Y-62912500D01*
X110333072Y-62747874D01*
X110663232Y-63078034D01*
X110663752Y-63083316D01*
X110713577Y-63247567D01*
X110794488Y-63398942D01*
X110877425Y-63500000D01*
X110794488Y-63601058D01*
X110713577Y-63752433D01*
X110663752Y-63916684D01*
X110646928Y-64087500D01*
X110646928Y-64662500D01*
X110663752Y-64833316D01*
X110713577Y-64997567D01*
X110794488Y-65148942D01*
X110903377Y-65281623D01*
X111000000Y-65360920D01*
X111000001Y-66719080D01*
X110903377Y-66798377D01*
X110794488Y-66931058D01*
X110713577Y-67082433D01*
X110663752Y-67246684D01*
X110646928Y-67417500D01*
X110646928Y-67992500D01*
X110663752Y-68163316D01*
X110713577Y-68327567D01*
X110794488Y-68478942D01*
X110814099Y-68502839D01*
X110754463Y-68575506D01*
X110695498Y-68685820D01*
X110659188Y-68805518D01*
X110646928Y-68930000D01*
X110650000Y-69169250D01*
X110808750Y-69328000D01*
X111633000Y-69328000D01*
X111633000Y-69308000D01*
X111887000Y-69308000D01*
X111887000Y-69328000D01*
X112711250Y-69328000D01*
X112870000Y-69169250D01*
X112873072Y-68930000D01*
X112860812Y-68805518D01*
X112824502Y-68685820D01*
X112765537Y-68575506D01*
X112705901Y-68502839D01*
X112725512Y-68478942D01*
X112806423Y-68327567D01*
X112856248Y-68163316D01*
X112873072Y-67992500D01*
X112873072Y-67417500D01*
X112856248Y-67246684D01*
X112806423Y-67082433D01*
X112725512Y-66931058D01*
X112616623Y-66798377D01*
X112520000Y-66719080D01*
X112520000Y-65360920D01*
X112614996Y-65282958D01*
X112614996Y-66423472D01*
X112627801Y-66553485D01*
X112678407Y-66720308D01*
X112760585Y-66874054D01*
X112871179Y-67008813D01*
X113005937Y-67119407D01*
X113118940Y-67179808D01*
X113202144Y-67263012D01*
X113186928Y-67417500D01*
X113186928Y-67992500D01*
X113203752Y-68163316D01*
X113253577Y-68327567D01*
X113334488Y-68478942D01*
X113354099Y-68502839D01*
X113294463Y-68575506D01*
X113235498Y-68685820D01*
X113199188Y-68805518D01*
X113186928Y-68930000D01*
X113190000Y-69169250D01*
X113348750Y-69328000D01*
X114173000Y-69328000D01*
X114173000Y-69308000D01*
X114427000Y-69308000D01*
X114427000Y-69328000D01*
X114447000Y-69328000D01*
X114447000Y-69582000D01*
X114427000Y-69582000D01*
X114427000Y-69602000D01*
X114173000Y-69602000D01*
X114173000Y-69582000D01*
X113348750Y-69582000D01*
X113190000Y-69740750D01*
X113186928Y-69980000D01*
X113199188Y-70104482D01*
X113235498Y-70224180D01*
X113294463Y-70334494D01*
X113356429Y-70410000D01*
X112703571Y-70410000D01*
X112765537Y-70334494D01*
X112824502Y-70224180D01*
X112860812Y-70104482D01*
X112873072Y-69980000D01*
X112870000Y-69740750D01*
X112711250Y-69582000D01*
X111887000Y-69582000D01*
X111887000Y-69602000D01*
X111633000Y-69602000D01*
X111633000Y-69582000D01*
X110808750Y-69582000D01*
X110650000Y-69740750D01*
X110646928Y-69980000D01*
X110659188Y-70104482D01*
X110695498Y-70224180D01*
X110754463Y-70334494D01*
X110816429Y-70410000D01*
X110163571Y-70410000D01*
X110225537Y-70334494D01*
X110284502Y-70224180D01*
X110320812Y-70104482D01*
X110333072Y-69980000D01*
X110330000Y-69740750D01*
X110171250Y-69582000D01*
X109347000Y-69582000D01*
X109347000Y-69602000D01*
X109093000Y-69602000D01*
X109093000Y-69582000D01*
X108268750Y-69582000D01*
X108110000Y-69740750D01*
X108106928Y-69980000D01*
X108119188Y-70104482D01*
X108155498Y-70224180D01*
X108214463Y-70334494D01*
X108276429Y-70410000D01*
X96794230Y-70410000D01*
X96819200Y-70301600D01*
X96819200Y-69951600D01*
X95961200Y-69951600D01*
X95961200Y-69971600D01*
X95707200Y-69971600D01*
X95707200Y-69951600D01*
X95687200Y-69951600D01*
X95687200Y-69697600D01*
X95707200Y-69697600D01*
X95707200Y-69677600D01*
X95961200Y-69677600D01*
X95961200Y-69697600D01*
X96819200Y-69697600D01*
X96819200Y-69347600D01*
X96817449Y-69340000D01*
X98356289Y-69340000D01*
X98400226Y-69383937D01*
X98569744Y-69497205D01*
X98758102Y-69575226D01*
X98958061Y-69615000D01*
X99161939Y-69615000D01*
X99361898Y-69575226D01*
X99550256Y-69497205D01*
X99719774Y-69383937D01*
X99863937Y-69239774D01*
X99977205Y-69070256D01*
X100055226Y-68881898D01*
X100095000Y-68681939D01*
X100095000Y-68478061D01*
X100055226Y-68278102D01*
X99977205Y-68089744D01*
X99863937Y-67920226D01*
X99719774Y-67776063D01*
X99550256Y-67662795D01*
X99361898Y-67584774D01*
X99161939Y-67545000D01*
X98958061Y-67545000D01*
X98758102Y-67584774D01*
X98604637Y-67648342D01*
X98742033Y-67550440D01*
X98875502Y-67408698D01*
X98978754Y-67243641D01*
X99034085Y-67080238D01*
X98905631Y-66929000D01*
X97866200Y-66929000D01*
X97866200Y-67787000D01*
X98216200Y-67787000D01*
X98405924Y-67743297D01*
X98538581Y-67683617D01*
X98400226Y-67776063D01*
X98356289Y-67820000D01*
X94996125Y-67820000D01*
X94958800Y-67816324D01*
X94921475Y-67820000D01*
X94921467Y-67820000D01*
X94809814Y-67830997D01*
X94666553Y-67874454D01*
X94534524Y-67945026D01*
X94418799Y-68039999D01*
X94394996Y-68069003D01*
X94053198Y-68410801D01*
X94024200Y-68434599D01*
X94000402Y-68463597D01*
X94000401Y-68463598D01*
X93929226Y-68550324D01*
X93865623Y-68669316D01*
X93844084Y-68651640D01*
X93672967Y-68560176D01*
X93487294Y-68503853D01*
X93294200Y-68484835D01*
X93101107Y-68503853D01*
X92915434Y-68560176D01*
X92784200Y-68630322D01*
X92784200Y-68345000D01*
X92811939Y-68345000D01*
X93011898Y-68305226D01*
X93200256Y-68227205D01*
X93369774Y-68113937D01*
X93513937Y-67969774D01*
X93627205Y-67800256D01*
X93705226Y-67611898D01*
X93745000Y-67411939D01*
X93745000Y-67208061D01*
X93719575Y-67080238D01*
X96444315Y-67080238D01*
X96499646Y-67243641D01*
X96602898Y-67408698D01*
X96736367Y-67550440D01*
X96894924Y-67663420D01*
X97072476Y-67743297D01*
X97262200Y-67787000D01*
X97612200Y-67787000D01*
X97612200Y-66929000D01*
X96572769Y-66929000D01*
X96444315Y-67080238D01*
X93719575Y-67080238D01*
X93705226Y-67008102D01*
X93627205Y-66819744D01*
X93513937Y-66650226D01*
X93369774Y-66506063D01*
X93200256Y-66392795D01*
X93011898Y-66314774D01*
X92811939Y-66275000D01*
X92608061Y-66275000D01*
X92441996Y-66308032D01*
X92475034Y-66141939D01*
X92475034Y-65938061D01*
X92435260Y-65738102D01*
X92357239Y-65549744D01*
X92243971Y-65380226D01*
X92099808Y-65236063D01*
X91930290Y-65122795D01*
X91741932Y-65044774D01*
X91541973Y-65005000D01*
X91338095Y-65005000D01*
X91138136Y-65044774D01*
X90949778Y-65122795D01*
X90780260Y-65236063D01*
X90636097Y-65380226D01*
X90522829Y-65549744D01*
X90444808Y-65738102D01*
X90405034Y-65938061D01*
X90405034Y-66000199D01*
X90243198Y-66162035D01*
X90214200Y-66185833D01*
X90190402Y-66214831D01*
X90190401Y-66214832D01*
X90119226Y-66301558D01*
X90048654Y-66433588D01*
X90005198Y-66576849D01*
X89990524Y-66725834D01*
X89994201Y-66763166D01*
X89994201Y-67329399D01*
X89935000Y-67270198D01*
X89935000Y-67208061D01*
X89895226Y-67008102D01*
X89817205Y-66819744D01*
X89703937Y-66650226D01*
X89559774Y-66506063D01*
X89390256Y-66392795D01*
X89201898Y-66314774D01*
X89001939Y-66275000D01*
X88798061Y-66275000D01*
X88598102Y-66314774D01*
X88409744Y-66392795D01*
X88240226Y-66506063D01*
X88096063Y-66650226D01*
X87982795Y-66819744D01*
X87904774Y-67008102D01*
X87865000Y-67208061D01*
X87865000Y-67411939D01*
X87904774Y-67611898D01*
X87982795Y-67800256D01*
X88096063Y-67969774D01*
X88240226Y-68113937D01*
X88409744Y-68227205D01*
X88598102Y-68305226D01*
X88724200Y-68330308D01*
X88724200Y-68630322D01*
X88592967Y-68560176D01*
X88407294Y-68503853D01*
X88214200Y-68484835D01*
X88021107Y-68503853D01*
X87835434Y-68560176D01*
X87664317Y-68651640D01*
X87579200Y-68721493D01*
X87494084Y-68651640D01*
X87322967Y-68560176D01*
X87137294Y-68503853D01*
X86944200Y-68484835D01*
X86751107Y-68503853D01*
X86565434Y-68560176D01*
X86394317Y-68651640D01*
X86309200Y-68721493D01*
X86224084Y-68651640D01*
X86052967Y-68560176D01*
X85867294Y-68503853D01*
X85674200Y-68484835D01*
X85481107Y-68503853D01*
X85295434Y-68560176D01*
X85164200Y-68630322D01*
X85164200Y-68345000D01*
X85191939Y-68345000D01*
X85391898Y-68305226D01*
X85580256Y-68227205D01*
X85749774Y-68113937D01*
X85893937Y-67969774D01*
X86007205Y-67800256D01*
X86085226Y-67611898D01*
X86125000Y-67411939D01*
X86125000Y-67208061D01*
X86085226Y-67008102D01*
X86007205Y-66819744D01*
X85893937Y-66650226D01*
X85749774Y-66506063D01*
X85580256Y-66392795D01*
X85391898Y-66314774D01*
X85191939Y-66275000D01*
X84988061Y-66275000D01*
X84788102Y-66314774D01*
X84599744Y-66392795D01*
X84430226Y-66506063D01*
X84286063Y-66650226D01*
X84172795Y-66819744D01*
X84094774Y-67008102D01*
X84055000Y-67208061D01*
X84055000Y-67270199D01*
X83893198Y-67432001D01*
X83864200Y-67455799D01*
X83840402Y-67484797D01*
X83840401Y-67484798D01*
X83769226Y-67571524D01*
X83698654Y-67703554D01*
X83685773Y-67746019D01*
X83655198Y-67846814D01*
X83647767Y-67922262D01*
X83640524Y-67995800D01*
X83644201Y-68033132D01*
X83644201Y-68627809D01*
X83575841Y-68585046D01*
X83412438Y-68529715D01*
X83261200Y-68658169D01*
X83261200Y-69697600D01*
X83281200Y-69697600D01*
X83281200Y-69951600D01*
X83261200Y-69951600D01*
X83261200Y-69971600D01*
X83007200Y-69971600D01*
X83007200Y-69951600D01*
X82149200Y-69951600D01*
X82149200Y-70301600D01*
X82174170Y-70410000D01*
X71306328Y-70410000D01*
X71343000Y-70250800D01*
X71343000Y-69900800D01*
X70485000Y-69900800D01*
X70485000Y-69920800D01*
X70231000Y-69920800D01*
X70231000Y-69900800D01*
X70211000Y-69900800D01*
X70211000Y-69646800D01*
X70231000Y-69646800D01*
X70231000Y-68607369D01*
X70485000Y-68607369D01*
X70485000Y-69646800D01*
X71343000Y-69646800D01*
X71343000Y-69347600D01*
X82149200Y-69347600D01*
X82149200Y-69697600D01*
X83007200Y-69697600D01*
X83007200Y-68658169D01*
X82855962Y-68529715D01*
X82692559Y-68585046D01*
X82527502Y-68688298D01*
X82385760Y-68821767D01*
X82272780Y-68980324D01*
X82192903Y-69157876D01*
X82149200Y-69347600D01*
X71343000Y-69347600D01*
X71343000Y-69296800D01*
X71299297Y-69107076D01*
X71219420Y-68929524D01*
X71106440Y-68770967D01*
X70964698Y-68637498D01*
X70799641Y-68534246D01*
X70636238Y-68478915D01*
X70485000Y-68607369D01*
X70231000Y-68607369D01*
X70079762Y-68478915D01*
X69916359Y-68534246D01*
X69751302Y-68637498D01*
X69719286Y-68667645D01*
X69637884Y-68600840D01*
X69466767Y-68509376D01*
X69281094Y-68453053D01*
X69088000Y-68434035D01*
X68894907Y-68453053D01*
X68709234Y-68509376D01*
X68538117Y-68600840D01*
X68456714Y-68667645D01*
X68424698Y-68637498D01*
X68259641Y-68534246D01*
X68096238Y-68478915D01*
X67945000Y-68607369D01*
X67945000Y-69646800D01*
X67965000Y-69646800D01*
X67965000Y-69900800D01*
X67945000Y-69900800D01*
X67945000Y-69920800D01*
X67691000Y-69920800D01*
X67691000Y-69900800D01*
X66833000Y-69900800D01*
X66833000Y-70250800D01*
X66869672Y-70410000D01*
X66750000Y-70410000D01*
X66750000Y-69296800D01*
X66833000Y-69296800D01*
X66833000Y-69646800D01*
X67691000Y-69646800D01*
X67691000Y-68607369D01*
X67539762Y-68478915D01*
X67376359Y-68534246D01*
X67211302Y-68637498D01*
X67069560Y-68770967D01*
X66956580Y-68929524D01*
X66876703Y-69107076D01*
X66833000Y-69296800D01*
X66750000Y-69296800D01*
X66750000Y-59817000D01*
X82550000Y-59817000D01*
X82574776Y-59814560D01*
X82598601Y-59807333D01*
X82620557Y-59795597D01*
X82639803Y-59779803D01*
X82655597Y-59760557D01*
X82667333Y-59738601D01*
X82674560Y-59714776D01*
X82677000Y-59690000D01*
X82677000Y-51124932D01*
X82717959Y-51150554D01*
X82881362Y-51205885D01*
X83032600Y-51077431D01*
X83032600Y-50038000D01*
X83012600Y-50038000D01*
X83012600Y-49784000D01*
X83032600Y-49784000D01*
X83032600Y-49764000D01*
X83286600Y-49764000D01*
X83286600Y-49784000D01*
G37*
X83286600Y-49784000D02*
X83306600Y-49784000D01*
X83306600Y-50038000D01*
X83286600Y-50038000D01*
X83286600Y-51077431D01*
X83437838Y-51205885D01*
X83494600Y-51186664D01*
X83494600Y-51424368D01*
X83490076Y-51470300D01*
X83495564Y-51526015D01*
X83508129Y-51653591D01*
X83561593Y-51829839D01*
X83648414Y-51992271D01*
X83765256Y-52134644D01*
X83800942Y-52163930D01*
X84335666Y-52698654D01*
X84364956Y-52734344D01*
X84507328Y-52851186D01*
X84669760Y-52938007D01*
X84831945Y-52987205D01*
X84846008Y-52991471D01*
X85029300Y-53009524D01*
X85075232Y-53005000D01*
X96323882Y-53005000D01*
X96369814Y-53009524D01*
X96415746Y-53005000D01*
X96544467Y-52992322D01*
X96444315Y-53110238D01*
X96499646Y-53273641D01*
X96602898Y-53438698D01*
X96633045Y-53470714D01*
X96566240Y-53552116D01*
X96474776Y-53723233D01*
X96418453Y-53908906D01*
X96399435Y-54102000D01*
X96418453Y-54295094D01*
X96474776Y-54480767D01*
X96566240Y-54651884D01*
X96636093Y-54737000D01*
X96566240Y-54822116D01*
X96474776Y-54993233D01*
X96418453Y-55178906D01*
X96399435Y-55372000D01*
X96418453Y-55565094D01*
X96474776Y-55750767D01*
X96566240Y-55921884D01*
X96636093Y-56007000D01*
X96566240Y-56092116D01*
X96474776Y-56263233D01*
X96418453Y-56448906D01*
X96399435Y-56642000D01*
X96418453Y-56835094D01*
X96474776Y-57020767D01*
X96566240Y-57191884D01*
X96636093Y-57277000D01*
X96566240Y-57362116D01*
X96474776Y-57533233D01*
X96418453Y-57718906D01*
X96399435Y-57912000D01*
X96418453Y-58105094D01*
X96474776Y-58290767D01*
X96566240Y-58461884D01*
X96636093Y-58547000D01*
X96566240Y-58632116D01*
X96474776Y-58803233D01*
X96418453Y-58988906D01*
X96399435Y-59182000D01*
X96418453Y-59375094D01*
X96474776Y-59560767D01*
X96566240Y-59731884D01*
X96636093Y-59817000D01*
X96566240Y-59902116D01*
X96474776Y-60073233D01*
X96418453Y-60258906D01*
X96399435Y-60452000D01*
X96418453Y-60645094D01*
X96474776Y-60830767D01*
X96566240Y-61001884D01*
X96636093Y-61087000D01*
X96566240Y-61172116D01*
X96474776Y-61343233D01*
X96418453Y-61528906D01*
X96399435Y-61722000D01*
X96418453Y-61915094D01*
X96474776Y-62100767D01*
X96566240Y-62271884D01*
X96636093Y-62357000D01*
X96566240Y-62442116D01*
X96474776Y-62613233D01*
X96418453Y-62798906D01*
X96399435Y-62992000D01*
X96418453Y-63185094D01*
X96474776Y-63370767D01*
X96566240Y-63541884D01*
X96636093Y-63627000D01*
X96566240Y-63712116D01*
X96474776Y-63883233D01*
X96418453Y-64068906D01*
X96399435Y-64262000D01*
X96418453Y-64455094D01*
X96474776Y-64640767D01*
X96566240Y-64811884D01*
X96636093Y-64897000D01*
X96566240Y-64982116D01*
X96474776Y-65153233D01*
X96418453Y-65338906D01*
X96399435Y-65532000D01*
X96418453Y-65725094D01*
X96474776Y-65910767D01*
X96566240Y-66081884D01*
X96633045Y-66163286D01*
X96602898Y-66195302D01*
X96499646Y-66360359D01*
X96444315Y-66523762D01*
X96572769Y-66675000D01*
X97612200Y-66675000D01*
X97612200Y-66655000D01*
X97866200Y-66655000D01*
X97866200Y-66675000D01*
X98905631Y-66675000D01*
X99034085Y-66523762D01*
X98978754Y-66360359D01*
X98935992Y-66292000D01*
X102070678Y-66292000D01*
X102108000Y-66295676D01*
X102145322Y-66292000D01*
X102145333Y-66292000D01*
X102256986Y-66281003D01*
X102400247Y-66237546D01*
X102532276Y-66166974D01*
X102648001Y-66072001D01*
X102671803Y-66042998D01*
X102809801Y-65905000D01*
X102981788Y-65905000D01*
X103201067Y-65861383D01*
X103312774Y-65815112D01*
X103395820Y-65859502D01*
X103515518Y-65895812D01*
X103640000Y-65908072D01*
X104640000Y-65908072D01*
X104764482Y-65895812D01*
X104884180Y-65859502D01*
X104994494Y-65800537D01*
X105091185Y-65721185D01*
X105170537Y-65624494D01*
X105186511Y-65594610D01*
X105203689Y-65592918D01*
X105361087Y-65545172D01*
X105506146Y-65467636D01*
X105633291Y-65363291D01*
X105659446Y-65331421D01*
X107711427Y-63279441D01*
X107743290Y-63253292D01*
X107847635Y-63126147D01*
X107925171Y-62981088D01*
X107948705Y-62903507D01*
X108123232Y-63078034D01*
X108123752Y-63083316D01*
X108173577Y-63247567D01*
X108254488Y-63398942D01*
X108337425Y-63500000D01*
X108254488Y-63601058D01*
X108173577Y-63752433D01*
X108123752Y-63916684D01*
X108106928Y-64087500D01*
X108106928Y-64662500D01*
X108123752Y-64833316D01*
X108173577Y-64997567D01*
X108254488Y-65148942D01*
X108363377Y-65281623D01*
X108460000Y-65360920D01*
X108460001Y-66719080D01*
X108363377Y-66798377D01*
X108254488Y-66931058D01*
X108173577Y-67082433D01*
X108123752Y-67246684D01*
X108106928Y-67417500D01*
X108106928Y-67992500D01*
X108123752Y-68163316D01*
X108173577Y-68327567D01*
X108254488Y-68478942D01*
X108274099Y-68502839D01*
X108214463Y-68575506D01*
X108155498Y-68685820D01*
X108119188Y-68805518D01*
X108106928Y-68930000D01*
X108110000Y-69169250D01*
X108268750Y-69328000D01*
X109093000Y-69328000D01*
X109093000Y-69308000D01*
X109347000Y-69308000D01*
X109347000Y-69328000D01*
X110171250Y-69328000D01*
X110330000Y-69169250D01*
X110333072Y-68930000D01*
X110320812Y-68805518D01*
X110284502Y-68685820D01*
X110225537Y-68575506D01*
X110165901Y-68502839D01*
X110185512Y-68478942D01*
X110266423Y-68327567D01*
X110316248Y-68163316D01*
X110333072Y-67992500D01*
X110333072Y-67417500D01*
X110316248Y-67246684D01*
X110266423Y-67082433D01*
X110185512Y-66931058D01*
X110076623Y-66798377D01*
X109980000Y-66719080D01*
X109980000Y-65360920D01*
X110076623Y-65281623D01*
X110185512Y-65148942D01*
X110266423Y-64997567D01*
X110316248Y-64833316D01*
X110333072Y-64662500D01*
X110333072Y-64087500D01*
X110316248Y-63916684D01*
X110266423Y-63752433D01*
X110185512Y-63601058D01*
X110102575Y-63500000D01*
X110185512Y-63398942D01*
X110266423Y-63247567D01*
X110316248Y-63083316D01*
X110333072Y-62912500D01*
X110333072Y-62747874D01*
X110663232Y-63078034D01*
X110663752Y-63083316D01*
X110713577Y-63247567D01*
X110794488Y-63398942D01*
X110877425Y-63500000D01*
X110794488Y-63601058D01*
X110713577Y-63752433D01*
X110663752Y-63916684D01*
X110646928Y-64087500D01*
X110646928Y-64662500D01*
X110663752Y-64833316D01*
X110713577Y-64997567D01*
X110794488Y-65148942D01*
X110903377Y-65281623D01*
X111000000Y-65360920D01*
X111000001Y-66719080D01*
X110903377Y-66798377D01*
X110794488Y-66931058D01*
X110713577Y-67082433D01*
X110663752Y-67246684D01*
X110646928Y-67417500D01*
X110646928Y-67992500D01*
X110663752Y-68163316D01*
X110713577Y-68327567D01*
X110794488Y-68478942D01*
X110814099Y-68502839D01*
X110754463Y-68575506D01*
X110695498Y-68685820D01*
X110659188Y-68805518D01*
X110646928Y-68930000D01*
X110650000Y-69169250D01*
X110808750Y-69328000D01*
X111633000Y-69328000D01*
X111633000Y-69308000D01*
X111887000Y-69308000D01*
X111887000Y-69328000D01*
X112711250Y-69328000D01*
X112870000Y-69169250D01*
X112873072Y-68930000D01*
X112860812Y-68805518D01*
X112824502Y-68685820D01*
X112765537Y-68575506D01*
X112705901Y-68502839D01*
X112725512Y-68478942D01*
X112806423Y-68327567D01*
X112856248Y-68163316D01*
X112873072Y-67992500D01*
X112873072Y-67417500D01*
X112856248Y-67246684D01*
X112806423Y-67082433D01*
X112725512Y-66931058D01*
X112616623Y-66798377D01*
X112520000Y-66719080D01*
X112520000Y-65360920D01*
X112614996Y-65282958D01*
X112614996Y-66423472D01*
X112627801Y-66553485D01*
X112678407Y-66720308D01*
X112760585Y-66874054D01*
X112871179Y-67008813D01*
X113005937Y-67119407D01*
X113118940Y-67179808D01*
X113202144Y-67263012D01*
X113186928Y-67417500D01*
X113186928Y-67992500D01*
X113203752Y-68163316D01*
X113253577Y-68327567D01*
X113334488Y-68478942D01*
X113354099Y-68502839D01*
X113294463Y-68575506D01*
X113235498Y-68685820D01*
X113199188Y-68805518D01*
X113186928Y-68930000D01*
X113190000Y-69169250D01*
X113348750Y-69328000D01*
X114173000Y-69328000D01*
X114173000Y-69308000D01*
X114427000Y-69308000D01*
X114427000Y-69328000D01*
X114447000Y-69328000D01*
X114447000Y-69582000D01*
X114427000Y-69582000D01*
X114427000Y-69602000D01*
X114173000Y-69602000D01*
X114173000Y-69582000D01*
X113348750Y-69582000D01*
X113190000Y-69740750D01*
X113186928Y-69980000D01*
X113199188Y-70104482D01*
X113235498Y-70224180D01*
X113294463Y-70334494D01*
X113356429Y-70410000D01*
X112703571Y-70410000D01*
X112765537Y-70334494D01*
X112824502Y-70224180D01*
X112860812Y-70104482D01*
X112873072Y-69980000D01*
X112870000Y-69740750D01*
X112711250Y-69582000D01*
X111887000Y-69582000D01*
X111887000Y-69602000D01*
X111633000Y-69602000D01*
X111633000Y-69582000D01*
X110808750Y-69582000D01*
X110650000Y-69740750D01*
X110646928Y-69980000D01*
X110659188Y-70104482D01*
X110695498Y-70224180D01*
X110754463Y-70334494D01*
X110816429Y-70410000D01*
X110163571Y-70410000D01*
X110225537Y-70334494D01*
X110284502Y-70224180D01*
X110320812Y-70104482D01*
X110333072Y-69980000D01*
X110330000Y-69740750D01*
X110171250Y-69582000D01*
X109347000Y-69582000D01*
X109347000Y-69602000D01*
X109093000Y-69602000D01*
X109093000Y-69582000D01*
X108268750Y-69582000D01*
X108110000Y-69740750D01*
X108106928Y-69980000D01*
X108119188Y-70104482D01*
X108155498Y-70224180D01*
X108214463Y-70334494D01*
X108276429Y-70410000D01*
X96794230Y-70410000D01*
X96819200Y-70301600D01*
X96819200Y-69951600D01*
X95961200Y-69951600D01*
X95961200Y-69971600D01*
X95707200Y-69971600D01*
X95707200Y-69951600D01*
X95687200Y-69951600D01*
X95687200Y-69697600D01*
X95707200Y-69697600D01*
X95707200Y-69677600D01*
X95961200Y-69677600D01*
X95961200Y-69697600D01*
X96819200Y-69697600D01*
X96819200Y-69347600D01*
X96817449Y-69340000D01*
X98356289Y-69340000D01*
X98400226Y-69383937D01*
X98569744Y-69497205D01*
X98758102Y-69575226D01*
X98958061Y-69615000D01*
X99161939Y-69615000D01*
X99361898Y-69575226D01*
X99550256Y-69497205D01*
X99719774Y-69383937D01*
X99863937Y-69239774D01*
X99977205Y-69070256D01*
X100055226Y-68881898D01*
X100095000Y-68681939D01*
X100095000Y-68478061D01*
X100055226Y-68278102D01*
X99977205Y-68089744D01*
X99863937Y-67920226D01*
X99719774Y-67776063D01*
X99550256Y-67662795D01*
X99361898Y-67584774D01*
X99161939Y-67545000D01*
X98958061Y-67545000D01*
X98758102Y-67584774D01*
X98604637Y-67648342D01*
X98742033Y-67550440D01*
X98875502Y-67408698D01*
X98978754Y-67243641D01*
X99034085Y-67080238D01*
X98905631Y-66929000D01*
X97866200Y-66929000D01*
X97866200Y-67787000D01*
X98216200Y-67787000D01*
X98405924Y-67743297D01*
X98538581Y-67683617D01*
X98400226Y-67776063D01*
X98356289Y-67820000D01*
X94996125Y-67820000D01*
X94958800Y-67816324D01*
X94921475Y-67820000D01*
X94921467Y-67820000D01*
X94809814Y-67830997D01*
X94666553Y-67874454D01*
X94534524Y-67945026D01*
X94418799Y-68039999D01*
X94394996Y-68069003D01*
X94053198Y-68410801D01*
X94024200Y-68434599D01*
X94000402Y-68463597D01*
X94000401Y-68463598D01*
X93929226Y-68550324D01*
X93865623Y-68669316D01*
X93844084Y-68651640D01*
X93672967Y-68560176D01*
X93487294Y-68503853D01*
X93294200Y-68484835D01*
X93101107Y-68503853D01*
X92915434Y-68560176D01*
X92784200Y-68630322D01*
X92784200Y-68345000D01*
X92811939Y-68345000D01*
X93011898Y-68305226D01*
X93200256Y-68227205D01*
X93369774Y-68113937D01*
X93513937Y-67969774D01*
X93627205Y-67800256D01*
X93705226Y-67611898D01*
X93745000Y-67411939D01*
X93745000Y-67208061D01*
X93719575Y-67080238D01*
X96444315Y-67080238D01*
X96499646Y-67243641D01*
X96602898Y-67408698D01*
X96736367Y-67550440D01*
X96894924Y-67663420D01*
X97072476Y-67743297D01*
X97262200Y-67787000D01*
X97612200Y-67787000D01*
X97612200Y-66929000D01*
X96572769Y-66929000D01*
X96444315Y-67080238D01*
X93719575Y-67080238D01*
X93705226Y-67008102D01*
X93627205Y-66819744D01*
X93513937Y-66650226D01*
X93369774Y-66506063D01*
X93200256Y-66392795D01*
X93011898Y-66314774D01*
X92811939Y-66275000D01*
X92608061Y-66275000D01*
X92441996Y-66308032D01*
X92475034Y-66141939D01*
X92475034Y-65938061D01*
X92435260Y-65738102D01*
X92357239Y-65549744D01*
X92243971Y-65380226D01*
X92099808Y-65236063D01*
X91930290Y-65122795D01*
X91741932Y-65044774D01*
X91541973Y-65005000D01*
X91338095Y-65005000D01*
X91138136Y-65044774D01*
X90949778Y-65122795D01*
X90780260Y-65236063D01*
X90636097Y-65380226D01*
X90522829Y-65549744D01*
X90444808Y-65738102D01*
X90405034Y-65938061D01*
X90405034Y-66000199D01*
X90243198Y-66162035D01*
X90214200Y-66185833D01*
X90190402Y-66214831D01*
X90190401Y-66214832D01*
X90119226Y-66301558D01*
X90048654Y-66433588D01*
X90005198Y-66576849D01*
X89990524Y-66725834D01*
X89994201Y-66763166D01*
X89994201Y-67329399D01*
X89935000Y-67270198D01*
X89935000Y-67208061D01*
X89895226Y-67008102D01*
X89817205Y-66819744D01*
X89703937Y-66650226D01*
X89559774Y-66506063D01*
X89390256Y-66392795D01*
X89201898Y-66314774D01*
X89001939Y-66275000D01*
X88798061Y-66275000D01*
X88598102Y-66314774D01*
X88409744Y-66392795D01*
X88240226Y-66506063D01*
X88096063Y-66650226D01*
X87982795Y-66819744D01*
X87904774Y-67008102D01*
X87865000Y-67208061D01*
X87865000Y-67411939D01*
X87904774Y-67611898D01*
X87982795Y-67800256D01*
X88096063Y-67969774D01*
X88240226Y-68113937D01*
X88409744Y-68227205D01*
X88598102Y-68305226D01*
X88724200Y-68330308D01*
X88724200Y-68630322D01*
X88592967Y-68560176D01*
X88407294Y-68503853D01*
X88214200Y-68484835D01*
X88021107Y-68503853D01*
X87835434Y-68560176D01*
X87664317Y-68651640D01*
X87579200Y-68721493D01*
X87494084Y-68651640D01*
X87322967Y-68560176D01*
X87137294Y-68503853D01*
X86944200Y-68484835D01*
X86751107Y-68503853D01*
X86565434Y-68560176D01*
X86394317Y-68651640D01*
X86309200Y-68721493D01*
X86224084Y-68651640D01*
X86052967Y-68560176D01*
X85867294Y-68503853D01*
X85674200Y-68484835D01*
X85481107Y-68503853D01*
X85295434Y-68560176D01*
X85164200Y-68630322D01*
X85164200Y-68345000D01*
X85191939Y-68345000D01*
X85391898Y-68305226D01*
X85580256Y-68227205D01*
X85749774Y-68113937D01*
X85893937Y-67969774D01*
X86007205Y-67800256D01*
X86085226Y-67611898D01*
X86125000Y-67411939D01*
X86125000Y-67208061D01*
X86085226Y-67008102D01*
X86007205Y-66819744D01*
X85893937Y-66650226D01*
X85749774Y-66506063D01*
X85580256Y-66392795D01*
X85391898Y-66314774D01*
X85191939Y-66275000D01*
X84988061Y-66275000D01*
X84788102Y-66314774D01*
X84599744Y-66392795D01*
X84430226Y-66506063D01*
X84286063Y-66650226D01*
X84172795Y-66819744D01*
X84094774Y-67008102D01*
X84055000Y-67208061D01*
X84055000Y-67270199D01*
X83893198Y-67432001D01*
X83864200Y-67455799D01*
X83840402Y-67484797D01*
X83840401Y-67484798D01*
X83769226Y-67571524D01*
X83698654Y-67703554D01*
X83685773Y-67746019D01*
X83655198Y-67846814D01*
X83647767Y-67922262D01*
X83640524Y-67995800D01*
X83644201Y-68033132D01*
X83644201Y-68627809D01*
X83575841Y-68585046D01*
X83412438Y-68529715D01*
X83261200Y-68658169D01*
X83261200Y-69697600D01*
X83281200Y-69697600D01*
X83281200Y-69951600D01*
X83261200Y-69951600D01*
X83261200Y-69971600D01*
X83007200Y-69971600D01*
X83007200Y-69951600D01*
X82149200Y-69951600D01*
X82149200Y-70301600D01*
X82174170Y-70410000D01*
X71306328Y-70410000D01*
X71343000Y-70250800D01*
X71343000Y-69900800D01*
X70485000Y-69900800D01*
X70485000Y-69920800D01*
X70231000Y-69920800D01*
X70231000Y-69900800D01*
X70211000Y-69900800D01*
X70211000Y-69646800D01*
X70231000Y-69646800D01*
X70231000Y-68607369D01*
X70485000Y-68607369D01*
X70485000Y-69646800D01*
X71343000Y-69646800D01*
X71343000Y-69347600D01*
X82149200Y-69347600D01*
X82149200Y-69697600D01*
X83007200Y-69697600D01*
X83007200Y-68658169D01*
X82855962Y-68529715D01*
X82692559Y-68585046D01*
X82527502Y-68688298D01*
X82385760Y-68821767D01*
X82272780Y-68980324D01*
X82192903Y-69157876D01*
X82149200Y-69347600D01*
X71343000Y-69347600D01*
X71343000Y-69296800D01*
X71299297Y-69107076D01*
X71219420Y-68929524D01*
X71106440Y-68770967D01*
X70964698Y-68637498D01*
X70799641Y-68534246D01*
X70636238Y-68478915D01*
X70485000Y-68607369D01*
X70231000Y-68607369D01*
X70079762Y-68478915D01*
X69916359Y-68534246D01*
X69751302Y-68637498D01*
X69719286Y-68667645D01*
X69637884Y-68600840D01*
X69466767Y-68509376D01*
X69281094Y-68453053D01*
X69088000Y-68434035D01*
X68894907Y-68453053D01*
X68709234Y-68509376D01*
X68538117Y-68600840D01*
X68456714Y-68667645D01*
X68424698Y-68637498D01*
X68259641Y-68534246D01*
X68096238Y-68478915D01*
X67945000Y-68607369D01*
X67945000Y-69646800D01*
X67965000Y-69646800D01*
X67965000Y-69900800D01*
X67945000Y-69900800D01*
X67945000Y-69920800D01*
X67691000Y-69920800D01*
X67691000Y-69900800D01*
X66833000Y-69900800D01*
X66833000Y-70250800D01*
X66869672Y-70410000D01*
X66750000Y-70410000D01*
X66750000Y-69296800D01*
X66833000Y-69296800D01*
X66833000Y-69646800D01*
X67691000Y-69646800D01*
X67691000Y-68607369D01*
X67539762Y-68478915D01*
X67376359Y-68534246D01*
X67211302Y-68637498D01*
X67069560Y-68770967D01*
X66956580Y-68929524D01*
X66876703Y-69107076D01*
X66833000Y-69296800D01*
X66750000Y-69296800D01*
X66750000Y-59817000D01*
X82550000Y-59817000D01*
X82574776Y-59814560D01*
X82598601Y-59807333D01*
X82620557Y-59795597D01*
X82639803Y-59779803D01*
X82655597Y-59760557D01*
X82667333Y-59738601D01*
X82674560Y-59714776D01*
X82677000Y-59690000D01*
X82677000Y-51124932D01*
X82717959Y-51150554D01*
X82881362Y-51205885D01*
X83032600Y-51077431D01*
X83032600Y-50038000D01*
X83012600Y-50038000D01*
X83012600Y-49784000D01*
X83032600Y-49784000D01*
X83032600Y-49764000D01*
X83286600Y-49764000D01*
X83286600Y-49784000D01*
G36*
X116070498Y-59534180D02*
G01*
X116129463Y-59644494D01*
X116207369Y-59739423D01*
X116150498Y-59845820D01*
X116114188Y-59965518D01*
X116101928Y-60090000D01*
X116105000Y-60504250D01*
X116263750Y-60663000D01*
X117213000Y-60663000D01*
X117213000Y-60643000D01*
X117467000Y-60643000D01*
X117467000Y-60663000D01*
X117487000Y-60663000D01*
X117487000Y-60917000D01*
X117467000Y-60917000D01*
X117467000Y-61966250D01*
X117504875Y-62004125D01*
X117501445Y-62038947D01*
X117515636Y-62183032D01*
X117542590Y-62271884D01*
X117557665Y-62321580D01*
X117625915Y-62449267D01*
X117669133Y-62501928D01*
X117460000Y-62501928D01*
X117360000Y-62511777D01*
X117260000Y-62501928D01*
X116960000Y-62501928D01*
X116835518Y-62514188D01*
X116715820Y-62550498D01*
X116605506Y-62609463D01*
X116508815Y-62688815D01*
X116429463Y-62785506D01*
X116370498Y-62895820D01*
X116334188Y-63015518D01*
X116321928Y-63140000D01*
X116321928Y-64107448D01*
X114488308Y-64107448D01*
X114384996Y-64004137D01*
X114384996Y-62333461D01*
X114389277Y-62289995D01*
X114384996Y-62246529D01*
X114384996Y-62246519D01*
X114372191Y-62116506D01*
X114321585Y-61949683D01*
X114239407Y-61795937D01*
X114188724Y-61734180D01*
X114156528Y-61694949D01*
X114156526Y-61694947D01*
X114128813Y-61661179D01*
X114095045Y-61633466D01*
X113951579Y-61490000D01*
X116101928Y-61490000D01*
X116114188Y-61614482D01*
X116150498Y-61734180D01*
X116209463Y-61844494D01*
X116288815Y-61941185D01*
X116385506Y-62020537D01*
X116495820Y-62079502D01*
X116615518Y-62115812D01*
X116740000Y-62128072D01*
X117054250Y-62125000D01*
X117213000Y-61966250D01*
X117213000Y-60917000D01*
X116263750Y-60917000D01*
X116105000Y-61075750D01*
X116101928Y-61490000D01*
X113951579Y-61490000D01*
X111936579Y-59475000D01*
X116052546Y-59475000D01*
X116070498Y-59534180D01*
G37*
X116070498Y-59534180D02*
X116129463Y-59644494D01*
X116207369Y-59739423D01*
X116150498Y-59845820D01*
X116114188Y-59965518D01*
X116101928Y-60090000D01*
X116105000Y-60504250D01*
X116263750Y-60663000D01*
X117213000Y-60663000D01*
X117213000Y-60643000D01*
X117467000Y-60643000D01*
X117467000Y-60663000D01*
X117487000Y-60663000D01*
X117487000Y-60917000D01*
X117467000Y-60917000D01*
X117467000Y-61966250D01*
X117504875Y-62004125D01*
X117501445Y-62038947D01*
X117515636Y-62183032D01*
X117542590Y-62271884D01*
X117557665Y-62321580D01*
X117625915Y-62449267D01*
X117669133Y-62501928D01*
X117460000Y-62501928D01*
X117360000Y-62511777D01*
X117260000Y-62501928D01*
X116960000Y-62501928D01*
X116835518Y-62514188D01*
X116715820Y-62550498D01*
X116605506Y-62609463D01*
X116508815Y-62688815D01*
X116429463Y-62785506D01*
X116370498Y-62895820D01*
X116334188Y-63015518D01*
X116321928Y-63140000D01*
X116321928Y-64107448D01*
X114488308Y-64107448D01*
X114384996Y-64004137D01*
X114384996Y-62333461D01*
X114389277Y-62289995D01*
X114384996Y-62246529D01*
X114384996Y-62246519D01*
X114372191Y-62116506D01*
X114321585Y-61949683D01*
X114239407Y-61795937D01*
X114188724Y-61734180D01*
X114156528Y-61694949D01*
X114156526Y-61694947D01*
X114128813Y-61661179D01*
X114095045Y-61633466D01*
X113951579Y-61490000D01*
X116101928Y-61490000D01*
X116114188Y-61614482D01*
X116150498Y-61734180D01*
X116209463Y-61844494D01*
X116288815Y-61941185D01*
X116385506Y-62020537D01*
X116495820Y-62079502D01*
X116615518Y-62115812D01*
X116740000Y-62128072D01*
X117054250Y-62125000D01*
X117213000Y-61966250D01*
X117213000Y-60917000D01*
X116263750Y-60917000D01*
X116105000Y-61075750D01*
X116101928Y-61490000D01*
X113951579Y-61490000D01*
X111936579Y-59475000D01*
X116052546Y-59475000D01*
X116070498Y-59534180D01*
G36*
X104267000Y-63373000D02*
G01*
X104287000Y-63373000D01*
X104287000Y-63627000D01*
X104267000Y-63627000D01*
X104267000Y-63631928D01*
X104013000Y-63631928D01*
X104013000Y-63627000D01*
X104001974Y-63627000D01*
X104005000Y-63611788D01*
X104005000Y-63388212D01*
X104001974Y-63373000D01*
X104013000Y-63373000D01*
X104013000Y-63361974D01*
X104028212Y-63365000D01*
X104251788Y-63365000D01*
X104267000Y-63361974D01*
X104267000Y-63373000D01*
G37*
X104267000Y-63373000D02*
X104287000Y-63373000D01*
X104287000Y-63627000D01*
X104267000Y-63627000D01*
X104267000Y-63631928D01*
X104013000Y-63631928D01*
X104013000Y-63627000D01*
X104001974Y-63627000D01*
X104005000Y-63611788D01*
X104005000Y-63388212D01*
X104001974Y-63373000D01*
X104013000Y-63373000D01*
X104013000Y-63361974D01*
X104028212Y-63365000D01*
X104251788Y-63365000D01*
X104267000Y-63361974D01*
X104267000Y-63373000D01*
G36*
X105411928Y-51190000D02*
G01*
X105424188Y-51314482D01*
X105460498Y-51434180D01*
X105519463Y-51544494D01*
X105598815Y-51641185D01*
X105695506Y-51720537D01*
X105805820Y-51779502D01*
X105925518Y-51815812D01*
X106050000Y-51828072D01*
X107015000Y-51828072D01*
X107015001Y-54882546D01*
X106955820Y-54900498D01*
X106845506Y-54959463D01*
X106800000Y-54996809D01*
X106754494Y-54959463D01*
X106644180Y-54900498D01*
X106524482Y-54864188D01*
X106400000Y-54851928D01*
X105935750Y-54855000D01*
X105777000Y-55013750D01*
X105777000Y-56363000D01*
X105797000Y-56363000D01*
X105797000Y-56617000D01*
X105777000Y-56617000D01*
X105777000Y-57966250D01*
X105935750Y-58125000D01*
X106400000Y-58128072D01*
X106524482Y-58115812D01*
X106546518Y-58109127D01*
X106488617Y-58179681D01*
X106452363Y-58223856D01*
X106374827Y-58368915D01*
X106327081Y-58526313D01*
X106310959Y-58690001D01*
X106315000Y-58731029D01*
X106314999Y-62314133D01*
X105256135Y-63372998D01*
X105107955Y-63372998D01*
X105234119Y-63198126D01*
X105217446Y-63143136D01*
X105127123Y-62939794D01*
X105077647Y-62869658D01*
X105145824Y-62767624D01*
X105231383Y-62561067D01*
X105275000Y-62341788D01*
X105275000Y-62118212D01*
X105231383Y-61898933D01*
X105145824Y-61692376D01*
X105021612Y-61506480D01*
X104863520Y-61348388D01*
X104677624Y-61224176D01*
X104471067Y-61138617D01*
X104251788Y-61095000D01*
X104028212Y-61095000D01*
X103808933Y-61138617D01*
X103602376Y-61224176D01*
X103505000Y-61289241D01*
X103407624Y-61224176D01*
X103201067Y-61138617D01*
X102981788Y-61095000D01*
X102809803Y-61095000D01*
X101090000Y-59375199D01*
X101090000Y-57490000D01*
X104261928Y-57490000D01*
X104274188Y-57614482D01*
X104310498Y-57734180D01*
X104369463Y-57844494D01*
X104448815Y-57941185D01*
X104545506Y-58020537D01*
X104655820Y-58079502D01*
X104775518Y-58115812D01*
X104900000Y-58128072D01*
X105364250Y-58125000D01*
X105523000Y-57966250D01*
X105523000Y-56617000D01*
X104423750Y-56617000D01*
X104265000Y-56775750D01*
X104261928Y-57490000D01*
X101090000Y-57490000D01*
X101090000Y-55490000D01*
X104261928Y-55490000D01*
X104265000Y-56204250D01*
X104423750Y-56363000D01*
X105523000Y-56363000D01*
X105523000Y-55013750D01*
X105364250Y-54855000D01*
X104900000Y-54851928D01*
X104775518Y-54864188D01*
X104655820Y-54900498D01*
X104545506Y-54959463D01*
X104448815Y-55038815D01*
X104369463Y-55135506D01*
X104310498Y-55245820D01*
X104274188Y-55365518D01*
X104261928Y-55490000D01*
X101090000Y-55490000D01*
X101090000Y-55313711D01*
X101133937Y-55269774D01*
X101247205Y-55100256D01*
X101325226Y-54911898D01*
X101365000Y-54711939D01*
X101365000Y-54508061D01*
X101325226Y-54308102D01*
X101247205Y-54119744D01*
X101238178Y-54106235D01*
X101314250Y-54105000D01*
X101473000Y-53946250D01*
X101473000Y-53072000D01*
X101727000Y-53072000D01*
X101727000Y-53946250D01*
X101885750Y-54105000D01*
X102075000Y-54108072D01*
X102199482Y-54095812D01*
X102319180Y-54059502D01*
X102429494Y-54000537D01*
X102526185Y-53921185D01*
X102605537Y-53824494D01*
X102664502Y-53714180D01*
X102700812Y-53594482D01*
X102713072Y-53470000D01*
X102710000Y-53230750D01*
X102551250Y-53072000D01*
X101727000Y-53072000D01*
X101473000Y-53072000D01*
X100648750Y-53072000D01*
X100490000Y-53230750D01*
X100486928Y-53470000D01*
X100498575Y-53588255D01*
X100431939Y-53575000D01*
X100372671Y-53575000D01*
X100362001Y-53561999D01*
X100246276Y-53467026D01*
X100114247Y-53396454D01*
X99970986Y-53352997D01*
X99859333Y-53342000D01*
X99859322Y-53342000D01*
X99822000Y-53338324D01*
X99784678Y-53342000D01*
X98935992Y-53342000D01*
X98978754Y-53273641D01*
X99034085Y-53110238D01*
X98905631Y-52959000D01*
X97866200Y-52959000D01*
X97866200Y-52979000D01*
X97612200Y-52979000D01*
X97612200Y-52959000D01*
X97592200Y-52959000D01*
X97592200Y-52705000D01*
X97612200Y-52705000D01*
X97612200Y-52685000D01*
X97866200Y-52685000D01*
X97866200Y-52705000D01*
X98905631Y-52705000D01*
X99034085Y-52553762D01*
X98978754Y-52390359D01*
X98875502Y-52225302D01*
X98785762Y-52130000D01*
X100559990Y-52130000D01*
X100535498Y-52175820D01*
X100499188Y-52295518D01*
X100486928Y-52420000D01*
X100490000Y-52659250D01*
X100648750Y-52818000D01*
X101473000Y-52818000D01*
X101473000Y-52798000D01*
X101727000Y-52798000D01*
X101727000Y-52818000D01*
X102551250Y-52818000D01*
X102710000Y-52659250D01*
X102713072Y-52420000D01*
X102700812Y-52295518D01*
X102664502Y-52175820D01*
X102605537Y-52065506D01*
X102545901Y-51992839D01*
X102565512Y-51968942D01*
X102646423Y-51817567D01*
X102696248Y-51653316D01*
X102713072Y-51482500D01*
X102713072Y-51125000D01*
X105411928Y-51125000D01*
X105411928Y-51190000D01*
G37*
X105411928Y-51190000D02*
X105424188Y-51314482D01*
X105460498Y-51434180D01*
X105519463Y-51544494D01*
X105598815Y-51641185D01*
X105695506Y-51720537D01*
X105805820Y-51779502D01*
X105925518Y-51815812D01*
X106050000Y-51828072D01*
X107015000Y-51828072D01*
X107015001Y-54882546D01*
X106955820Y-54900498D01*
X106845506Y-54959463D01*
X106800000Y-54996809D01*
X106754494Y-54959463D01*
X106644180Y-54900498D01*
X106524482Y-54864188D01*
X106400000Y-54851928D01*
X105935750Y-54855000D01*
X105777000Y-55013750D01*
X105777000Y-56363000D01*
X105797000Y-56363000D01*
X105797000Y-56617000D01*
X105777000Y-56617000D01*
X105777000Y-57966250D01*
X105935750Y-58125000D01*
X106400000Y-58128072D01*
X106524482Y-58115812D01*
X106546518Y-58109127D01*
X106488617Y-58179681D01*
X106452363Y-58223856D01*
X106374827Y-58368915D01*
X106327081Y-58526313D01*
X106310959Y-58690001D01*
X106315000Y-58731029D01*
X106314999Y-62314133D01*
X105256135Y-63372998D01*
X105107955Y-63372998D01*
X105234119Y-63198126D01*
X105217446Y-63143136D01*
X105127123Y-62939794D01*
X105077647Y-62869658D01*
X105145824Y-62767624D01*
X105231383Y-62561067D01*
X105275000Y-62341788D01*
X105275000Y-62118212D01*
X105231383Y-61898933D01*
X105145824Y-61692376D01*
X105021612Y-61506480D01*
X104863520Y-61348388D01*
X104677624Y-61224176D01*
X104471067Y-61138617D01*
X104251788Y-61095000D01*
X104028212Y-61095000D01*
X103808933Y-61138617D01*
X103602376Y-61224176D01*
X103505000Y-61289241D01*
X103407624Y-61224176D01*
X103201067Y-61138617D01*
X102981788Y-61095000D01*
X102809803Y-61095000D01*
X101090000Y-59375199D01*
X101090000Y-57490000D01*
X104261928Y-57490000D01*
X104274188Y-57614482D01*
X104310498Y-57734180D01*
X104369463Y-57844494D01*
X104448815Y-57941185D01*
X104545506Y-58020537D01*
X104655820Y-58079502D01*
X104775518Y-58115812D01*
X104900000Y-58128072D01*
X105364250Y-58125000D01*
X105523000Y-57966250D01*
X105523000Y-56617000D01*
X104423750Y-56617000D01*
X104265000Y-56775750D01*
X104261928Y-57490000D01*
X101090000Y-57490000D01*
X101090000Y-55490000D01*
X104261928Y-55490000D01*
X104265000Y-56204250D01*
X104423750Y-56363000D01*
X105523000Y-56363000D01*
X105523000Y-55013750D01*
X105364250Y-54855000D01*
X104900000Y-54851928D01*
X104775518Y-54864188D01*
X104655820Y-54900498D01*
X104545506Y-54959463D01*
X104448815Y-55038815D01*
X104369463Y-55135506D01*
X104310498Y-55245820D01*
X104274188Y-55365518D01*
X104261928Y-55490000D01*
X101090000Y-55490000D01*
X101090000Y-55313711D01*
X101133937Y-55269774D01*
X101247205Y-55100256D01*
X101325226Y-54911898D01*
X101365000Y-54711939D01*
X101365000Y-54508061D01*
X101325226Y-54308102D01*
X101247205Y-54119744D01*
X101238178Y-54106235D01*
X101314250Y-54105000D01*
X101473000Y-53946250D01*
X101473000Y-53072000D01*
X101727000Y-53072000D01*
X101727000Y-53946250D01*
X101885750Y-54105000D01*
X102075000Y-54108072D01*
X102199482Y-54095812D01*
X102319180Y-54059502D01*
X102429494Y-54000537D01*
X102526185Y-53921185D01*
X102605537Y-53824494D01*
X102664502Y-53714180D01*
X102700812Y-53594482D01*
X102713072Y-53470000D01*
X102710000Y-53230750D01*
X102551250Y-53072000D01*
X101727000Y-53072000D01*
X101473000Y-53072000D01*
X100648750Y-53072000D01*
X100490000Y-53230750D01*
X100486928Y-53470000D01*
X100498575Y-53588255D01*
X100431939Y-53575000D01*
X100372671Y-53575000D01*
X100362001Y-53561999D01*
X100246276Y-53467026D01*
X100114247Y-53396454D01*
X99970986Y-53352997D01*
X99859333Y-53342000D01*
X99859322Y-53342000D01*
X99822000Y-53338324D01*
X99784678Y-53342000D01*
X98935992Y-53342000D01*
X98978754Y-53273641D01*
X99034085Y-53110238D01*
X98905631Y-52959000D01*
X97866200Y-52959000D01*
X97866200Y-52979000D01*
X97612200Y-52979000D01*
X97612200Y-52959000D01*
X97592200Y-52959000D01*
X97592200Y-52705000D01*
X97612200Y-52705000D01*
X97612200Y-52685000D01*
X97866200Y-52685000D01*
X97866200Y-52705000D01*
X98905631Y-52705000D01*
X99034085Y-52553762D01*
X98978754Y-52390359D01*
X98875502Y-52225302D01*
X98785762Y-52130000D01*
X100559990Y-52130000D01*
X100535498Y-52175820D01*
X100499188Y-52295518D01*
X100486928Y-52420000D01*
X100490000Y-52659250D01*
X100648750Y-52818000D01*
X101473000Y-52818000D01*
X101473000Y-52798000D01*
X101727000Y-52798000D01*
X101727000Y-52818000D01*
X102551250Y-52818000D01*
X102710000Y-52659250D01*
X102713072Y-52420000D01*
X102700812Y-52295518D01*
X102664502Y-52175820D01*
X102605537Y-52065506D01*
X102545901Y-51992839D01*
X102565512Y-51968942D01*
X102646423Y-51817567D01*
X102696248Y-51653316D01*
X102713072Y-51482500D01*
X102713072Y-51125000D01*
X105411928Y-51125000D01*
X105411928Y-51190000D01*
G36*
X105424188Y-49065518D02*
G01*
X105411928Y-49190000D01*
X105411928Y-49255000D01*
X102125935Y-49255000D01*
X102080000Y-49250476D01*
X101896708Y-49268528D01*
X101720459Y-49321993D01*
X101716353Y-49324188D01*
X101558028Y-49408814D01*
X101415656Y-49525656D01*
X101386370Y-49561341D01*
X100971341Y-49976370D01*
X100935656Y-50005656D01*
X100818814Y-50148029D01*
X100758965Y-50260000D01*
X97290746Y-50260000D01*
X97244814Y-50255476D01*
X97198882Y-50260000D01*
X97061522Y-50273529D01*
X96885274Y-50326993D01*
X96844600Y-50348734D01*
X96844600Y-50038000D01*
X95986600Y-50038000D01*
X95986600Y-50058000D01*
X95732600Y-50058000D01*
X95732600Y-50038000D01*
X95712600Y-50038000D01*
X95712600Y-49784000D01*
X95732600Y-49784000D01*
X95732600Y-49764000D01*
X95986600Y-49764000D01*
X95986600Y-49784000D01*
X96844600Y-49784000D01*
X96844600Y-49434000D01*
X96800897Y-49244276D01*
X96721020Y-49066724D01*
X96652099Y-48970000D01*
X105453163Y-48970000D01*
X105424188Y-49065518D01*
G37*
X105424188Y-49065518D02*
X105411928Y-49190000D01*
X105411928Y-49255000D01*
X102125935Y-49255000D01*
X102080000Y-49250476D01*
X101896708Y-49268528D01*
X101720459Y-49321993D01*
X101716353Y-49324188D01*
X101558028Y-49408814D01*
X101415656Y-49525656D01*
X101386370Y-49561341D01*
X100971341Y-49976370D01*
X100935656Y-50005656D01*
X100818814Y-50148029D01*
X100758965Y-50260000D01*
X97290746Y-50260000D01*
X97244814Y-50255476D01*
X97198882Y-50260000D01*
X97061522Y-50273529D01*
X96885274Y-50326993D01*
X96844600Y-50348734D01*
X96844600Y-50038000D01*
X95986600Y-50038000D01*
X95986600Y-50058000D01*
X95732600Y-50058000D01*
X95732600Y-50038000D01*
X95712600Y-50038000D01*
X95712600Y-49784000D01*
X95732600Y-49784000D01*
X95732600Y-49764000D01*
X95986600Y-49764000D01*
X95986600Y-49784000D01*
X96844600Y-49784000D01*
X96844600Y-49434000D01*
X96800897Y-49244276D01*
X96721020Y-49066724D01*
X96652099Y-48970000D01*
X105453163Y-48970000D01*
X105424188Y-49065518D01*
M02*
