M48
; DRILL file {KiCad (5.1.5)-3} date 03/31/20 21:35:43
; FORMAT={-:-/ absolute / inch / decimal}
; #@! TF.CreationDate,2020-03-31T21:35:43+02:00
; #@! TF.GenerationSoftware,Kicad,Pcbnew,(5.1.5)-3
FMAT,2
INCH
T1C0.0157
T2C0.0256
T3C0.0354
T4C0.0433
%
G90
G05
T1
X3.35Y-2.65
X3.5Y-2.65
X3.6Y-2.6
X3.65Y-2.65
X3.9Y-2.7
X3.95Y-2.15
X4.2Y-2.1
X4.25Y-2.4
X4.3Y-2.35
X4.35Y-2.05
X4.4Y-2.1
X4.55Y-2.6
X4.6Y-2.45
X4.656Y-2.6354
X4.75Y-2.45
X4.95Y-2.0
T2
X4.05Y-2.45
X4.05Y-2.5
X4.05Y-2.55
X4.1Y-2.45
X4.1Y-2.5
X4.1Y-2.55
T4
X4.9783Y-2.2594
X4.9783Y-2.4406
T3
G00X4.9469Y-2.1256
M15
G01X5.0098Y-2.1256
M16
G05
G00X4.9469Y-2.5744
M15
G01X5.0098Y-2.5744
M16
G05
T0
M30
